<svg xmlns="http://www.w3.org/2000/svg" width="341" height="68" viewBox="0 0 341 68">
  <defs>
    <style>
      .cls-1 {
        fill: #ea382a;
      }

      .cls-2 {
        fill: #fff;
      }
    </style>
  </defs>
  <title>Risorsa 2</title>
  <g id="Livello_2" data-name="Livello 2">
    <g id="Livello_1-2" data-name="Livello 1">
      <rect class="cls-1" width="341" height="68"/>
      <g>
        <path class="cls-2" d="M27.62,35V33.28a6.86,6.86,0,0,0-.34-2.72c-.23-.43-.83-.64-1.83-.64-1.78,0-2.68.34-2.68,1a1.35,1.35,0,0,0,.22.66,1.52,1.52,0,0,1,.23.83,1.24,1.24,0,0,1-.45,1,1.55,1.55,0,0,1-1,.35,1.41,1.41,0,0,1-1.12-.45,1.55,1.55,0,0,1-.4-1.07,2.58,2.58,0,0,1,1.55-2.22,8.48,8.48,0,0,1,4.31-.91,7.48,7.48,0,0,1,3.24.52A2.24,2.24,0,0,1,30.61,31a7.53,7.53,0,0,1,.24,2.15V39.2A4.22,4.22,0,0,0,31,40.87a.63.63,0,0,0,.59.34,1.53,1.53,0,0,0,1.15-.82h.4a2.6,2.6,0,0,1-2.81,2.42c-1.54,0-2.45-.88-2.75-2.65a5.55,5.55,0,0,1-4.53,2.65,3.93,3.93,0,0,1-2.75-.93,3,3,0,0,1-1-2.3Q19.31,35.37,27.62,35Zm0,2.54V35.73c-2,.07-3.39.38-4,.92a2.82,2.82,0,0,0-1,2.32,2.39,2.39,0,0,0,.58,1.72,1.81,1.81,0,0,0,1.35.61,2.65,2.65,0,0,0,1.76-.65,3.45,3.45,0,0,0,1.06-1.32A5.16,5.16,0,0,0,27.62,37.51Z"/>
        <path class="cls-2" d="M36.75,41.55V30.23H34.4v-.84h1.51A29.32,29.32,0,0,0,40,29.14v3.23H40c1.14-2.26,2.74-3.4,4.82-3.4a3.71,3.71,0,0,1,2.39.75,3.75,3.75,0,0,1,1.27,1.75,10.51,10.51,0,0,1,.34,3.13v6.95h2.58v.85h-8v-.85h2.2V33.28a9.62,9.62,0,0,0-.24-2.63c-.16-.49-.57-.73-1.25-.73a3.65,3.65,0,0,0-2.88,1.64A7,7,0,0,0,40,36v5.56h2.17v.85H34.4v-.85Z"/>
        <path class="cls-2" d="M65.89,20V41.55h2.24v.85H66.27a34.47,34.47,0,0,0-3.7.2V39.88H62.5a4.41,4.41,0,0,1-4.24,2.93,5.29,5.29,0,0,1-4.11-2.08A7,7,0,0,1,52.37,36a7.24,7.24,0,0,1,1.88-4.94A5.75,5.75,0,0,1,58.68,29a4,4,0,0,1,3.82,2.34h.07V21.05h-3V20.2h3A23.07,23.07,0,0,0,65.89,20Zm-7.11,9.76a2.08,2.08,0,0,0-2.26,1.35,20.41,20.41,0,0,0-.46,5.47c0,2.37.2,3.87.58,4.48a2,2,0,0,0,1.87.93A3.6,3.6,0,0,0,61,41a4.43,4.43,0,0,0,1.39-2.15,16.59,16.59,0,0,0,.33-3.93,6.18,6.18,0,0,0-1-3.89A3.44,3.44,0,0,0,58.78,29.72Z"/>
        <path class="cls-2" d="M88.46,37.89h.71a6.33,6.33,0,0,1-2,3.66,5.18,5.18,0,0,1-3.51,1.26A6.21,6.21,0,0,1,79,40.73,6.78,6.78,0,0,1,77,36a6.87,6.87,0,0,1,2-4.88A6.52,6.52,0,0,1,84,29,5.28,5.28,0,0,1,87.38,30a3,3,0,0,1,1.33,2.39,1.77,1.77,0,0,1-.46,1.2,1.47,1.47,0,0,1-1.18.52,1.63,1.63,0,0,1-1.18-.44,1.53,1.53,0,0,1-.47-1.18,1.59,1.59,0,0,1,.4-1c.27-.33.41-.55.41-.67,0-.3-.21-.56-.62-.79A3.17,3.17,0,0,0,84,29.72a3.27,3.27,0,0,0-2.56.93c-.56.61-.84,1.92-.84,3.92s.06,3.47.16,4.43a4.1,4.1,0,0,0,.84,2.25,2.75,2.75,0,0,0,2.23.82C86,42.07,87.58,40.68,88.46,37.89Z"/>
        <path class="cls-2" d="M90.76,35.86a6.67,6.67,0,0,1,2-4.87,6.56,6.56,0,0,1,4.88-2,6.65,6.65,0,0,1,4.82,1.93,6.48,6.48,0,0,1,2,4.83,6.84,6.84,0,0,1-2,5,6.63,6.63,0,0,1-4.85,2.06,6.49,6.49,0,0,1-4.75-2A6.75,6.75,0,0,1,90.76,35.86Zm9.93,0a23.88,23.88,0,0,0-.21-4,2.61,2.61,0,0,0-.93-1.55,3.08,3.08,0,0,0-2-.57,3.13,3.13,0,0,0-2,.59,2.48,2.48,0,0,0-1,1.56,27.81,27.81,0,0,0-.18,4A22.7,22.7,0,0,0,94.71,40a2.51,2.51,0,0,0,1,1.55,3.46,3.46,0,0,0,3.82,0,2.51,2.51,0,0,0,1-1.58A24.66,24.66,0,0,0,100.69,35.86Z"/>
        <path class="cls-2" d="M120,20V41.55h2.23v.85H120.4a34.65,34.65,0,0,0-3.71.2V39.88h-.07a4.41,4.41,0,0,1-4.23,2.93,5.3,5.3,0,0,1-4.12-2.08,7.05,7.05,0,0,1-1.78-4.7,7.24,7.24,0,0,1,1.88-4.94A5.77,5.77,0,0,1,112.8,29a4,4,0,0,1,3.82,2.34h.07V21.05h-3V20.2h3A23.31,23.31,0,0,0,120,20Zm-7.12,9.76a2.09,2.09,0,0,0-2.26,1.35,21,21,0,0,0-.45,5.47c0,2.37.19,3.87.57,4.48a2,2,0,0,0,1.87.93,3.6,3.6,0,0,0,2.45-.94,4.43,4.43,0,0,0,1.39-2.15,16.59,16.59,0,0,0,.33-3.93,6.12,6.12,0,0,0-1-3.89A3.44,3.44,0,0,0,112.9,29.72Z"/>
        <path class="cls-2" d="M135.6,34.9h-8.37q-.12,4.91.54,6a2.5,2.5,0,0,0,2.37,1.14q3.51,0,4.75-4.08h.71a6,6,0,0,1-2.07,3.64,5.36,5.36,0,0,1-3.39,1.18,6.31,6.31,0,0,1-4.63-2,6.72,6.72,0,0,1-2-5,6.79,6.79,0,0,1,1.92-4.9,6.09,6.09,0,0,1,4.48-2,5.47,5.47,0,0,1,3.88,1.58A6.08,6.08,0,0,1,135.6,34.9Zm-8.37-.75H132a17.08,17.08,0,0,0,.14-1.78c0-1.77-.8-2.65-2.4-2.65a2.59,2.59,0,0,0-1.87.64,2.22,2.22,0,0,0-.68,1.73Z"/>
        <path class="cls-2" d="M156.75,34.9h-8.38c-.08,3.27.11,5.28.55,6a2.5,2.5,0,0,0,2.37,1.14c2.33,0,3.92-1.36,4.75-4.08h.71a6.08,6.08,0,0,1-2.07,3.64,5.4,5.4,0,0,1-3.39,1.18,6.33,6.33,0,0,1-4.64-2,6.76,6.76,0,0,1-2-5,6.76,6.76,0,0,1,1.93-4.9,6.07,6.07,0,0,1,4.48-2A5.49,5.49,0,0,1,155,30.55,6.08,6.08,0,0,1,156.75,34.9Zm-8.38-.75h4.82a16.5,16.5,0,0,0,.13-1.78c0-1.77-.8-2.65-2.4-2.65a2.6,2.6,0,0,0-1.87.64,2.26,2.26,0,0,0-.68,1.73Z"/>
        <path class="cls-2" d="M160.4,41.55V30.23h-2.35v-.84h1.51a29.32,29.32,0,0,0,4.05-.25v3.23h.07c1.13-2.26,2.74-3.4,4.81-3.4a3.69,3.69,0,0,1,2.39.75,3.78,3.78,0,0,1,1.28,1.75,10.85,10.85,0,0,1,.34,3.13v6.95h2.58v.85h-8v-.85h2.2V33.28a9.62,9.62,0,0,0-.24-2.63c-.16-.49-.57-.73-1.25-.73a3.68,3.68,0,0,0-2.89,1.64A7.07,7.07,0,0,0,163.61,36v5.56h2.17v.85h-7.73v-.85Z"/>
        <path class="cls-2" d="M181.58,25.62v3.77h3.92v.84h-3.92v8.19a8.38,8.38,0,0,0,.24,2.47c.16.44.59.66,1.28.66a2.54,2.54,0,0,0,1.53-.53,3.15,3.15,0,0,0,1.12-1.64h.71q-.75,3.23-4.61,3.22a3.92,3.92,0,0,1-2.39-.59,2.4,2.4,0,0,1-.93-1.45,11.87,11.87,0,0,1-.18-2.33v-8h-2.94v-.84h2.94V25.9A19.2,19.2,0,0,0,181.58,25.62Z"/>
        <path class="cls-2" d="M190.09,41.55V21.05H187.5V20.2H190a16.78,16.78,0,0,0,3.32-.24V32.3h.07c1.1-2.08,2.65-3.13,4.63-3.13a4.89,4.89,0,0,1,2.35.62,2.9,2.9,0,0,1,1.47,1.78,15.57,15.57,0,0,1,.32,3.71v6.27h2.14v.85H196.8v-.85h2.14V35a33.34,33.34,0,0,0-.15-3.82c-.1-.75-.6-1.13-1.49-1.13a3,3,0,0,0-2.42,1.23,6.16,6.16,0,0,0-1.28,2.52,21.44,21.44,0,0,0-.29,4.19v3.59h2.14v.85h-7.7v-.85Z"/>
        <path class="cls-2" d="M219.61,29.39V41.55h2.23v.85h-2.23a15,15,0,0,0-3.26.2V39.52h-.07a4.91,4.91,0,0,1-4.68,3.08,4.4,4.4,0,0,1-3-1q-1.11-1-1.11-4.08V30.23h-2.4v-.84h5.62v8.74A11,11,0,0,0,211,41a1.17,1.17,0,0,0,1.28.79,3.62,3.62,0,0,0,2.81-1.63,7.82,7.82,0,0,0,1.29-4.91v-5h-2.65v-.84Z"/>
        <path class="cls-2" d="M232.28,29.24V33h-.68c-.51-2.16-1.74-3.23-3.71-3.23a3.3,3.3,0,0,0-2.12.67,1.93,1.93,0,0,0-.85,1.53,1.33,1.33,0,0,0,.6,1.15,7.86,7.86,0,0,0,2.86.72q4.94.62,4.94,4.5A4.38,4.38,0,0,1,232,41.52a4.31,4.31,0,0,1-3.18,1.29,5.46,5.46,0,0,1-3.63-1.54l-1.16,1h-.58V37.38h.58c1,3.12,2.55,4.69,4.79,4.69a3.67,3.67,0,0,0,2.31-.82,2.34,2.34,0,0,0,1-1.9,1.58,1.58,0,0,0-.62-1.37,9.22,9.22,0,0,0-3.35-.86q-4.65-.67-4.65-4.14a3.71,3.71,0,0,1,1.25-2.85,4.33,4.33,0,0,1,3-1.16,4.4,4.4,0,0,1,3.2,1.26,4.55,4.55,0,0,0,.68-1Z"/>
        <path class="cls-2" d="M240.27,29.14V41.55h2.17v.85h-7.7v-.85h2.32V30.23h-2.32v-.84h2.35A18.81,18.81,0,0,0,240.27,29.14ZM237,22.77a1.74,1.74,0,0,1,.53-1.26,1.76,1.76,0,0,1,1.27-.53,1.81,1.81,0,0,1,1.27.52,1.73,1.73,0,0,1,.53,1.27,1.69,1.69,0,0,1-.53,1.29,1.84,1.84,0,0,1-2.55,0A1.73,1.73,0,0,1,237,22.77Z"/>
        <path class="cls-2" d="M252.23,35V33.28a6.86,6.86,0,0,0-.34-2.72c-.22-.43-.83-.64-1.82-.64-1.79,0-2.69.34-2.69,1a1.28,1.28,0,0,0,.23.66,1.51,1.51,0,0,1,.22.83,1.24,1.24,0,0,1-.45,1,1.53,1.53,0,0,1-1,.35,1.43,1.43,0,0,1-1.13-.45,1.59,1.59,0,0,1-.4-1.07,2.6,2.6,0,0,1,1.55-2.22,8.5,8.5,0,0,1,4.31-.91,7.56,7.56,0,0,1,3.25.52A2.25,2.25,0,0,1,255.22,31a7.53,7.53,0,0,1,.24,2.15V39.2a4.43,4.43,0,0,0,.19,1.67.64.64,0,0,0,.59.34c.4,0,.78-.28,1.16-.82h.39A2.6,2.6,0,0,1,255,42.81c-1.53,0-2.45-.88-2.75-2.65a5.55,5.55,0,0,1-4.53,2.65,4,4,0,0,1-2.75-.93,3,3,0,0,1-1-2.3Q243.93,35.37,252.23,35Zm0,2.54V35.73c-2,.07-3.38.38-4,.92a2.8,2.8,0,0,0-1,2.32,2.39,2.39,0,0,0,.59,1.72,1.81,1.81,0,0,0,1.35.61,2.67,2.67,0,0,0,1.76-.65A3.51,3.51,0,0,0,252,39.33,4.94,4.94,0,0,0,252.23,37.51Z"/>
        <path class="cls-2" d="M268.35,29.24V33h-.68c-.51-2.16-1.74-3.23-3.71-3.23a3.32,3.32,0,0,0-2.12.67,1.93,1.93,0,0,0-.85,1.53,1.33,1.33,0,0,0,.6,1.15,7.79,7.79,0,0,0,2.86.72q4.94.62,4.94,4.5a4.42,4.42,0,0,1-1.28,3.23,4.31,4.31,0,0,1-3.19,1.29,5.45,5.45,0,0,1-3.62-1.54l-1.16,1h-.58V37.38h.58c.95,3.12,2.55,4.69,4.78,4.69a3.69,3.69,0,0,0,2.32-.82,2.34,2.34,0,0,0,1-1.9,1.58,1.58,0,0,0-.62-1.37,9.22,9.22,0,0,0-3.35-.86q-4.65-.67-4.65-4.14a3.71,3.71,0,0,1,1.25-2.85A4.33,4.33,0,0,1,264,29a4.4,4.4,0,0,1,3.2,1.26,4.55,4.55,0,0,0,.68-1Z"/>
        <path class="cls-2" d="M276.89,25.62v3.77h3.92v.84h-3.92v8.19a8.38,8.38,0,0,0,.24,2.47c.16.44.58.66,1.28.66a2.54,2.54,0,0,0,1.53-.53,3.27,3.27,0,0,0,1.12-1.64h.71q-.76,3.23-4.62,3.22a3.91,3.91,0,0,1-2.38-.59,2.42,2.42,0,0,1-.94-1.45,12.85,12.85,0,0,1-.17-2.33v-8h-3v-.84h3V25.9A19.29,19.29,0,0,0,276.89,25.62Z"/>
      </g>
    </g>
  </g>
</svg>
