<?xml version="1.0" encoding="utf-8"?>
<!-- Generator: Adobe Illustrator 24.0.0, SVG Export Plug-In . SVG Version: 6.00 Build 0)  -->
<svg version="1.1" id="Livello_1" xmlns="http://www.w3.org/2000/svg" xmlns:xlink="http://www.w3.org/1999/xlink" x="0px" y="0px"
	 viewBox="0 0 292 107" style="enable-background:new 0 0 292 107;" xml:space="preserve">
<style type="text/css">
	.st0{fill:#EA382A;}
	.st1{enable-background:new    ;}
	.st2{fill:#FFFFFF;}
</style>
<title>Risorsa 7</title>
<g id="Livello_6">
	<g>
		<rect class="st0" width="292" height="107"/>
	</g>
	<g class="st1">
		<path class="st2" d="M27.6,39v-1.7c0-1.4-0.1-2.3-0.3-2.7c-0.2-0.4-0.8-0.6-1.8-0.6c-1.8,0-2.7,0.3-2.7,1c0,0.2,0.1,0.4,0.2,0.7
			c0.1,0.2,0.2,0.5,0.2,0.8c0,0.5-0.1,0.8-0.4,1s-0.6,0.4-1,0.4c-0.5,0-0.9-0.2-1.1-0.5c-0.3-0.3-0.4-0.7-0.4-1.1
			c0-0.9,0.5-1.6,1.5-2.2c1-0.6,2.5-0.9,4.3-0.9c1.5,0,2.6,0.2,3.2,0.5c0.7,0.3,1.1,0.8,1.3,1.3c0.2,0.5,0.2,1.2,0.2,2.2v6.1
			c0,0.9,0.1,1.5,0.2,1.7c0.1,0.2,0.3,0.3,0.6,0.3c0.4,0,0.8-0.3,1.2-0.8h0.4c-0.3,1.6-1.2,2.4-2.8,2.4c-1.5,0-2.4-0.9-2.7-2.6
			c-1.3,1.8-2.8,2.6-4.5,2.6c-1.1,0-2.1-0.3-2.7-0.9c-0.7-0.6-1-1.4-1-2.3C19.3,40.8,22.1,39.2,27.6,39z M27.6,41.5v-1.8
			c-2,0.1-3.4,0.4-4,0.9s-1,1.3-1,2.3c0,0.7,0.2,1.3,0.6,1.7c0.4,0.4,0.8,0.6,1.3,0.6c0.7,0,1.2-0.2,1.8-0.7
			c0.5-0.4,0.9-0.9,1.1-1.3C27.5,42.9,27.6,42.3,27.6,41.5z"/>
		<path class="st2" d="M36.9,45.6V34.2h-2.4v-0.8H36c1.5,0,2.8-0.1,4.1-0.2v3.2h0.1c1.1-2.3,2.7-3.4,4.8-3.4c1,0,1.8,0.2,2.4,0.7
			c0.6,0.5,1,1.1,1.3,1.8c0.2,0.7,0.3,1.7,0.3,3.1v7h2.6v0.8h-8v-0.8h2.2v-8.3c0-1.3-0.1-2.1-0.2-2.6c-0.2-0.5-0.6-0.7-1.2-0.7
			c-1.1,0-2,0.5-2.9,1.6c-0.9,1.1-1.3,2.6-1.3,4.4v5.6h2.2v0.8h-7.7v-0.8H36.9z"/>
		<path class="st2" d="M66.2,24v21.6h2.2v0.8h-1.9c-1.2,0-2.4,0.1-3.7,0.2v-2.7h-0.1c-0.9,2-2.3,2.9-4.2,2.9c-1.6,0-2.9-0.7-4.1-2.1
			c-1.2-1.4-1.8-3-1.8-4.7c0-1.9,0.6-3.5,1.9-4.9s2.7-2.1,4.4-2.1c1.7,0,3,0.8,3.8,2.3h0.1V25.1h-3v-0.8h3
			C63.9,24.2,65.1,24.1,66.2,24z M59,33.7c-1.2,0-2,0.5-2.3,1.3c-0.3,0.9-0.5,2.7-0.5,5.5c0,2.4,0.2,3.9,0.6,4.5
			c0.4,0.6,1,0.9,1.9,0.9c0.9,0,1.7-0.3,2.4-0.9s1.2-1.3,1.4-2.2s0.3-2.1,0.3-3.9c0-1.7-0.3-3-1-3.9S60.3,33.7,59,33.7z"/>
		<path class="st2" d="M89,41.9h0.7c-0.3,1.6-1,2.8-2,3.7c-1,0.8-2.1,1.3-3.5,1.3c-1.9,0-3.4-0.7-4.7-2.1c-1.3-1.4-1.9-3-1.9-4.8
			c0-1.9,0.7-3.5,2-4.9c1.3-1.4,3-2.1,4.9-2.1c1.4,0,2.5,0.4,3.4,1.1c0.9,0.7,1.3,1.5,1.3,2.4c0,0.4-0.2,0.8-0.5,1.2
			c-0.3,0.4-0.7,0.5-1.2,0.5c-0.5,0-0.9-0.1-1.2-0.4S86,37,86,36.5c0-0.3,0.1-0.7,0.4-1s0.4-0.6,0.4-0.7c0-0.3-0.2-0.6-0.6-0.8
			c-0.4-0.2-0.9-0.3-1.6-0.3c-1.1,0-2,0.3-2.6,0.9c-0.6,0.6-0.8,1.9-0.8,3.9s0.1,3.5,0.2,4.4c0.1,1,0.4,1.7,0.8,2.3
			c0.5,0.5,1.2,0.8,2.2,0.8C86.6,46.1,88.1,44.7,89,41.9z"/>
		<path class="st2" d="M91.4,39.9c0-1.9,0.7-3.5,2-4.9c1.3-1.3,2.9-2,4.9-2c1.9,0,3.5,0.6,4.8,1.9s2,2.9,2,4.8c0,2-0.7,3.6-2.1,5
			c-1.4,1.4-3,2.1-4.8,2.1c-1.8,0-3.4-0.7-4.7-2C92.1,43.5,91.4,41.8,91.4,39.9z M101.4,39.9c0-2-0.1-3.4-0.2-4
			c-0.1-0.7-0.4-1.2-0.9-1.5c-0.5-0.4-1.1-0.6-2-0.6c-0.8,0-1.4,0.2-2,0.6c-0.5,0.4-0.8,0.9-1,1.6c-0.1,0.7-0.2,2-0.2,4
			c0,2,0.1,3.4,0.2,4.1s0.5,1.2,1,1.6s1.1,0.6,1.9,0.6c0.8,0,1.4-0.2,1.9-0.6c0.5-0.4,0.8-0.9,1-1.6
			C101.3,43.2,101.4,41.9,101.4,39.9z"/>
		<path class="st2" d="M120.8,24v21.6h2.2v0.8h-1.9c-1.2,0-2.4,0.1-3.7,0.2v-2.7h-0.1c-0.9,2-2.3,2.9-4.2,2.9
			c-1.6,0-2.9-0.7-4.1-2.1c-1.2-1.4-1.8-3-1.8-4.7c0-1.9,0.6-3.5,1.9-4.9s2.7-2.1,4.4-2.1c1.7,0,3,0.8,3.8,2.3h0.1V25.1h-3v-0.8h3
			C118.6,24.2,119.7,24.1,120.8,24z M113.7,33.7c-1.2,0-2,0.5-2.3,1.3c-0.3,0.9-0.5,2.7-0.5,5.5c0,2.4,0.2,3.9,0.6,4.5
			c0.4,0.6,1,0.9,1.9,0.9c0.9,0,1.7-0.3,2.4-0.9s1.2-1.3,1.4-2.2s0.3-2.1,0.3-3.9c0-1.7-0.3-3-1-3.9S114.9,33.7,113.7,33.7z"/>
		<path class="st2" d="M136.5,38.9h-8.4c-0.1,3.3,0.1,5.3,0.5,6c0.4,0.8,1.2,1.1,2.4,1.1c2.3,0,3.9-1.4,4.7-4.1h0.7
			c-0.4,1.6-1.1,2.9-2.1,3.6c-1,0.8-2.1,1.2-3.4,1.2c-1.8,0-3.3-0.7-4.6-2s-2-3-2-5c0-1.9,0.6-3.6,1.9-4.9c1.3-1.3,2.8-2,4.5-2
			c1.5,0,2.8,0.5,3.9,1.6C135.9,35.6,136.5,37.1,136.5,38.9z M128.2,38.2h4.8c0.1-0.8,0.1-1.4,0.1-1.8c0-1.8-0.8-2.6-2.4-2.6
			c-0.8,0-1.4,0.2-1.9,0.6c-0.5,0.4-0.7,1-0.7,1.7V38.2z"/>
	</g>
	<g class="st1">
		<path class="st2" d="M30.9,68.9h-8.4c-0.1,3.3,0.1,5.3,0.5,6c0.4,0.8,1.2,1.1,2.4,1.1c2.3,0,3.9-1.4,4.7-4.1h0.7
			c-0.4,1.6-1.1,2.9-2.1,3.6c-1,0.8-2.1,1.2-3.4,1.2c-1.8,0-3.3-0.7-4.6-2s-2-3-2-5c0-1.9,0.6-3.6,1.9-4.9c1.3-1.3,2.8-2,4.5-2
			c1.5,0,2.8,0.5,3.9,1.6C30.3,65.6,30.9,67.1,30.9,68.9z M22.6,68.2h4.8c0.1-0.8,0.1-1.4,0.1-1.8c0-1.8-0.8-2.6-2.4-2.6
			c-0.8,0-1.4,0.2-1.9,0.6c-0.5,0.4-0.7,1-0.7,1.7V68.2z"/>
		<path class="st2" d="M34.7,75.6V64.2h-2.4v-0.8h1.5c1.5,0,2.8-0.1,4.1-0.2v3.2H38c1.1-2.3,2.7-3.4,4.8-3.4c1,0,1.8,0.2,2.4,0.7
			c0.6,0.5,1,1.1,1.3,1.8c0.2,0.7,0.3,1.7,0.3,3.1v7h2.6v0.8h-8v-0.8h2.2v-8.3c0-1.3-0.1-2.1-0.2-2.6c-0.2-0.5-0.6-0.7-1.2-0.7
			c-1.1,0-2,0.5-2.9,1.6c-0.9,1.1-1.3,2.6-1.3,4.4v5.6h2.2v0.8h-7.7v-0.8H34.7z"/>
		<path class="st2" d="M56,59.6v3.8H60v0.8H56v8.2c0,1.2,0.1,2,0.2,2.5c0.2,0.4,0.6,0.7,1.3,0.7c0.5,0,1-0.2,1.5-0.5
			c0.5-0.4,0.9-0.9,1.1-1.6h0.7c-0.5,2.1-2,3.2-4.6,3.2c-1.1,0-1.9-0.2-2.4-0.6c-0.5-0.4-0.8-0.9-0.9-1.4c-0.1-0.6-0.2-1.4-0.2-2.3
			v-8h-2.9v-0.8h2.9v-3.5C53.9,59.9,55,59.8,56,59.6z"/>
		<path class="st2" d="M64.7,75.6V55.1h-2.6v-0.8h2.5c1.5,0,2.6-0.1,3.3-0.2v12.3H68c1.1-2.1,2.6-3.1,4.6-3.1c0.8,0,1.6,0.2,2.4,0.6
			c0.8,0.4,1.2,1,1.5,1.8c0.2,0.8,0.3,2,0.3,3.7v6.3h2.1v0.8h-7.5v-0.8h2.1V69c0-1.8,0-3.1-0.1-3.8c-0.1-0.8-0.6-1.1-1.5-1.1
			c-1,0-1.8,0.4-2.4,1.2c-0.7,0.8-1.1,1.7-1.3,2.5C68,68.6,67.9,70,67.9,72v3.6H70v0.8h-7.7v-0.8H64.7z"/>
		<path class="st2" d="M94.3,63.4v12.2h2.2v0.8h-2.2c-1.7,0-2.8,0.1-3.3,0.2v-3.1H91c-1,2.1-2.6,3.1-4.7,3.1c-1.2,0-2.2-0.3-3-1
			s-1.1-2-1.1-4.1v-7.3h-2.4v-0.8h5.6v8.7c0,1.4,0.1,2.3,0.2,2.8c0.2,0.5,0.6,0.8,1.3,0.8c1,0,2-0.5,2.8-1.6
			c0.9-1.1,1.3-2.7,1.3-4.9v-5h-2.6v-0.8H94.3z"/>
		<path class="st2" d="M107.1,63.3V67h-0.7c-0.5-2.2-1.7-3.2-3.7-3.2c-0.8,0-1.6,0.2-2.1,0.7c-0.6,0.4-0.9,1-0.9,1.5
			c0,0.5,0.2,0.9,0.6,1.1c0.4,0.3,1.4,0.5,2.9,0.7c3.3,0.4,4.9,1.9,4.9,4.5c0,1.3-0.4,2.4-1.3,3.2c-0.9,0.9-1.9,1.3-3.2,1.3
			c-1.2,0-2.5-0.5-3.6-1.5l-1.2,1h-0.6v-4.9h0.6c0.9,3.1,2.5,4.7,4.8,4.7c0.8,0,1.6-0.3,2.3-0.8c0.7-0.5,1-1.2,1-1.9
			c0-0.6-0.2-1.1-0.6-1.4s-1.5-0.6-3.4-0.9c-3.1-0.5-4.6-1.8-4.6-4.1c0-1.1,0.4-2.1,1.2-2.9c0.8-0.8,1.9-1.1,3.1-1.1
			c1.3,0,2.3,0.4,3.2,1.3c0.2-0.2,0.4-0.6,0.7-1H107.1z"/>
		<path class="st2" d="M115.3,63.2v12.4h2.2v0.8h-7.7v-0.8h2.3V64.2h-2.3v-0.8h2.3C113.2,63.4,114.3,63.3,115.3,63.2z M111.9,56.8
			c0-0.5,0.2-0.9,0.5-1.3c0.4-0.4,0.8-0.5,1.3-0.5s0.9,0.2,1.3,0.5c0.4,0.3,0.5,0.8,0.5,1.3c0,0.5-0.2,0.9-0.5,1.3s-0.8,0.5-1.3,0.5
			c-0.5,0-0.9-0.2-1.3-0.5C112.1,57.7,111.9,57.3,111.9,56.8z"/>
		<path class="st2" d="M127.4,69v-1.7c0-1.4-0.1-2.3-0.3-2.7c-0.2-0.4-0.8-0.6-1.8-0.6c-1.8,0-2.7,0.3-2.7,1c0,0.2,0.1,0.4,0.2,0.7
			c0.1,0.2,0.2,0.5,0.2,0.8c0,0.5-0.1,0.8-0.4,1s-0.6,0.4-1,0.4c-0.5,0-0.9-0.2-1.1-0.5c-0.3-0.3-0.4-0.7-0.4-1.1
			c0-0.9,0.5-1.6,1.5-2.2c1-0.6,2.5-0.9,4.3-0.9c1.5,0,2.6,0.2,3.2,0.5c0.7,0.3,1.1,0.8,1.3,1.3c0.2,0.5,0.2,1.2,0.2,2.2v6.1
			c0,0.9,0.1,1.5,0.2,1.7c0.1,0.2,0.3,0.3,0.6,0.3c0.4,0,0.8-0.3,1.2-0.8h0.4c-0.3,1.6-1.2,2.4-2.8,2.4c-1.5,0-2.4-0.9-2.7-2.6
			c-1.3,1.8-2.8,2.6-4.5,2.6c-1.1,0-2.1-0.3-2.7-0.9c-0.7-0.6-1-1.4-1-2.3C119.1,70.8,121.8,69.2,127.4,69z M127.4,71.5v-1.8
			c-2,0.1-3.4,0.4-4,0.9s-1,1.3-1,2.3c0,0.7,0.2,1.3,0.6,1.7c0.4,0.4,0.8,0.6,1.3,0.6c0.7,0,1.2-0.2,1.8-0.7
			c0.5-0.4,0.9-0.9,1.1-1.3C127.3,72.9,127.4,72.3,127.4,71.5z"/>
		<path class="st2" d="M143.6,63.3V67h-0.7c-0.5-2.2-1.7-3.2-3.7-3.2c-0.8,0-1.6,0.2-2.1,0.7c-0.6,0.4-0.9,1-0.9,1.5
			c0,0.5,0.2,0.9,0.6,1.1c0.4,0.3,1.4,0.5,2.9,0.7c3.3,0.4,4.9,1.9,4.9,4.5c0,1.3-0.4,2.4-1.3,3.2c-0.9,0.9-1.9,1.3-3.2,1.3
			c-1.2,0-2.5-0.5-3.6-1.5l-1.2,1h-0.6v-4.9h0.6c0.9,3.1,2.5,4.7,4.8,4.7c0.8,0,1.6-0.3,2.3-0.8c0.7-0.5,1-1.2,1-1.9
			c0-0.6-0.2-1.1-0.6-1.4s-1.5-0.6-3.4-0.9c-3.1-0.5-4.6-1.8-4.6-4.1c0-1.1,0.4-2.1,1.2-2.9c0.8-0.8,1.9-1.1,3.1-1.1
			c1.3,0,2.3,0.4,3.2,1.3c0.2-0.2,0.4-0.6,0.7-1H143.6z"/>
		<path class="st2" d="M152.3,59.6v3.8h3.9v0.8h-3.9v8.2c0,1.2,0.1,2,0.2,2.5s0.6,0.7,1.3,0.7c0.5,0,1-0.2,1.5-0.5
			c0.5-0.4,0.9-0.9,1.1-1.6h0.7c-0.5,2.1-2,3.2-4.6,3.2c-1.1,0-1.9-0.2-2.4-0.6c-0.5-0.4-0.8-0.9-0.9-1.4c-0.1-0.6-0.2-1.4-0.2-2.3
			v-8h-2.9v-0.8h2.9v-3.5C150.2,59.9,151.2,59.8,152.3,59.6z"/>
	</g>
</g>
</svg>
