<svg xmlns="http://www.w3.org/2000/svg" width="195.51" height="96.06" viewBox="0 0 195.51 96.06">
  <defs>
    <style>
      .cls-1 {
        fill: #fff;
      }
    </style>
  </defs>
  <title>Risorsa 4</title>
  <g id="Livello_2" data-name="Livello 2">
    <g id="graphic_designer" data-name="graphic designer">
      <g>
        <path class="cls-1" d="M17.83,38.94A15.82,15.82,0,0,1,5.4,33.58Q.66,28.21.65,19.5T5.5,5.38A16.26,16.26,0,0,1,18.19,0,16.43,16.43,0,0,1,28.6,3.39a13,13,0,0,1,5.11,8.69H28.89a8.58,8.58,0,0,0-3.57-5.66,12.72,12.72,0,0,0-7.43-2A10.7,10.7,0,0,0,9.14,8.6q-3.33,4.19-3.34,11Q5.8,26.78,9,30.73t9.11,3.94a11.49,11.49,0,0,0,9.22-4.17,12.09,12.09,0,0,0,1-1.38,9.16,9.16,0,0,0,1-2.74A14.4,14.4,0,0,0,29.8,23v-.45H18.22V18.37H34.39V37.91H31.27l-1.2-4.65-.28.33A14.92,14.92,0,0,1,17.83,38.94Z"/>
        <path class="cls-1" d="M41.2,11.05h4.3v4.6a14.9,14.9,0,0,1,1.23-2A7.64,7.64,0,0,1,53,10.25a4,4,0,0,1,1.28.23V15.1l-.93,0a7.29,7.29,0,0,0-5.67,2.2,9,9,0,0,0-2,6.27v14.4H41.2Z"/>
        <path class="cls-1" d="M63.56,38.66a8.93,8.93,0,0,1-6.26-2.11A7.32,7.32,0,0,1,55,30.85a7.69,7.69,0,0,1,2.18-5.75,10.68,10.68,0,0,1,6.34-2.67l6.15-.77a10.53,10.53,0,0,0,1.44-.25,2.36,2.36,0,0,0,1.35-.91,2.88,2.88,0,0,0,.48-1.71v-.22a4,4,0,0,0-1.63-3.38A7.43,7.43,0,0,0,66.75,14a6.69,6.69,0,0,0-4.36,1.29,5.69,5.69,0,0,0-1.9,3.86H56.32a8.91,8.91,0,0,1,3.12-6.65q2.79-2.22,8-2.22,4.89,0,7.46,2.12a7.59,7.59,0,0,1,2.56,6.2V33.34a1.47,1.47,0,0,0,.42,1.09,1.49,1.49,0,0,0,1.11.42,5.93,5.93,0,0,0,.6-.05c.25,0,.54-.09.84-.16v3.27a8.79,8.79,0,0,1-1.38.4,6.36,6.36,0,0,1-1.24.15,4.56,4.56,0,0,1-3.71-1.4A5.75,5.75,0,0,1,73,34.42a9.33,9.33,0,0,1-1.16,1.2A12,12,0,0,1,63.56,38.66Zm9.37-11.38V24.37a9.76,9.76,0,0,1-2.79.83L66,25.8a11.15,11.15,0,0,0-4.78,1.52,3.38,3.38,0,0,0-1.5,2.9A4.68,4.68,0,0,0,61,33.7a4.71,4.71,0,0,0,3.49,1.22,9.45,9.45,0,0,0,6-1.93,6.52,6.52,0,0,0,2.23-3.07,5.18,5.18,0,0,0,.16-1A15.79,15.79,0,0,0,72.93,27.28Z"/>
        <path class="cls-1" d="M84.63,11.05h4.3v3.82l.23-.32a8.86,8.86,0,0,1,7.66-4.3,10.37,10.37,0,0,1,8.35,3.63q3.08,3.63,3.08,9.81,0,7-3.1,11a10.29,10.29,0,0,1-8.61,4,8.64,8.64,0,0,1-7.23-3.49l-.15-.2V52.9H84.63Zm11.69,23.7a6.1,6.1,0,0,0,5.37-2.68q1.84-2.67,1.84-7.8t-1.76-7.48a6.27,6.27,0,0,0-5.43-2.42,6,6,0,0,0-5.46,2.74q-1.72,2.73-1.72,8.67A10.42,10.42,0,0,0,91,32.41,6.37,6.37,0,0,0,96.32,34.75Z"/>
        <path class="cls-1" d="M113.6,1h4.52V14.7l.78-1a9.3,9.3,0,0,1,7.36-3.44c3,0,5.25.8,6.86,2.41s2.41,3.9,2.41,6.86V37.94H131V20.65c0-2.23-.42-3.83-1.28-4.81a5.25,5.25,0,0,0-4.17-1.47,6.65,6.65,0,0,0-5.43,2.47,10.35,10.35,0,0,0-2,6.7v14.4H113.6Z"/>
        <path class="cls-1" d="M142.32,1h4.62V6.13h-4.62Zm.05,10h4.52V37.94h-4.52Z"/>
        <path class="cls-1" d="M174.85,28.26A12.46,12.46,0,0,1,171.26,36a10.88,10.88,0,0,1-7.69,2.66A10.53,10.53,0,0,1,155,34.82q-3.19-3.84-3.19-10.35t3.3-10.36a12.36,12.36,0,0,1,16.62-1.21,10,10,0,0,1,3.09,7.3H170.5a6.16,6.16,0,0,0-6.63-6.06,6.2,6.2,0,0,0-5.36,2.76,12.87,12.87,0,0,0-1.95,7.57q0,5.13,1.81,7.71a6.74,6.74,0,0,0,9.79.89,8.58,8.58,0,0,0,2.34-4.81Z"/>
        <path class="cls-1" d="M11.78,85.44a10.41,10.41,0,0,1-8.59-4Q0,77.38,0,70.52q0-6.06,3.09-9.78A10,10,0,0,1,11.15,57,9,9,0,0,1,19,61.22l.35.5V47.78h4.53V84.71h-4.2V81l-.58.83A8.83,8.83,0,0,1,11.78,85.44ZM12,61.09q-3.79,0-5.55,2.43t-1.76,7.7c0,3.31.64,5.87,1.9,7.66A6.23,6.23,0,0,0,12,81.57a6.49,6.49,0,0,0,5.3-2.48,10,10,0,0,0,2-6.54c0-3.67-.63-6.49-1.89-8.48A6.08,6.08,0,0,0,12,61.09Z"/>
        <path class="cls-1" d="M41.1,85.44a11.49,11.49,0,0,1-9-3.62q-3.27-3.61-3.26-10Q28.87,65,32.32,61a11.64,11.64,0,0,1,9.28-4,10.52,10.52,0,0,1,8.52,3.92q3.24,3.93,3.24,10.3l0,1.61H33.67A11.66,11.66,0,0,0,35.51,79q1.91,2.56,6,2.56a7.29,7.29,0,0,0,4.52-1.45,5.88,5.88,0,0,0,2.36-3.72h4.47a11.29,11.29,0,0,1-4,6.74A12.33,12.33,0,0,1,41.1,85.44Zm7.55-16.23a10.12,10.12,0,0,0-1.86-5.83,6.46,6.46,0,0,0-5.38-2.31,6.94,6.94,0,0,0-5.7,2.66,10.27,10.27,0,0,0-2,5.48Z"/>
        <path class="cls-1" d="M74.16,65.62a4.66,4.66,0,0,0-1.83-3.47A7,7,0,0,0,68,60.92a7.68,7.68,0,0,0-4.28,1,3.22,3.22,0,0,0-1.47,2.86,2.45,2.45,0,0,0,1,2.16,13.26,13.26,0,0,0,4.1,1.46L72,69.48a11.93,11.93,0,0,1,5.6,2.64,6.29,6.29,0,0,1,1.67,4.65,7.73,7.73,0,0,1-2.88,6.33,12,12,0,0,1-7.77,2.34q-5.69,0-8.47-2.25t-3.09-7.07h4.34a5.72,5.72,0,0,0,2,4.14,8.55,8.55,0,0,0,5.19,1.28,7.72,7.72,0,0,0,4.61-1.15A3.91,3.91,0,0,0,74.82,77a2.42,2.42,0,0,0-1-2.13,13.4,13.4,0,0,0-4.14-1.46L65,72.32a11.14,11.14,0,0,1-5.4-2.53A6.14,6.14,0,0,1,58,65.26a7.38,7.38,0,0,1,2.7-6A11.19,11.19,0,0,1,68,57a11.41,11.41,0,0,1,7.47,2.29,8.2,8.2,0,0,1,3,6.31Z"/>
        <path class="cls-1" d="M84.64,57.83h4.52V84.71H84.64Z"/>
        <path class="cls-1" d="M105.77,92.32a7.26,7.26,0,0,0,5.93-2.45q2-2.45,2-7.15v-.87l0,0a8.82,8.82,0,0,1-7.29,3.57,10.41,10.41,0,0,1-8.59-4q-3.19-4-3.19-10.89,0-6.06,3.14-9.78A10.22,10.22,0,0,1,106,57a8.82,8.82,0,0,1,7.69,4.2l.33.48V57.83h4.24V82.72c0,4.54-1,7.9-3.06,10.08s-5.14,3.26-9.35,3.26A11.48,11.48,0,0,1,98.58,94a9,9,0,0,1-3.24-6.14H100a5.19,5.19,0,0,0,1.93,3.33A6.16,6.16,0,0,0,105.77,92.32Zm.88-31.18q-3.8,0-5.54,2.42c-1.17,1.6-1.75,4.16-1.75,7.66q0,4.95,1.9,7.62a6.2,6.2,0,0,0,5.39,2.68,6.51,6.51,0,0,0,5.3-2.46,10,10,0,0,0,2-6.51q0-5.7-1.82-8.55A6.08,6.08,0,0,0,106.65,61.14Z"/>
        <path class="cls-1" d="M124.53,57.83h4.3v4l1-1.33a9.13,9.13,0,0,1,16.63,5.82V84.71h-4.53V67.83c0-2.36-.45-4.07-1.37-5.12a5.61,5.61,0,0,0-4.43-1.57A6.18,6.18,0,0,0,131,63.62a10.64,10.64,0,0,0-1.91,6.69v14.4h-4.53Z"/>
        <path class="cls-1" d="M164.1,85.44a11.49,11.49,0,0,1-9-3.62q-3.25-3.61-3.26-10,0-6.78,3.45-10.79a11.64,11.64,0,0,1,9.29-4,10.52,10.52,0,0,1,8.51,3.92q3.24,3.93,3.24,10.3l-.05,1.61H156.67A11.66,11.66,0,0,0,158.51,79q1.91,2.56,6,2.56a7.29,7.29,0,0,0,4.52-1.45,5.88,5.88,0,0,0,2.36-3.72h4.47a11.27,11.27,0,0,1-4,6.74A12.36,12.36,0,0,1,164.1,85.44Zm7.55-16.23a10,10,0,0,0-1.86-5.83,6.45,6.45,0,0,0-5.38-2.31,6.94,6.94,0,0,0-5.7,2.66,10.27,10.27,0,0,0-2,5.48Z"/>
        <path class="cls-1" d="M182.39,57.83h4.3v4.6a14.26,14.26,0,0,1,1.23-2,7.63,7.63,0,0,1,6.3-3.45,4,4,0,0,1,1.29.23v4.62l-.93,0a7.25,7.25,0,0,0-5.67,2.2,9,9,0,0,0-2,6.26v14.4h-4.52Z"/>
      </g>
    </g>
  </g>
</svg>
