<?xml version="1.0" encoding="utf-8"?>
<!-- Generator: Adobe Illustrator 24.0.0, SVG Export Plug-In . SVG Version: 6.00 Build 0)  -->
<svg version="1.1" id="Livello_1" xmlns="http://www.w3.org/2000/svg" xmlns:xlink="http://www.w3.org/1999/xlink" x="0px" y="0px"
	 viewBox="0 0 193.5 193.5" style="enable-background:new 0 0 193.5 193.5;" xml:space="preserve">
<style type="text/css">
	.st0{fill:#FFFFFF;}
	.st1{enable-background:new    ;}
</style>
<title>Risorsa 2</title>
<g id="Livello_2_1_">
	<g id="i_m">
		<g>
			<rect x="0.5" y="0.5" class="st0" width="192.5" height="192.5"/>
			<path d="M193.5,193.5H0V0h193.5V193.5z M1,192.5h191.5V1H1V192.5z"/>
		</g>
		<g class="st1">
			<path d="M42.2,114.3c4.3-0.1,6.5-0.6,7.2-3.2l10-37.7c0.2-0.8,0.4-1.5,0.4-2.3c0-1.4-1-1.9-5.6-2.3l0.5-1.9h17.9l-0.5,1.9
				c-4.3,0.1-6.5,0.6-7.2,3.2l-10,37.7c-0.2,0.8-0.4,1.5-0.4,2.3c0,1.4,1,1.9,5.9,2.3l-0.4,1.9H41.7L42.2,114.3z"/>
			<path d="M74.5,85.2c2.4-2.1,7.1-6.1,7.1-10.4c0-0.6,0-1.2-0.5-1.2c-2.4,0-3.7-1.6-3.7-3.8c0-1.4,1.4-2.9,3.4-2.9
				c3,0,4.1,2.6,4.1,5c0,6.9-4.6,10.9-8.8,14.6L74.5,85.2z"/>
			<path d="M97.9,93.6c0.6-2.3,1.2-4.4,1.2-6.8c0-2.1-0.4-3.3-2.3-3.3c-2.4,0-5.5,2.4-9.1,10.9l-1.6-0.6c2.4-6.6,6.2-12.2,11.3-12.2
				c4.1,0,5,3.7,5,7.7c0,1.1-0.3,3.8-0.6,5.5L102,95c2.5-3.6,7-13.4,13.5-13.4c4.5,0,6.4,3.5,6.4,7.9c0,1.9-0.2,3.8-0.6,5.5l0.1,0.1
				c2.8-4.9,7.4-13.6,14.9-13.6c5.1,0,6.6,4,6.6,7.7c0,6.7-8.6,19-8.6,23.2c0,1.4,1.5,2.5,3.1,2.5c2.8,0,6.9-3.5,10.2-12.2l1.4,0.6
				c-2.9,8.2-7.1,13.4-12.6,13.4c-2.9,0-5.7-2.7-5.7-6.2c0-6.2,8.6-18.2,8.6-23.7c0-2.3-1.1-3.5-3.5-3.5c-8.1,0-15.8,17.8-18.4,26.9
				l-1.6,5.7h-4.5l6.1-22.2c0.6-2,1.1-4.1,1.1-6.2c0-2.5-0.6-4.2-3.3-4.2c-5.8,0-12.5,12.9-15.3,21L96,116.1h-4.4L97.9,93.6z"/>
		</g>
	</g>
</g>
</svg>
