<svg xmlns="http://www.w3.org/2000/svg" width="1676.48" height="756.63" viewBox="0 0 1676.48 756.63">
  <defs>
    <style>
      .cls-1 {
        fill: none;
      }

      .cls-1, .cls-5 {
        stroke: #fff;
      }

      .cls-1, .cls-5, .cls-6 {
        stroke-miterlimit: 10;
      }

      .cls-10, .cls-2, .cls-7, .cls-8, .cls-9 {
        font-size: 20px;
      }

      .cls-2, .cls-6, .cls-9 {
        fill: #fff;
      }

      .cls-2, .cls-7 {
        font-family: OpenSans, Open Sans;
      }

      .cls-3, .cls-8 {
        fill: #1884aa;
      }

      .cls-10, .cls-4 {
        fill: #ea382a;
      }

      .cls-6 {
        stroke: #000;
        stroke-width: 2px;
      }

      .cls-10, .cls-8, .cls-9 {
        font-family: OpenSans-Bold, Open Sans;
        font-weight: 700;
      }
    </style>
  </defs>
  <title>Risorsa 10</title>
  <g id="Livello_2" data-name="Livello 2">
    <g id="Livello_6" data-name="Livello 6">
      <line class="cls-1" x1="1626.77" y1="25.11" x2="1626.77" y2="756.63"/>
      <line class="cls-1" x1="1517.06" y1="25.11" x2="1517.06" y2="756.63"/>
      <line class="cls-1" x1="1407.34" y1="25.11" x2="1407.34" y2="756.63"/>
      <line class="cls-1" x1="1297.63" y1="1.82" x2="1297.63" y2="756.63"/>
      <line class="cls-1" x1="1187.91" y1="25.11" x2="1187.91" y2="756.63"/>
      <line class="cls-1" x1="1078.2" y1="25.11" x2="1078.2" y2="756.63"/>
      <line class="cls-1" x1="858.77" y1="25.11" x2="858.77" y2="756.63"/>
      <line class="cls-1" x1="529.63" y1="25.11" x2="529.63" y2="756.63"/>
      <line class="cls-1" x1="200.48" y1="0.13" x2="200.48" y2="756.63"/>
      <line class="cls-1" x1="1599.77" y1="25.11" x2="1599.77" y2="756.63"/>
      <line class="cls-1" x1="1654.63" y1="25.11" x2="1654.63" y2="756.63"/>
      <line class="cls-1" x1="1571.91" y1="1.82" x2="1571.91" y2="756.63"/>
      <line class="cls-1" x1="1462.2" y1="25.11" x2="1462.2" y2="756.63"/>
      <line class="cls-1" x1="1352.48" y1="25.11" x2="1352.48" y2="756.63"/>
      <line class="cls-1" x1="1242.77" y1="25.11" x2="1242.77" y2="756.63"/>
      <line class="cls-1" x1="1133.06" y1="25.11" x2="1133.06" y2="756.63"/>
      <line class="cls-1" x1="1023.34" y1="1.82" x2="1023.34" y2="756.63"/>
      <line class="cls-1" x1="694.2" y1="25.11" x2="694.2" y2="756.63"/>
      <line class="cls-1" x1="365.06" y1="25.11" x2="365.06" y2="756.63"/>
      <line class="cls-1" x1="776.48" y1="25.11" x2="776.48" y2="756.63"/>
      <line class="cls-1" x1="447.34" y1="25.11" x2="447.34" y2="756.63"/>
      <line class="cls-1" x1="941.06" y1="25.11" x2="941.06" y2="756.63"/>
      <line class="cls-1" x1="611.91" y1="0.13" x2="611.91" y2="756.63"/>
      <line class="cls-1" x1="282.77" y1="25.11" x2="282.77" y2="756.63"/>
      <text class="cls-2" transform="translate(208.91 17.14)">2020</text>
      <text class="cls-2" transform="translate(616.91 17.14)">2015</text>
      <text class="cls-2" transform="translate(1028.91 17.14)">2010</text>
      <text class="cls-2" transform="translate(1302.91 17.14)">2005</text>
      <text class="cls-2" transform="translate(1576.91 17.14)">2000</text>
      <text class="cls-2" transform="translate(232.91 187.52)">Degree in <tspan x="0" y="24">Communication </tspan><tspan x="0" y="48">Design</tspan></text>
    </g>
    <g id="Livello_7" data-name="Livello 7">
      <rect class="cls-3" x="876.98" y="169.83" width="215.5" height="31"/>
      <rect class="cls-3" x="1090.98" y="214.17" width="274.5" height="31"/>
      <g>
        <rect class="cls-3" x="198.98" y="81.13" width="267.5" height="31"/>
        <text class="cls-2" transform="translate(232.91 103.14)">Politecnico di Milano</text>
      </g>
      <g>
        <rect class="cls-4" x="200.48" y="391.57" width="1049" height="31"/>
        <text class="cls-2" transform="translate(208.91 412.75)">Cycling</text>
      </g>
      <g>
        <rect class="cls-4" x="200.48" y="435.92" width="676" height="31"/>
        <text class="cls-2" transform="translate(208.91 457.08)">Tennis</text>
      </g>
      <g>
        <rect class="cls-4" x="200.48" y="480.27" width="1454" height="31"/>
        <text class="cls-2" transform="translate(208.91 501.42)">Hiking</text>
      </g>
      <g>
        <rect class="cls-5" x="759.48" y="524.62" width="547" height="31"/>
        <text class="cls-2" transform="translate(765.91 546.13)">Choir</text>
      </g>
      <g>
        <rect class="cls-5" x="423.48" y="568.96" width="336" height="31"/>
        <text class="cls-2" transform="translate(430.91 590.33)">Rock Band</text>
      </g>
      <g>
        <rect class="cls-5" x="463.98" y="613.31" width="491.5" height="31"/>
        <text class="cls-2" transform="translate(471.91 635.68)">Piano</text>
      </g>
      <g>
        <rect class="cls-5" x="255.48" y="657.66" width="292" height="31"/>
        <text class="cls-2" transform="translate(264.91 678.8)">Oil painting</text>
      </g>
      <g>
        <rect class="cls-5" x="325.48" y="702.01" width="222" height="31"/>
        <rect class="cls-5" x="200.48" y="702.02" width="26" height="31"/>
        <text class="cls-2" transform="translate(332.91 723.14)">Graphic novel</text>
      </g>
      <g>
        <rect class="cls-3" x="463.98" y="125.48" width="412.5" height="31"/>
        <text class="cls-2" transform="translate(471.91 146.84)">Scientific High School</text>
      </g>
      <g>
        <rect class="cls-6" x="463.98" y="258.52" width="627.5" height="31"/>
        <text class="cls-7" transform="translate(471.91 279.89)">French</text>
      </g>
      <g>
        <rect class="cls-6" x="463.2" y="302.87" width="902.28" height="31"/>
        <text class="cls-7" transform="translate(471.91 324.05)">English</text>
      </g>
      <g>
        <rect class="cls-6" x="198.98" y="347.22" width="178.5" height="31"/>
        <text class="cls-7" transform="translate(203.91 368.23)">German</text>
      </g>
      <line class="cls-1" x1="225.86" y1="81.13" x2="225.86" y2="235.13"/>
      <text class="cls-8" transform="translate(0 101.55)">My education</text>
      <text class="cls-9" transform="translate(0 273.72)">Languages <tspan x="0" y="24">I studied</tspan></text>
      <text class="cls-10" transform="translate(0 406.77)">Sports I love</text>
      <text class="cls-9" transform="translate(0 539.82)">Art I made <tspan x="0" y="24">and studied</tspan></text>
    </g>
  </g>
</svg>
