<svg xmlns="http://www.w3.org/2000/svg" width="1655.13" height="756.5" viewBox="0 0 1655.13 756.5">
  <defs>
    <style>
      .cls-1 {
        fill: none;
      }

      .cls-1, .cls-5 {
        stroke: #fff;
      }

      .cls-1, .cls-5, .cls-6 {
        stroke-miterlimit: 10;
      }

      .cls-2, .cls-6 {
        fill: #fff;
      }

      .cls-3 {
        fill: #1884aa;
      }

      .cls-4 {
        fill: #ea382a;
      }

      .cls-6 {
        stroke: #000;
        stroke-width: 2px;
      }
    </style>
  </defs>
  <title>Risorsa 15</title>
  <g id="Livello_2" data-name="Livello 2">
    <g id="Livello_6" data-name="Livello 6">
      <line class="cls-1" x1="1626.77" y1="24.98" x2="1626.77" y2="756.5"/>
      <line class="cls-1" x1="1517.06" y1="24.98" x2="1517.06" y2="756.5"/>
      <line class="cls-1" x1="1407.34" y1="24.98" x2="1407.34" y2="756.5"/>
      <line class="cls-1" x1="1297.63" y1="1.69" x2="1297.63" y2="756.5"/>
      <line class="cls-1" x1="1187.91" y1="24.98" x2="1187.91" y2="756.5"/>
      <line class="cls-1" x1="1078.2" y1="24.98" x2="1078.2" y2="756.5"/>
      <line class="cls-1" x1="858.77" y1="24.98" x2="858.77" y2="756.5"/>
      <line class="cls-1" x1="529.63" y1="24.98" x2="529.63" y2="756.5"/>
      <line class="cls-1" x1="200.48" x2="200.48" y2="756.5"/>
      <line class="cls-1" x1="1599.77" y1="24.98" x2="1599.77" y2="756.5"/>
      <line class="cls-1" x1="1654.63" y1="24.98" x2="1654.63" y2="756.5"/>
      <line class="cls-1" x1="1571.91" y1="1.69" x2="1571.91" y2="756.5"/>
      <line class="cls-1" x1="1462.2" y1="24.98" x2="1462.2" y2="756.5"/>
      <line class="cls-1" x1="1352.48" y1="24.98" x2="1352.48" y2="756.5"/>
      <line class="cls-1" x1="1242.77" y1="24.98" x2="1242.77" y2="756.5"/>
      <line class="cls-1" x1="1133.06" y1="24.98" x2="1133.06" y2="756.5"/>
      <line class="cls-1" x1="1023.34" y1="1.69" x2="1023.34" y2="756.5"/>
      <line class="cls-1" x1="694.2" y1="24.98" x2="694.2" y2="756.5"/>
      <line class="cls-1" x1="365.06" y1="24.98" x2="365.06" y2="756.5"/>
      <line class="cls-1" x1="776.48" y1="24.98" x2="776.48" y2="756.5"/>
      <line class="cls-1" x1="447.34" y1="24.98" x2="447.34" y2="756.5"/>
      <line class="cls-1" x1="941.06" y1="24.98" x2="941.06" y2="756.5"/>
      <line class="cls-1" x1="611.91" x2="611.91" y2="756.5"/>
      <line class="cls-1" x1="282.77" y1="24.98" x2="282.77" y2="756.5"/>
      <g>
        <path class="cls-2" d="M219.27,17h-9.38v-1.4l3.76-3.78a25.72,25.72,0,0,0,2.26-2.48,5.91,5.91,0,0,0,.82-1.44A4,4,0,0,0,217,6.4a2.39,2.39,0,0,0-.7-1.82,2.66,2.66,0,0,0-1.92-.66,4.81,4.81,0,0,0-1.69.29,6.64,6.64,0,0,0-1.77,1.06l-.86-1.1a6.62,6.62,0,0,1,4.3-1.64,4.51,4.51,0,0,1,3.15,1,3.53,3.53,0,0,1,1.15,2.77A5.32,5.32,0,0,1,217.9,9a16.3,16.3,0,0,1-2.85,3.36l-3.12,3.06v.08h7.34Z"/>
        <path class="cls-2" d="M230.79,9.85a10.41,10.41,0,0,1-1.17,5.53,4.31,4.31,0,0,1-7.08,0,10.26,10.26,0,0,1-1.2-5.49,10.45,10.45,0,0,1,1.16-5.53,4.32,4.32,0,0,1,7.08.07A10.23,10.23,0,0,1,230.79,9.85Zm-7.81,0a10.43,10.43,0,0,0,.74,4.54,2.43,2.43,0,0,0,2.33,1.42,2.46,2.46,0,0,0,2.35-1.44,10.63,10.63,0,0,0,.73-4.52,10.49,10.49,0,0,0-.73-4.5,2.64,2.64,0,0,0-4.68,0A10.33,10.33,0,0,0,223,9.85Z"/>
        <path class="cls-2" d="M242.14,17h-9.38v-1.4l3.76-3.78a25.72,25.72,0,0,0,2.26-2.48,5.91,5.91,0,0,0,.82-1.44,4,4,0,0,0,.28-1.51,2.39,2.39,0,0,0-.7-1.82,2.66,2.66,0,0,0-1.92-.66,4.71,4.71,0,0,0-1.68.29,6.53,6.53,0,0,0-1.78,1.06l-.86-1.1a6.62,6.62,0,0,1,4.3-1.64,4.56,4.56,0,0,1,3.16,1,3.55,3.55,0,0,1,1.14,2.77A5.4,5.4,0,0,1,240.78,9a16.75,16.75,0,0,1-2.86,3.36l-3.12,3.06v.08h7.34Z"/>
        <path class="cls-2" d="M253.66,9.85a10.41,10.41,0,0,1-1.17,5.53,4.31,4.31,0,0,1-7.08,0,10.26,10.26,0,0,1-1.2-5.49,10.34,10.34,0,0,1,1.17-5.53,4.31,4.31,0,0,1,7.07.07A10.23,10.23,0,0,1,253.66,9.85Zm-7.81,0a10.43,10.43,0,0,0,.74,4.54,2.43,2.43,0,0,0,2.33,1.42,2.46,2.46,0,0,0,2.35-1.44A10.63,10.63,0,0,0,252,9.85a10.49,10.49,0,0,0-.73-4.5,2.64,2.64,0,0,0-4.68,0A10.33,10.33,0,0,0,245.85,9.85Z"/>
      </g>
      <g>
        <path class="cls-2" d="M627.27,17h-9.38v-1.4l3.76-3.78a25.72,25.72,0,0,0,2.26-2.48,5.91,5.91,0,0,0,.82-1.44A4,4,0,0,0,625,6.4a2.39,2.39,0,0,0-.7-1.82,2.66,2.66,0,0,0-1.92-.66,4.81,4.81,0,0,0-1.69.29,6.64,6.64,0,0,0-1.77,1.06l-.86-1.1a6.62,6.62,0,0,1,4.3-1.64,4.51,4.51,0,0,1,3.15,1,3.53,3.53,0,0,1,1.15,2.77A5.32,5.32,0,0,1,625.9,9a16.3,16.3,0,0,1-2.85,3.36l-3.12,3.06v.08h7.34Z"/>
        <path class="cls-2" d="M638.79,9.85a10.41,10.41,0,0,1-1.17,5.53,4.31,4.31,0,0,1-7.08,0,10.26,10.26,0,0,1-1.2-5.49,10.45,10.45,0,0,1,1.16-5.53,4.32,4.32,0,0,1,7.08.07A10.23,10.23,0,0,1,638.79,9.85Zm-7.81,0a10.43,10.43,0,0,0,.74,4.54,2.43,2.43,0,0,0,2.33,1.42,2.46,2.46,0,0,0,2.35-1.44,10.63,10.63,0,0,0,.73-4.52,10.49,10.49,0,0,0-.73-4.5,2.64,2.64,0,0,0-4.68,0A10.33,10.33,0,0,0,631,9.85Z"/>
        <path class="cls-2" d="M646.76,17h-1.58V6.83c0-.84,0-1.64.08-2.4l-.46.43c-.17.15-.94.79-2.32,1.91l-.86-1.12,3.78-2.92h1.36Z"/>
        <path class="cls-2" d="M656.66,8.29a5.25,5.25,0,0,1,3.55,1.12,3.82,3.82,0,0,1,1.29,3.06A4.43,4.43,0,0,1,660.09,16a5.64,5.64,0,0,1-3.89,1.26,7.07,7.07,0,0,1-3.68-.78V14.87a5.44,5.44,0,0,0,1.7.69,8.12,8.12,0,0,0,2,.25,4,4,0,0,0,2.67-.81,2.92,2.92,0,0,0,1-2.34c0-2-1.22-3-3.66-3a14.33,14.33,0,0,0-2.48.28l-.84-.54.54-6.68h7.09v1.5h-5.71l-.36,4.28A12.15,12.15,0,0,1,656.66,8.29Z"/>
      </g>
      <g>
        <path class="cls-2" d="M1039.27,17h-9.38v-1.4l3.76-3.78a25.72,25.72,0,0,0,2.26-2.48,5.91,5.91,0,0,0,.82-1.44A4,4,0,0,0,1037,6.4a2.43,2.43,0,0,0-.7-1.82,2.66,2.66,0,0,0-1.92-.66,4.81,4.81,0,0,0-1.69.29,6.64,6.64,0,0,0-1.77,1.06l-.86-1.1a6.62,6.62,0,0,1,4.3-1.64,4.51,4.51,0,0,1,3.15,1,3.53,3.53,0,0,1,1.15,2.77A5.32,5.32,0,0,1,1037.9,9a16.3,16.3,0,0,1-2.85,3.36l-3.12,3.06v.08h7.34Z"/>
        <path class="cls-2" d="M1050.79,9.85a10.41,10.41,0,0,1-1.17,5.53,4.31,4.31,0,0,1-7.08,0,10.26,10.26,0,0,1-1.2-5.49,10.45,10.45,0,0,1,1.16-5.53,4.32,4.32,0,0,1,7.08.07A10.23,10.23,0,0,1,1050.79,9.85Zm-7.81,0a10.43,10.43,0,0,0,.74,4.54,2.43,2.43,0,0,0,2.33,1.42,2.46,2.46,0,0,0,2.35-1.44,10.63,10.63,0,0,0,.73-4.52,10.49,10.49,0,0,0-.73-4.5,2.64,2.64,0,0,0-4.68,0A10.33,10.33,0,0,0,1043,9.85Z"/>
        <path class="cls-2" d="M1058.76,17h-1.58V6.83c0-.84,0-1.64.08-2.4l-.46.43c-.17.15-.94.79-2.32,1.91l-.86-1.12,3.78-2.92h1.36Z"/>
        <path class="cls-2" d="M1073.66,9.85a10.41,10.41,0,0,1-1.17,5.53,4.31,4.31,0,0,1-7.08,0,10.26,10.26,0,0,1-1.2-5.49,10.34,10.34,0,0,1,1.17-5.53,4.31,4.31,0,0,1,7.07.07A10.14,10.14,0,0,1,1073.66,9.85Zm-7.81,0a10.43,10.43,0,0,0,.74,4.54,2.43,2.43,0,0,0,2.33,1.42,2.46,2.46,0,0,0,2.35-1.44,10.63,10.63,0,0,0,.73-4.52,10.49,10.49,0,0,0-.73-4.5,2.64,2.64,0,0,0-4.68,0A10.33,10.33,0,0,0,1065.85,9.85Z"/>
      </g>
      <g>
        <path class="cls-2" d="M1313.27,17h-9.38v-1.4l3.76-3.78a25.72,25.72,0,0,0,2.26-2.48,5.91,5.91,0,0,0,.82-1.44A4,4,0,0,0,1311,6.4a2.43,2.43,0,0,0-.7-1.82,2.66,2.66,0,0,0-1.92-.66,4.81,4.81,0,0,0-1.69.29,6.64,6.64,0,0,0-1.77,1.06l-.86-1.1a6.62,6.62,0,0,1,4.3-1.64,4.51,4.51,0,0,1,3.15,1,3.53,3.53,0,0,1,1.15,2.77A5.32,5.32,0,0,1,1311.9,9a16.3,16.3,0,0,1-2.85,3.36l-3.12,3.06v.08h7.34Z"/>
        <path class="cls-2" d="M1324.79,9.85a10.41,10.41,0,0,1-1.17,5.53,4.31,4.31,0,0,1-7.08,0,10.26,10.26,0,0,1-1.2-5.49,10.45,10.45,0,0,1,1.16-5.53,4.32,4.32,0,0,1,7.08.07A10.23,10.23,0,0,1,1324.79,9.85Zm-7.81,0a10.43,10.43,0,0,0,.74,4.54,2.43,2.43,0,0,0,2.33,1.42,2.46,2.46,0,0,0,2.35-1.44,10.63,10.63,0,0,0,.73-4.52,10.49,10.49,0,0,0-.73-4.5,2.64,2.64,0,0,0-4.68,0A10.33,10.33,0,0,0,1317,9.85Z"/>
        <path class="cls-2" d="M1336.22,9.85a10.41,10.41,0,0,1-1.17,5.53,4.3,4.3,0,0,1-7.07,0,10.26,10.26,0,0,1-1.2-5.49,10.45,10.45,0,0,1,1.16-5.53,3.91,3.91,0,0,1,3.54-1.81A4,4,0,0,1,1335,4.39,10.24,10.24,0,0,1,1336.22,9.85Zm-7.8,0a10.45,10.45,0,0,0,.73,4.54,2.63,2.63,0,0,0,4.68,0,10.47,10.47,0,0,0,.73-4.52,10.34,10.34,0,0,0-.73-4.5,2.64,2.64,0,0,0-4.68,0A10.35,10.35,0,0,0,1328.42,9.85Z"/>
        <path class="cls-2" d="M1342.66,8.29a5.25,5.25,0,0,1,3.55,1.12,3.82,3.82,0,0,1,1.29,3.06,4.43,4.43,0,0,1-1.41,3.48,5.64,5.64,0,0,1-3.89,1.26,7.07,7.07,0,0,1-3.68-.78V14.87a5.44,5.44,0,0,0,1.7.69,8.12,8.12,0,0,0,2,.25,4,4,0,0,0,2.67-.81,2.92,2.92,0,0,0,.95-2.34c0-2-1.22-3-3.66-3a14.33,14.33,0,0,0-2.48.28l-.84-.54.54-6.68h7.09v1.5h-5.71l-.36,4.28A12.15,12.15,0,0,1,1342.66,8.29Z"/>
      </g>
      <g>
        <path class="cls-2" d="M1587.27,17h-9.38v-1.4l3.76-3.78a25.72,25.72,0,0,0,2.26-2.48,5.91,5.91,0,0,0,.82-1.44A4,4,0,0,0,1585,6.4a2.43,2.43,0,0,0-.7-1.82,2.66,2.66,0,0,0-1.92-.66,4.81,4.81,0,0,0-1.69.29,6.64,6.64,0,0,0-1.77,1.06l-.86-1.1a6.62,6.62,0,0,1,4.3-1.64,4.51,4.51,0,0,1,3.15,1,3.53,3.53,0,0,1,1.15,2.77A5.32,5.32,0,0,1,1585.9,9a16.3,16.3,0,0,1-2.85,3.36l-3.12,3.06v.08h7.34Z"/>
        <path class="cls-2" d="M1598.79,9.85a10.41,10.41,0,0,1-1.17,5.53,4.31,4.31,0,0,1-7.08,0,10.26,10.26,0,0,1-1.2-5.49,10.45,10.45,0,0,1,1.16-5.53,4.32,4.32,0,0,1,7.08.07A10.23,10.23,0,0,1,1598.79,9.85Zm-7.81,0a10.43,10.43,0,0,0,.74,4.54,2.43,2.43,0,0,0,2.33,1.42,2.46,2.46,0,0,0,2.35-1.44,10.63,10.63,0,0,0,.73-4.52,10.49,10.49,0,0,0-.73-4.5,2.64,2.64,0,0,0-4.68,0A10.33,10.33,0,0,0,1591,9.85Z"/>
        <path class="cls-2" d="M1610.22,9.85a10.41,10.41,0,0,1-1.17,5.53,4.3,4.3,0,0,1-7.07,0,10.26,10.26,0,0,1-1.2-5.49,10.45,10.45,0,0,1,1.16-5.53,3.91,3.91,0,0,1,3.54-1.81A4,4,0,0,1,1609,4.39,10.24,10.24,0,0,1,1610.22,9.85Zm-7.8,0a10.45,10.45,0,0,0,.73,4.54,2.63,2.63,0,0,0,4.68,0,10.47,10.47,0,0,0,.73-4.52,10.34,10.34,0,0,0-.73-4.5,2.64,2.64,0,0,0-4.68,0A10.35,10.35,0,0,0,1602.42,9.85Z"/>
        <path class="cls-2" d="M1621.66,9.85a10.41,10.41,0,0,1-1.17,5.53,4.31,4.31,0,0,1-7.08,0,10.26,10.26,0,0,1-1.2-5.49,10.34,10.34,0,0,1,1.17-5.53,4.31,4.31,0,0,1,7.07.07A10.14,10.14,0,0,1,1621.66,9.85Zm-7.81,0a10.43,10.43,0,0,0,.74,4.54,2.43,2.43,0,0,0,2.33,1.42,2.46,2.46,0,0,0,2.35-1.44,10.63,10.63,0,0,0,.73-4.52,10.49,10.49,0,0,0-.73-4.5,2.64,2.64,0,0,0-4.68,0A10.33,10.33,0,0,0,1613.85,9.85Z"/>
      </g>
      <g>
        <path class="cls-2" d="M246.27,180.11a7.22,7.22,0,0,1-1.92,5.41,7.58,7.58,0,0,1-5.52,1.87h-4V173.11h4.38a6.42,6.42,0,0,1,7,7Zm-1.76.06a5.78,5.78,0,0,0-1.4-4.21,5.62,5.62,0,0,0-4.16-1.41h-2.42V186h2a6.13,6.13,0,0,0,4.46-1.46A5.79,5.79,0,0,0,244.51,180.17Z"/>
        <path class="cls-2" d="M253.73,187.58a4.91,4.91,0,0,1-3.74-1.44,5.59,5.59,0,0,1-1.38-4,6.22,6.22,0,0,1,1.28-4.11,4.25,4.25,0,0,1,3.42-1.52,4,4,0,0,1,3.18,1.32,5.05,5.05,0,0,1,1.18,3.49v1h-7.38a4.23,4.23,0,0,0,1,2.86,3.29,3.29,0,0,0,2.54,1,8.68,8.68,0,0,0,3.42-.72v1.44a8.1,8.1,0,0,1-1.63.53A9,9,0,0,1,253.73,187.58Zm-.44-9.73a2.63,2.63,0,0,0-2,.84,3.8,3.8,0,0,0-.91,2.32h5.6a3.56,3.56,0,0,0-.69-2.35A2.39,2.39,0,0,0,253.29,177.85Z"/>
        <path class="cls-2" d="M269.19,176.69v1l-2,.24a3.4,3.4,0,0,1,.7,2.13,3.17,3.17,0,0,1-1.07,2.51,4.32,4.32,0,0,1-2.95.94,5.11,5.11,0,0,1-.9-.08,1.62,1.62,0,0,0-1,1.38.7.7,0,0,0,.36.65,2.7,2.7,0,0,0,1.25.21h1.89a4.22,4.22,0,0,1,2.67.73,2.55,2.55,0,0,1,.93,2.13,3,3,0,0,1-1.42,2.71,7.65,7.65,0,0,1-4.16.93,5.7,5.7,0,0,1-3.24-.78,2.51,2.51,0,0,1-1.14-2.2,2.44,2.44,0,0,1,.63-1.69,3.13,3.13,0,0,1,1.76-1,1.68,1.68,0,0,1-.69-.58,1.49,1.49,0,0,1-.28-.91,1.69,1.69,0,0,1,.31-1,3.31,3.31,0,0,1,1-.85,2.93,2.93,0,0,1-1.36-1.16,3.49,3.49,0,0,1-.52-1.88,3.45,3.45,0,0,1,1.06-2.71,4.33,4.33,0,0,1,3-.95,5.41,5.41,0,0,1,1.51.2Zm-8.54,12.5a1.45,1.45,0,0,0,.74,1.31,4,4,0,0,0,2.1.45,5.83,5.83,0,0,0,3-.61,1.87,1.87,0,0,0,1-1.65,1.32,1.32,0,0,0-.54-1.21,4.19,4.19,0,0,0-2-.34H263a2.56,2.56,0,0,0-1.72.53A1.9,1.9,0,0,0,260.65,189.19Zm.88-9.08a2.19,2.19,0,0,0,.64,1.7,2.5,2.5,0,0,0,1.77.58,2.07,2.07,0,0,0,2.37-2.31,2.13,2.13,0,0,0-2.4-2.41,2.39,2.39,0,0,0-1.76.62A2.48,2.48,0,0,0,261.53,180.11Z"/>
        <path class="cls-2" d="M276.27,176.49a6.19,6.19,0,0,1,1.28.12l-.23,1.5a5.35,5.35,0,0,0-1.17-.15,2.88,2.88,0,0,0-2.22,1.06,3.87,3.87,0,0,0-.92,2.63v5.74h-1.62v-10.7h1.34l.18,2H273a4.62,4.62,0,0,1,1.43-1.61A3.23,3.23,0,0,1,276.27,176.49Z"/>
        <path class="cls-2" d="M284.07,187.58a4.91,4.91,0,0,1-3.74-1.44,5.59,5.59,0,0,1-1.37-4,6.22,6.22,0,0,1,1.27-4.11,4.25,4.25,0,0,1,3.42-1.52,4.05,4.05,0,0,1,3.19,1.32A5.1,5.1,0,0,1,288,181.3v1h-7.37a4.23,4.23,0,0,0,.95,2.86,3.29,3.29,0,0,0,2.54,1,8.68,8.68,0,0,0,3.42-.72v1.44a7.9,7.9,0,0,1-1.63.53A8.9,8.9,0,0,1,284.07,187.58Zm-.44-9.73a2.63,2.63,0,0,0-2.05.84,3.92,3.92,0,0,0-.91,2.32h5.6a3.62,3.62,0,0,0-.68-2.35A2.43,2.43,0,0,0,283.63,177.85Z"/>
        <path class="cls-2" d="M295.29,187.58a4.91,4.91,0,0,1-3.74-1.44,5.59,5.59,0,0,1-1.37-4,6.22,6.22,0,0,1,1.27-4.11,4.25,4.25,0,0,1,3.42-1.52,4.05,4.05,0,0,1,3.19,1.32,5.1,5.1,0,0,1,1.17,3.49v1h-7.37a4.23,4.23,0,0,0,.95,2.86,3.29,3.29,0,0,0,2.54,1,8.68,8.68,0,0,0,3.42-.72v1.44a7.71,7.71,0,0,1-1.63.53A8.9,8.9,0,0,1,295.29,187.58Zm-.44-9.73a2.63,2.63,0,0,0-2.05.84,3.86,3.86,0,0,0-.9,2.32h5.59a3.62,3.62,0,0,0-.68-2.35A2.43,2.43,0,0,0,294.85,177.85Z"/>
        <path class="cls-2" d="M307.05,173.79a1.08,1.08,0,0,1,.27-.82,1,1,0,0,1,.69-.26,1,1,0,0,1,.67.26,1.29,1.29,0,0,1,0,1.63.94.94,0,0,1-.67.27,1,1,0,0,1-.69-.27A1.1,1.1,0,0,1,307.05,173.79Zm1.76,13.6h-1.62v-10.7h1.62Z"/>
        <path class="cls-2" d="M319.57,187.39v-6.93a2.82,2.82,0,0,0-.59-2,2.43,2.43,0,0,0-1.87-.64,3.06,3.06,0,0,0-2.46.91,4.56,4.56,0,0,0-.78,3v5.62h-1.62v-10.7h1.31l.27,1.46h.08a3.27,3.27,0,0,1,1.39-1.23,4.56,4.56,0,0,1,2-.43,4.1,4.1,0,0,1,2.91.93,4,4,0,0,1,1,3v7Z"/>
        <path class="cls-2" d="M241,198.39a4.66,4.66,0,0,0-3.72,1.57,6.29,6.29,0,0,0-1.36,4.29,6.47,6.47,0,0,0,1.31,4.33,4.68,4.68,0,0,0,3.75,1.53,12.8,12.8,0,0,0,3.41-.54V211a10.55,10.55,0,0,1-3.67.55,6.16,6.16,0,0,1-4.86-1.91,7.86,7.86,0,0,1-1.72-5.44,8.61,8.61,0,0,1,.83-3.87,6,6,0,0,1,2.38-2.56,7.31,7.31,0,0,1,3.67-.89,8.8,8.8,0,0,1,3.92.82l-.7,1.42A7.52,7.52,0,0,0,241,198.39Z"/>
        <path class="cls-2" d="M256.48,206a5.89,5.89,0,0,1-1.31,4.08,4.66,4.66,0,0,1-3.65,1.47,4.8,4.8,0,0,1-2.54-.67,4.37,4.37,0,0,1-1.72-1.93,6.67,6.67,0,0,1-.61-2.95A5.9,5.9,0,0,1,248,202a4.63,4.63,0,0,1,3.63-1.46,4.54,4.54,0,0,1,3.57,1.49A5.91,5.91,0,0,1,256.48,206Zm-8.15,0a5,5,0,0,0,.82,3.12,2.84,2.84,0,0,0,2.41,1.08,2.88,2.88,0,0,0,2.42-1.07,5.08,5.08,0,0,0,.83-3.13,5,5,0,0,0-.83-3.1,3.31,3.31,0,0,0-4.84,0A5.05,5.05,0,0,0,248.33,206Z"/>
        <path class="cls-2" d="M273,211.39v-7a2.84,2.84,0,0,0-.55-1.92,2.1,2.1,0,0,0-1.7-.64,2.72,2.72,0,0,0-2.23.87,4.07,4.07,0,0,0-.73,2.67v6h-1.62v-7a2.89,2.89,0,0,0-.54-1.92,2.13,2.13,0,0,0-1.71-.64,2.63,2.63,0,0,0-2.23.91,4.89,4.89,0,0,0-.71,3v5.62h-1.62v-10.7h1.32l.26,1.46H261a3.1,3.1,0,0,1,1.29-1.22,4,4,0,0,1,1.87-.44c1.67,0,2.77.61,3.28,1.82h.08A3.37,3.37,0,0,1,268.9,201a4.22,4.22,0,0,1,2.07-.49,3.64,3.64,0,0,1,2.72.93,4.19,4.19,0,0,1,.9,3v7Z"/>
        <path class="cls-2" d="M291.57,211.39v-7a2.89,2.89,0,0,0-.54-1.92,2.12,2.12,0,0,0-1.7-.64,2.75,2.75,0,0,0-2.24.87,4.13,4.13,0,0,0-.72,2.67v6h-1.62v-7a2.89,2.89,0,0,0-.55-1.92,2.12,2.12,0,0,0-1.71-.64,2.64,2.64,0,0,0-2.23.91,5,5,0,0,0-.71,3v5.62h-1.62v-10.7h1.32l.26,1.46h.08a3.23,3.23,0,0,1,1.29-1.22,4,4,0,0,1,1.87-.44c1.68,0,2.77.61,3.29,1.82h.07A3.43,3.43,0,0,1,287.5,201a4.28,4.28,0,0,1,2.07-.49,3.63,3.63,0,0,1,2.72.93,4.19,4.19,0,0,1,.9,3v7Z"/>
        <path class="cls-2" d="M298.06,200.69v6.94a2.82,2.82,0,0,0,.59,2,2.44,2.44,0,0,0,1.87.65,3,3,0,0,0,2.45-.92,4.61,4.61,0,0,0,.78-3v-5.62h1.62v10.7H304L303.8,210h-.09a3.19,3.19,0,0,1-1.38,1.21,4.65,4.65,0,0,1-2,.42,4.12,4.12,0,0,1-2.92-.92,4,4,0,0,1-1-3v-7Z"/>
        <path class="cls-2" d="M316.13,211.39v-6.93a2.82,2.82,0,0,0-.59-2,2.43,2.43,0,0,0-1.87-.64,3.06,3.06,0,0,0-2.46.91,4.56,4.56,0,0,0-.78,3v5.62h-1.62v-10.7h1.32l.26,1.46h.08a3.3,3.3,0,0,1,1.4-1.23,4.48,4.48,0,0,1,2-.43,4.07,4.07,0,0,1,2.91.93,4,4,0,0,1,1,3v7Z"/>
        <path class="cls-2" d="M321,197.79a1.08,1.08,0,0,1,.27-.82,1,1,0,0,1,.68-.26,1,1,0,0,1,.68.26,1.33,1.33,0,0,1,0,1.63.94.94,0,0,1-.68.27.93.93,0,0,1-.68-.27A1.1,1.1,0,0,1,321,197.79Zm1.76,13.6h-1.63v-10.7h1.63Z"/>
        <path class="cls-2" d="M330.42,211.58a4.55,4.55,0,0,1-3.6-1.43,5.86,5.86,0,0,1-1.27-4,6.07,6.07,0,0,1,1.29-4.15,4.65,4.65,0,0,1,3.69-1.47,7.34,7.34,0,0,1,1.54.17,5.05,5.05,0,0,1,1.21.39l-.5,1.37a7,7,0,0,0-1.17-.35,4.88,4.88,0,0,0-1.12-.14c-2.18,0-3.26,1.38-3.26,4.16a4.94,4.94,0,0,0,.79,3,2.76,2.76,0,0,0,2.36,1.06,7.15,7.15,0,0,0,2.75-.58V211A5.89,5.89,0,0,1,330.42,211.58Z"/>
        <path class="cls-2" d="M342.25,211.39l-.33-1.52h-.07a4.59,4.59,0,0,1-1.6,1.36,5,5,0,0,1-2,.35,3.54,3.54,0,0,1-2.49-.82,3,3,0,0,1-.91-2.33q0-3.24,5.19-3.4l1.82-.06v-.66a2.67,2.67,0,0,0-.55-1.86,2.23,2.23,0,0,0-1.73-.6,7,7,0,0,0-3,.82l-.5-1.24a7.88,7.88,0,0,1,1.74-.68,7.65,7.65,0,0,1,1.89-.24,4,4,0,0,1,2.83.85,3.52,3.52,0,0,1,.93,2.72v7.31Zm-3.67-1.14a3.3,3.3,0,0,0,2.38-.83,3.08,3.08,0,0,0,.87-2.33v-1l-1.62.07a6,6,0,0,0-2.79.6,1.83,1.83,0,0,0-.86,1.66,1.66,1.66,0,0,0,.54,1.34A2.22,2.22,0,0,0,338.58,210.25Z"/>
        <path class="cls-2" d="M350.24,210.25a5.46,5.46,0,0,0,.83-.07,4.43,4.43,0,0,0,.64-.13v1.24a2.68,2.68,0,0,1-.78.21,5.28,5.28,0,0,1-.92.08q-3.11,0-3.11-3.27V202h-1.53v-.79l1.53-.67.69-2.28h.94v2.48h3.1V202h-3.1v6.29a2.21,2.21,0,0,0,.45,1.49A1.63,1.63,0,0,0,350.24,210.25Z"/>
        <path class="cls-2" d="M353.71,197.79A1.08,1.08,0,0,1,354,197a1,1,0,0,1,.69-.26,1,1,0,0,1,.67.26,1.29,1.29,0,0,1,0,1.63.94.94,0,0,1-.67.27,1,1,0,0,1-.69-.27A1.1,1.1,0,0,1,353.71,197.79Zm1.76,13.6h-1.62v-10.7h1.62Z"/>
        <path class="cls-2" d="M368.15,206a5.89,5.89,0,0,1-1.32,4.08,4.66,4.66,0,0,1-3.65,1.47,4.8,4.8,0,0,1-2.54-.67,4.37,4.37,0,0,1-1.72-1.93,6.67,6.67,0,0,1-.61-2.95,5.9,5.9,0,0,1,1.31-4.08,4.63,4.63,0,0,1,3.63-1.46,4.54,4.54,0,0,1,3.57,1.49A5.92,5.92,0,0,1,368.15,206ZM360,206a5,5,0,0,0,.82,3.12,2.84,2.84,0,0,0,2.41,1.08,2.88,2.88,0,0,0,2.42-1.07,5.08,5.08,0,0,0,.83-3.13,5,5,0,0,0-.83-3.1,3.31,3.31,0,0,0-4.84,0A5.05,5.05,0,0,0,360,206Z"/>
        <path class="cls-2" d="M378.31,211.39v-6.93a2.82,2.82,0,0,0-.59-2,2.43,2.43,0,0,0-1.87-.64,3.06,3.06,0,0,0-2.46.91,4.56,4.56,0,0,0-.78,3v5.62H371v-10.7h1.32l.26,1.46h.08a3.27,3.27,0,0,1,1.39-1.23,4.56,4.56,0,0,1,2-.43,4.1,4.1,0,0,1,2.91.93,4,4,0,0,1,1,3v7Z"/>
        <path class="cls-2" d="M246.27,228.11a7.22,7.22,0,0,1-1.92,5.41,7.58,7.58,0,0,1-5.52,1.87h-4V221.11h4.38a6.42,6.42,0,0,1,7,7Zm-1.76.06a5.78,5.78,0,0,0-1.4-4.21,5.62,5.62,0,0,0-4.16-1.41h-2.42V234h2a6.13,6.13,0,0,0,4.46-1.46A5.79,5.79,0,0,0,244.51,228.17Z"/>
        <path class="cls-2" d="M253.73,235.58a4.91,4.91,0,0,1-3.74-1.44,5.59,5.59,0,0,1-1.38-4,6.22,6.22,0,0,1,1.28-4.11,4.25,4.25,0,0,1,3.42-1.52,4,4,0,0,1,3.18,1.32,5.05,5.05,0,0,1,1.18,3.49v1h-7.38a4.23,4.23,0,0,0,1,2.86,3.29,3.29,0,0,0,2.54,1,8.68,8.68,0,0,0,3.42-.72v1.44a8.1,8.1,0,0,1-1.63.53A9,9,0,0,1,253.73,235.58Zm-.44-9.73a2.63,2.63,0,0,0-2,.84,3.8,3.8,0,0,0-.91,2.32h5.6a3.56,3.56,0,0,0-.69-2.35A2.39,2.39,0,0,0,253.29,225.85Z"/>
        <path class="cls-2" d="M267.33,232.47a2.68,2.68,0,0,1-1.11,2.3,5.22,5.22,0,0,1-3.12.81,6.78,6.78,0,0,1-3.32-.67v-1.5a7.9,7.9,0,0,0,1.65.61,7,7,0,0,0,1.71.23,3.88,3.88,0,0,0,1.95-.41,1.39,1.39,0,0,0,.14-2.3,8.34,8.34,0,0,0-2.11-1,11.07,11.07,0,0,1-2.13-1,2.9,2.9,0,0,1-.94-.94,2.5,2.5,0,0,1-.3-1.26,2.38,2.38,0,0,1,1.06-2.06,4.92,4.92,0,0,1,2.92-.76,8.53,8.53,0,0,1,3.38.7l-.58,1.32a7.75,7.75,0,0,0-2.92-.66,3.35,3.35,0,0,0-1.73.36,1.1,1.1,0,0,0-.59,1,1.19,1.19,0,0,0,.22.73,2.15,2.15,0,0,0,.71.57,13.7,13.7,0,0,0,1.87.79,7.17,7.17,0,0,1,2.58,1.4A2.49,2.49,0,0,1,267.33,232.47Z"/>
        <path class="cls-2" d="M269.83,221.79a1.08,1.08,0,0,1,.28-.82,1,1,0,0,1,.68-.26,1,1,0,0,1,.68.26,1.33,1.33,0,0,1,0,1.63,1,1,0,0,1-.68.27.93.93,0,0,1-.68-.27A1.1,1.1,0,0,1,269.83,221.79Zm1.76,13.6H270v-10.7h1.62Z"/>
        <path class="cls-2" d="M283.79,224.69v1l-2,.24a3.4,3.4,0,0,1,.7,2.13,3.17,3.17,0,0,1-1.07,2.51,4.32,4.32,0,0,1-2.95.94,5.11,5.11,0,0,1-.9-.08,1.62,1.62,0,0,0-1,1.38.7.7,0,0,0,.36.65,2.68,2.68,0,0,0,1.24.21h1.9a4.22,4.22,0,0,1,2.67.73,2.55,2.55,0,0,1,.93,2.13,3,3,0,0,1-1.42,2.71,7.65,7.65,0,0,1-4.16.93,5.7,5.7,0,0,1-3.24-.78,2.51,2.51,0,0,1-1.14-2.2,2.44,2.44,0,0,1,.63-1.69,3.13,3.13,0,0,1,1.75-1,1.72,1.72,0,0,1-.68-.58,1.49,1.49,0,0,1-.28-.91,1.69,1.69,0,0,1,.31-1,3.31,3.31,0,0,1,1-.85,2.93,2.93,0,0,1-1.36-1.16,3.49,3.49,0,0,1-.52-1.88,3.45,3.45,0,0,1,1.06-2.71,4.32,4.32,0,0,1,3-.95,5.49,5.49,0,0,1,1.52.2Zm-8.54,12.5a1.45,1.45,0,0,0,.74,1.31,4,4,0,0,0,2.1.45,5.83,5.83,0,0,0,3-.61,1.87,1.87,0,0,0,1-1.65,1.32,1.32,0,0,0-.54-1.21,4.19,4.19,0,0,0-2-.34h-1.94a2.56,2.56,0,0,0-1.72.53A1.9,1.9,0,0,0,275.25,237.19Zm.88-9.08a2.15,2.15,0,0,0,.64,1.7,2.5,2.5,0,0,0,1.77.58,2.07,2.07,0,0,0,2.37-2.31,2.13,2.13,0,0,0-2.4-2.41,2.37,2.37,0,0,0-1.76.62A2.48,2.48,0,0,0,276.13,228.11Z"/>
        <path class="cls-2" d="M293.31,235.39v-6.93a2.82,2.82,0,0,0-.59-2,2.43,2.43,0,0,0-1.87-.64,3.06,3.06,0,0,0-2.46.91,4.56,4.56,0,0,0-.78,3v5.62H286v-10.7h1.32l.26,1.46h.08a3.27,3.27,0,0,1,1.39-1.23,4.56,4.56,0,0,1,2-.43,4.1,4.1,0,0,1,2.91.93,4,4,0,0,1,1,3v7Z"/>
      </g>
    </g>
    <g id="Livello_7" data-name="Livello 7">
      <rect class="cls-3" x="876.98" y="169.7" width="215.5" height="31"/>
      <rect class="cls-3" x="1090.98" y="214.05" width="274.5" height="31"/>
      <g>
        <rect class="cls-3" x="198.98" y="81" width="267.5" height="31"/>
        <g>
          <path class="cls-2" d="M243.93,92.89a4,4,0,0,1-1.48,3.34,6.71,6.71,0,0,1-4.24,1.17h-1.68V103h-1.66V88.73h3.7Q243.93,88.73,243.93,92.89ZM236.53,96H238a5.59,5.59,0,0,0,3.19-.71,2.64,2.64,0,0,0,1-2.29,2.48,2.48,0,0,0-.93-2.11,4.86,4.86,0,0,0-2.89-.69h-1.86Z"/>
          <path class="cls-2" d="M255.91,97.65a5.9,5.9,0,0,1-1.32,4.09,4.64,4.64,0,0,1-3.64,1.47,4.81,4.81,0,0,1-2.55-.68,4.43,4.43,0,0,1-1.72-1.93,6.78,6.78,0,0,1-.61-2.95,5.93,5.93,0,0,1,1.31-4.08A4.66,4.66,0,0,1,251,92.11a4.54,4.54,0,0,1,3.57,1.5A5.87,5.87,0,0,1,255.91,97.65Zm-8.16,0a5.15,5.15,0,0,0,.82,3.13,3.26,3.26,0,0,0,4.83,0,5.06,5.06,0,0,0,.83-3.13,5,5,0,0,0-.83-3.1,3.3,3.3,0,0,0-4.84,0A5,5,0,0,0,247.75,97.65Z"/>
          <path class="cls-2" d="M260.37,103h-1.62V87.82h1.62Z"/>
          <path class="cls-2" d="M263.67,89.41a1.07,1.07,0,0,1,.28-.82,1,1,0,0,1,.68-.26.94.94,0,0,1,.67.27,1,1,0,0,1,.29.81,1.07,1.07,0,0,1-.29.81.94.94,0,0,1-.67.27.93.93,0,0,1-.68-.27A1.06,1.06,0,0,1,263.67,89.41Zm1.76,13.6h-1.62V92.31h1.62Z"/>
          <path class="cls-2" d="M272.32,101.87a5.49,5.49,0,0,0,.83-.06,6,6,0,0,0,.64-.14v1.24a2.68,2.68,0,0,1-.78.21,5.37,5.37,0,0,1-.92.09q-3.1,0-3.11-3.27V93.57h-1.53v-.78l1.53-.68.69-2.28h.94v2.48h3.1v1.26h-3.1v6.3a2.18,2.18,0,0,0,.45,1.48A1.59,1.59,0,0,0,272.32,101.87Z"/>
          <path class="cls-2" d="M280.45,103.21a4.92,4.92,0,0,1-3.75-1.45,5.6,5.6,0,0,1-1.37-4,6.18,6.18,0,0,1,1.28-4.11A4.22,4.22,0,0,1,280,92.11a4,4,0,0,1,3.18,1.33,5.07,5.07,0,0,1,1.18,3.49v1H277a4.23,4.23,0,0,0,.95,2.86,3.28,3.28,0,0,0,2.55,1,8.68,8.68,0,0,0,3.42-.72v1.44a8.86,8.86,0,0,1-1.63.54A9.72,9.72,0,0,1,280.45,103.21ZM280,93.47a2.67,2.67,0,0,0-2.06.84,3.88,3.88,0,0,0-.9,2.32h5.6a3.51,3.51,0,0,0-.69-2.34A2.37,2.37,0,0,0,280,93.47Z"/>
          <path class="cls-2" d="M291.43,103.21a4.58,4.58,0,0,1-3.6-1.43,5.91,5.91,0,0,1-1.28-4,6,6,0,0,1,1.3-4.15,4.64,4.64,0,0,1,3.68-1.47,7.43,7.43,0,0,1,1.55.17,5.21,5.21,0,0,1,1.21.39l-.5,1.38a7.64,7.64,0,0,0-1.17-.36,5.6,5.6,0,0,0-1.13-.14q-3.25,0-3.26,4.16a5,5,0,0,0,.8,3,2.78,2.78,0,0,0,2.36,1.05,7.11,7.11,0,0,0,2.74-.58v1.44A5.84,5.84,0,0,1,291.43,103.21Z"/>
          <path class="cls-2" d="M304,103V96.09a2.8,2.8,0,0,0-.59-2,2.47,2.47,0,0,0-1.87-.64,3.06,3.06,0,0,0-2.46.91,4.57,4.57,0,0,0-.78,3V103h-1.62V92.31H298l.26,1.46h.08a3.34,3.34,0,0,1,1.4-1.22,4.52,4.52,0,0,1,2-.44,4,4,0,0,1,2.91.94,4,4,0,0,1,1,3v7Z"/>
          <path class="cls-2" d="M308.81,89.41a1.11,1.11,0,0,1,.27-.82,1,1,0,0,1,.69-.26.94.94,0,0,1,.67.27,1,1,0,0,1,.28.81,1.06,1.06,0,0,1-.28.81,1,1,0,0,1-1.36,0A1.1,1.1,0,0,1,308.81,89.41Zm1.76,13.6H309V92.31h1.62Z"/>
          <path class="cls-2" d="M318.28,103.21a4.58,4.58,0,0,1-3.6-1.43,5.91,5.91,0,0,1-1.27-4,6.07,6.07,0,0,1,1.29-4.15,4.66,4.66,0,0,1,3.69-1.47,7.34,7.34,0,0,1,1.54.17,4.91,4.91,0,0,1,1.21.39l-.49,1.38a7.44,7.44,0,0,0-1.18-.36,5.43,5.43,0,0,0-1.12-.14q-3.25,0-3.26,4.16a5,5,0,0,0,.79,3,2.79,2.79,0,0,0,2.36,1.05,7.15,7.15,0,0,0,2.75-.58v1.44A5.89,5.89,0,0,1,318.28,103.21Z"/>
          <path class="cls-2" d="M332.76,97.65a5.94,5.94,0,0,1-1.31,4.09,4.66,4.66,0,0,1-3.65,1.47,4.86,4.86,0,0,1-2.55-.68,4.41,4.41,0,0,1-1.71-1.93,6.64,6.64,0,0,1-.61-2.95,5.93,5.93,0,0,1,1.31-4.08,4.63,4.63,0,0,1,3.63-1.46,4.51,4.51,0,0,1,3.57,1.5A5.87,5.87,0,0,1,332.76,97.65Zm-8.15,0a5.08,5.08,0,0,0,.82,3.13,3.26,3.26,0,0,0,4.83,0,5.06,5.06,0,0,0,.82-3.13,5,5,0,0,0-.82-3.1,2.89,2.89,0,0,0-2.44-1.06,2.84,2.84,0,0,0-2.4,1.05A5,5,0,0,0,324.61,97.65Z"/>
          <path class="cls-2" d="M348.09,101.58H348a3.83,3.83,0,0,1-3.36,1.63,4,4,0,0,1-3.27-1.44,6.31,6.31,0,0,1-1.16-4.08,6.41,6.41,0,0,1,1.17-4.11,3.94,3.94,0,0,1,3.26-1.47A3.89,3.89,0,0,1,348,93.7h.13l-.07-.78,0-.75V87.82h1.62V103H348.3Zm-3.25.27a3,3,0,0,0,2.41-.9A4.58,4.58,0,0,0,348,98v-.34a5.34,5.34,0,0,0-.76-3.25,2.86,2.86,0,0,0-2.42-1,2.48,2.48,0,0,0-2.18,1.11,5.55,5.55,0,0,0-.75,3.13,5.25,5.25,0,0,0,.75,3.09A2.53,2.53,0,0,0,344.84,101.85Z"/>
          <path class="cls-2" d="M352.92,89.41a1.11,1.11,0,0,1,.27-.82,1,1,0,0,1,.69-.26.94.94,0,0,1,.67.27,1,1,0,0,1,.28.81,1.06,1.06,0,0,1-.28.81.94.94,0,0,1-.67.27,1,1,0,0,1-.69-.27A1.1,1.1,0,0,1,352.92,89.41Zm1.76,13.6h-1.62V92.31h1.62Z"/>
          <path class="cls-2" d="M369.87,103,365,90.36H365c.09,1,.14,2.19.14,3.57V103h-1.53V88.73h2.5l4.52,11.78h.07l4.57-11.78h2.48V103H376v-9.2c0-1,0-2.2.13-3.44h-.08L371.21,103Z"/>
          <path class="cls-2" d="M381.23,89.41a1.11,1.11,0,0,1,.27-.82,1,1,0,0,1,.69-.26.94.94,0,0,1,.67.27,1,1,0,0,1,.29.81,1.07,1.07,0,0,1-.29.81.94.94,0,0,1-.67.27,1,1,0,0,1-.69-.27A1.1,1.1,0,0,1,381.23,89.41ZM383,103h-1.62V92.31H383Z"/>
          <path class="cls-2" d="M388.05,103h-1.62V87.82h1.62Z"/>
          <path class="cls-2" d="M398.07,103l-.33-1.52h-.07a4.59,4.59,0,0,1-1.6,1.36,4.82,4.82,0,0,1-2,.36,3.59,3.59,0,0,1-2.49-.82,3,3,0,0,1-.91-2.34q0-3.24,5.19-3.4l1.82-.05v-.67a2.67,2.67,0,0,0-.55-1.86,2.21,2.21,0,0,0-1.73-.6,7,7,0,0,0-3,.82l-.49-1.24a7.92,7.92,0,0,1,3.62-.92,4.14,4.14,0,0,1,2.84.85,3.58,3.58,0,0,1,.92,2.73V103Zm-3.67-1.14a3.3,3.3,0,0,0,2.38-.83,3.06,3.06,0,0,0,.87-2.33v-1l-1.62.07a5.78,5.78,0,0,0-2.79.6,1.8,1.8,0,0,0-.86,1.65,1.66,1.66,0,0,0,.54,1.34A2.17,2.17,0,0,0,394.4,101.87Z"/>
          <path class="cls-2" d="M409.93,103V96.09a2.85,2.85,0,0,0-.59-2,2.47,2.47,0,0,0-1.87-.64,3.06,3.06,0,0,0-2.46.91,4.57,4.57,0,0,0-.78,3V103h-1.62V92.31h1.32l.26,1.46h.08a3.37,3.37,0,0,1,1.39-1.22,4.56,4.56,0,0,1,2-.44,4,4,0,0,1,2.91.94,4,4,0,0,1,1,3v7Z"/>
          <path class="cls-2" d="M424.12,97.65a5.9,5.9,0,0,1-1.32,4.09,4.64,4.64,0,0,1-3.64,1.47,4.81,4.81,0,0,1-2.55-.68,4.5,4.5,0,0,1-1.72-1.93,6.78,6.78,0,0,1-.6-2.95,5.89,5.89,0,0,1,1.31-4.08,4.63,4.63,0,0,1,3.63-1.46,4.51,4.51,0,0,1,3.57,1.5A5.87,5.87,0,0,1,424.12,97.65Zm-8.15,0a5.08,5.08,0,0,0,.82,3.13,2.85,2.85,0,0,0,2.41,1.07,2.88,2.88,0,0,0,2.42-1.07,5.06,5.06,0,0,0,.82-3.13,5,5,0,0,0-.82-3.1,2.9,2.9,0,0,0-2.44-1.06,2.84,2.84,0,0,0-2.4,1.05A5,5,0,0,0,416,97.65Z"/>
        </g>
      </g>
      <rect class="cls-4" x="200.48" y="391.44" width="1049" height="31"/>
      <g>
        <path class="cls-2" d="M217,399.62a4.7,4.7,0,0,0-3.72,1.57,6.33,6.33,0,0,0-1.36,4.29,6.47,6.47,0,0,0,1.31,4.33,4.68,4.68,0,0,0,3.75,1.53,12.8,12.8,0,0,0,3.41-.54v1.46a10.53,10.53,0,0,1-3.67.56,6.17,6.17,0,0,1-4.86-1.92,7.84,7.84,0,0,1-1.72-5.44,8.54,8.54,0,0,1,.83-3.86,5.9,5.9,0,0,1,2.38-2.56,7.21,7.21,0,0,1,3.67-.9,8.8,8.8,0,0,1,3.92.82l-.7,1.42A7.67,7.67,0,0,0,217,399.62Z"/>
        <path class="cls-2" d="M221.55,401.92h1.74l2.34,6.1a25.53,25.53,0,0,1,1,3h.07q.14-.5.54-1.71t2.65-7.41h1.74L227,414.11a6.16,6.16,0,0,1-1.6,2.56,3.43,3.43,0,0,1-2.24.76,6.63,6.63,0,0,1-1.47-.17V416a5.57,5.57,0,0,0,1.21.12,2.48,2.48,0,0,0,2.38-1.88l.59-1.52Z"/>
        <path class="cls-2" d="M237.6,412.82a4.58,4.58,0,0,1-3.6-1.43,5.91,5.91,0,0,1-1.27-4.05,6.07,6.07,0,0,1,1.29-4.15,4.66,4.66,0,0,1,3.69-1.47,7.34,7.34,0,0,1,1.54.17,4.91,4.91,0,0,1,1.21.39l-.49,1.38a6.53,6.53,0,0,0-1.18-.36,5.43,5.43,0,0,0-1.12-.14c-2.17,0-3.26,1.38-3.26,4.16a5,5,0,0,0,.79,3,2.79,2.79,0,0,0,2.36,1,7.12,7.12,0,0,0,2.75-.58v1.44A5.89,5.89,0,0,1,237.6,412.82Z"/>
        <path class="cls-2" d="M244.47,412.62h-1.62V397.43h1.62Z"/>
        <path class="cls-2" d="M247.77,399a1.09,1.09,0,0,1,.27-.82,1,1,0,0,1,.69-.26.94.94,0,0,1,.67.27,1,1,0,0,1,.28.81,1.06,1.06,0,0,1-.28.81,1,1,0,0,1-1.36,0A1.1,1.1,0,0,1,247.77,399Zm1.76,13.6H247.9v-10.7h1.63Z"/>
        <path class="cls-2" d="M260.29,412.62V405.7a2.8,2.8,0,0,0-.6-2,2.43,2.43,0,0,0-1.86-.64,3.06,3.06,0,0,0-2.46.91,4.51,4.51,0,0,0-.79,3v5.61H253v-10.7h1.32l.27,1.46h.07a3.4,3.4,0,0,1,1.4-1.22,4.55,4.55,0,0,1,2-.44,4,4,0,0,1,2.91.94,4,4,0,0,1,1,3v7Z"/>
        <path class="cls-2" d="M274,401.92v1l-2,.24a3.35,3.35,0,0,1,.48.89,3.28,3.28,0,0,1,.22,1.25,3.2,3.2,0,0,1-1.07,2.51,4.37,4.37,0,0,1-2.95.93,5.14,5.14,0,0,1-.9-.07,1.59,1.59,0,0,0-1,1.37.69.69,0,0,0,.36.65,2.65,2.65,0,0,0,1.24.21h1.9a4.29,4.29,0,0,1,2.67.73,2.55,2.55,0,0,1,.93,2.13,3,3,0,0,1-1.42,2.71,7.56,7.56,0,0,1-4.16.94,5.62,5.62,0,0,1-3.24-.79,2.51,2.51,0,0,1-1.14-2.2,2.46,2.46,0,0,1,.63-1.69,3.13,3.13,0,0,1,1.75-1,1.62,1.62,0,0,1-.68-.57,1.53,1.53,0,0,1-.28-.91,1.72,1.72,0,0,1,.31-1,3.46,3.46,0,0,1,1-.85,2.87,2.87,0,0,1-1.36-1.16,3.49,3.49,0,0,1-.52-1.88,3.45,3.45,0,0,1,1.06-2.71,4.3,4.3,0,0,1,3-.95,5.49,5.49,0,0,1,1.52.2Zm-8.54,12.5a1.46,1.46,0,0,0,.74,1.32,4,4,0,0,0,2.1.45,5.94,5.94,0,0,0,3-.61,1.88,1.88,0,0,0,1-1.66,1.32,1.32,0,0,0-.54-1.21,4.24,4.24,0,0,0-2-.33H267.8a2.56,2.56,0,0,0-1.72.52A1.91,1.91,0,0,0,265.46,414.42Zm.88-9.07A2.14,2.14,0,0,0,267,407a2.49,2.49,0,0,0,1.76.58,2.07,2.07,0,0,0,2.38-2.3,2.13,2.13,0,0,0-2.4-2.42,2.37,2.37,0,0,0-1.76.62A2.48,2.48,0,0,0,266.34,405.35Z"/>
      </g>
      <rect class="cls-4" x="200.48" y="435.79" width="676" height="31"/>
      <g>
        <path class="cls-2" d="M215.27,457h-1.66v-12.8h-4.52v-1.47h10.7v1.47h-4.52Z"/>
        <path class="cls-2" d="M226.22,457.15a4.89,4.89,0,0,1-3.75-1.45,5.6,5.6,0,0,1-1.37-4,6.18,6.18,0,0,1,1.27-4.11,4.23,4.23,0,0,1,3.43-1.53,4,4,0,0,1,3.18,1.33,5.06,5.06,0,0,1,1.17,3.49v1h-7.37a4.28,4.28,0,0,0,.95,2.87,3.29,3.29,0,0,0,2.54,1,8.61,8.61,0,0,0,3.42-.72v1.45a9.23,9.23,0,0,1-1.62.53A9.8,9.8,0,0,1,226.22,457.15Zm-.44-9.74a2.65,2.65,0,0,0-2.06.84,3.89,3.89,0,0,0-.9,2.33h5.59a3.58,3.58,0,0,0-.68-2.35A2.4,2.4,0,0,0,225.78,447.41Z"/>
        <path class="cls-2" d="M240.24,457V450a2.78,2.78,0,0,0-.6-1.95,2.41,2.41,0,0,0-1.86-.65,3.06,3.06,0,0,0-2.46.91,4.59,4.59,0,0,0-.78,3V457h-1.63v-10.7h1.32l.27,1.46h.07a3.4,3.4,0,0,1,1.4-1.22,4.55,4.55,0,0,1,2-.44,4.07,4.07,0,0,1,2.91.94,4,4,0,0,1,1,3v7Z"/>
        <path class="cls-2" d="M252.51,457V450a2.78,2.78,0,0,0-.59-1.95,2.44,2.44,0,0,0-1.87-.65,3.06,3.06,0,0,0-2.46.91,4.59,4.59,0,0,0-.78,3V457h-1.62v-10.7h1.32l.26,1.46h.08a3.34,3.34,0,0,1,1.4-1.22,4.52,4.52,0,0,1,2-.44,4.07,4.07,0,0,1,2.91.94,4,4,0,0,1,1,3v7Z"/>
        <path class="cls-2" d="M257.33,443.35a1.11,1.11,0,0,1,.27-.82,1,1,0,0,1,.69-.25.93.93,0,0,1,.67.26,1,1,0,0,1,.28.81,1.09,1.09,0,0,1-.28.82,1,1,0,0,1-1.36,0A1.13,1.13,0,0,1,257.33,443.35Zm1.76,13.6h-1.62v-10.7h1.62Z"/>
        <path class="cls-2" d="M269.43,454a2.67,2.67,0,0,1-1.12,2.31,5.22,5.22,0,0,1-3.12.81,6.77,6.77,0,0,1-3.32-.68V455a8.14,8.14,0,0,0,1.65.62,6.92,6.92,0,0,0,1.71.22,3.83,3.83,0,0,0,1.95-.4,1.36,1.36,0,0,0,.69-1.24,1.33,1.33,0,0,0-.55-1.07,8.17,8.17,0,0,0-2.11-1.05,11,11,0,0,1-2.12-1,2.9,2.9,0,0,1-.94-.94,2.6,2.6,0,0,1,.75-3.33,5,5,0,0,1,2.92-.76,8.51,8.51,0,0,1,3.38.71l-.57,1.32a7.67,7.67,0,0,0-2.92-.67,3.37,3.37,0,0,0-1.74.36,1.13,1.13,0,0,0-.59,1,1.24,1.24,0,0,0,.22.73,2.28,2.28,0,0,0,.71.58,17.37,17.37,0,0,0,1.88.79,7,7,0,0,1,2.57,1.4A2.41,2.41,0,0,1,269.43,454Z"/>
      </g>
      <rect class="cls-4" x="200.48" y="480.14" width="1454" height="31"/>
      <g>
        <path class="cls-2" d="M221.71,501.3h-1.66v-6.72h-7.52v6.72h-1.66V487h1.66v6.07h7.52V487h1.66Z"/>
        <path class="cls-2" d="M225.25,487.69a1.07,1.07,0,0,1,.27-.81.93.93,0,0,1,.69-.26,1,1,0,0,1,.67.26,1.33,1.33,0,0,1,0,1.63,1,1,0,0,1-1.36,0A1.11,1.11,0,0,1,225.25,487.69ZM227,501.3h-1.62V490.59H227Z"/>
        <path class="cls-2" d="M232.05,495.82a19.54,19.54,0,0,1,1.27-1.57l3.46-3.66h1.93l-4.34,4.56L239,501.3h-2l-3.78-5.06-1.22,1.05v4h-1.61V486.1h1.61v8.06c0,.36,0,.91-.08,1.66Z"/>
        <path class="cls-2" d="M240.81,487.69a1.07,1.07,0,0,1,.27-.81.92.92,0,0,1,.68-.26,1,1,0,0,1,.68.26,1.33,1.33,0,0,1,0,1.63,1,1,0,0,1-.68.27.93.93,0,0,1-.68-.27A1.11,1.11,0,0,1,240.81,487.69Zm1.75,13.61h-1.62V490.59h1.62Z"/>
        <path class="cls-2" d="M253.32,501.3v-6.93a2.78,2.78,0,0,0-.59-1.95,2.44,2.44,0,0,0-1.87-.65,3.09,3.09,0,0,0-2.46.91,4.61,4.61,0,0,0-.78,3v5.62H246V490.59h1.32l.26,1.47h.08a3.3,3.3,0,0,1,1.4-1.23,4.51,4.51,0,0,1,2-.43,4.07,4.07,0,0,1,2.91.93,4,4,0,0,1,1,3v7Z"/>
        <path class="cls-2" d="M267,490.59v1l-2,.23a3.16,3.16,0,0,1,.49.9,3.43,3.43,0,0,1,.22,1.24,3.15,3.15,0,0,1-1.08,2.51,4.3,4.3,0,0,1-2.95.94,5.11,5.11,0,0,1-.9-.08,1.58,1.58,0,0,0-1,1.38.7.7,0,0,0,.36.65,2.62,2.62,0,0,0,1.24.21h1.9a4.26,4.26,0,0,1,2.67.73,2.55,2.55,0,0,1,.93,2.13,3,3,0,0,1-1.43,2.71,7.63,7.63,0,0,1-4.16.93,5.65,5.65,0,0,1-3.23-.78,2.67,2.67,0,0,1-.52-3.9,3.19,3.19,0,0,1,1.76-1,1.82,1.82,0,0,1-.69-.58,1.56,1.56,0,0,1-.28-.91,1.7,1.7,0,0,1,.32-1,3.13,3.13,0,0,1,1-.85,2.92,2.92,0,0,1-1.35-1.17,3.37,3.37,0,0,1-.52-1.87,3.47,3.47,0,0,1,1.05-2.71,4.3,4.3,0,0,1,3-1,5.38,5.38,0,0,1,1.51.19Zm-8.54,12.5a1.45,1.45,0,0,0,.73,1.32,4,4,0,0,0,2.1.45,5.81,5.81,0,0,0,3-.61,1.87,1.87,0,0,0,1-1.66,1.3,1.3,0,0,0-.54-1.2,4.1,4.1,0,0,0-2-.34h-1.95a2.55,2.55,0,0,0-1.71.53A1.89,1.89,0,0,0,258.5,503.09Zm.88-9.07a2.18,2.18,0,0,0,.63,1.7,2.58,2.58,0,0,0,1.77.58,2.07,2.07,0,0,0,2.37-2.31,2.12,2.12,0,0,0-2.4-2.41,2.38,2.38,0,0,0-1.76.61A2.48,2.48,0,0,0,259.38,494Z"/>
      </g>
      <rect class="cls-5" x="759.48" y="524.49" width="547" height="31"/>
      <g>
        <path class="cls-2" d="M774,533a4.69,4.69,0,0,0-3.72,1.56,6.34,6.34,0,0,0-1.36,4.3,6.49,6.49,0,0,0,1.31,4.33,4.71,4.71,0,0,0,3.75,1.52,12.74,12.74,0,0,0,3.41-.53v1.45a10.53,10.53,0,0,1-3.67.56,6.2,6.2,0,0,1-4.86-1.91,7.86,7.86,0,0,1-1.72-5.44A8.55,8.55,0,0,1,768,535a5.9,5.9,0,0,1,2.38-2.56,7.21,7.21,0,0,1,3.67-.9,8.8,8.8,0,0,1,3.92.82l-.7,1.43A7.52,7.52,0,0,0,774,533Z"/>
        <path class="cls-2" d="M787.57,546v-6.92a2.82,2.82,0,0,0-.59-2,2.44,2.44,0,0,0-1.87-.65,3.07,3.07,0,0,0-2.47.92,4.69,4.69,0,0,0-.77,3V546h-1.62V530.81h1.62v4.6a10.47,10.47,0,0,1-.08,1.38h.1a3.3,3.3,0,0,1,1.36-1.22,4.39,4.39,0,0,1,2-.45,4.13,4.13,0,0,1,2.94.94,3.94,3.94,0,0,1,1,3v7Z"/>
        <path class="cls-2" d="M801.76,540.64a5.9,5.9,0,0,1-1.32,4.09,4.64,4.64,0,0,1-3.64,1.47,4.9,4.9,0,0,1-2.55-.67,4.52,4.52,0,0,1-1.72-1.94,6.78,6.78,0,0,1-.6-3,5.89,5.89,0,0,1,1.3-4.07,4.63,4.63,0,0,1,3.64-1.46,4.52,4.52,0,0,1,3.57,1.49A5.89,5.89,0,0,1,801.76,540.64Zm-8.15,0a5.08,5.08,0,0,0,.82,3.13,3.26,3.26,0,0,0,4.83,0,5,5,0,0,0,.82-3.13,5,5,0,0,0-.82-3.1,2.93,2.93,0,0,0-2.44-1.06,2.84,2.84,0,0,0-2.4,1A5,5,0,0,0,793.61,540.64Z"/>
        <path class="cls-2" d="M804.47,532.4a1.11,1.11,0,0,1,.27-.82,1,1,0,0,1,1.36,0,1.06,1.06,0,0,1,.28.81,1.09,1.09,0,0,1-.28.82,1,1,0,0,1-.68.26,1,1,0,0,1-.68-.26A1.13,1.13,0,0,1,804.47,532.4Zm1.75,13.6H804.6V535.3h1.62Z"/>
        <path class="cls-2" d="M814.54,535.11a6.17,6.17,0,0,1,1.28.11l-.22,1.51a5.43,5.43,0,0,0-1.17-.15,2.87,2.87,0,0,0-2.23,1,3.89,3.89,0,0,0-.92,2.63V546h-1.62V535.3H811l.18,2h.08a4.82,4.82,0,0,1,1.44-1.61A3.19,3.19,0,0,1,814.54,535.11Z"/>
      </g>
      <rect class="cls-5" x="423.48" y="568.84" width="336" height="31"/>
      <g>
        <path class="cls-2" d="M434.53,584.26v5.94h-1.66V575.92h3.92a6.17,6.17,0,0,1,3.88,1,3.64,3.64,0,0,1,1.26,3,3.81,3.81,0,0,1-2.87,3.83l3.87,6.41h-2l-3.46-5.94Zm0-1.42h2.28a3.92,3.92,0,0,0,2.58-.7,2.63,2.63,0,0,0,.82-2.1,2.38,2.38,0,0,0-.84-2,4.56,4.56,0,0,0-2.68-.62h-2.16Z"/>
        <path class="cls-2" d="M454.23,584.84a5.92,5.92,0,0,1-1.32,4.09,4.64,4.64,0,0,1-3.64,1.47,4.81,4.81,0,0,1-2.55-.68,4.5,4.5,0,0,1-1.72-1.93,6.78,6.78,0,0,1-.6-2.95,5.87,5.87,0,0,1,1.31-4.08,4.63,4.63,0,0,1,3.63-1.46,4.51,4.51,0,0,1,3.57,1.5A5.87,5.87,0,0,1,454.23,584.84Zm-8.15,0a5,5,0,0,0,.82,3.12,2.83,2.83,0,0,0,2.41,1.08,2.88,2.88,0,0,0,2.42-1.07,5.06,5.06,0,0,0,.82-3.13,5,5,0,0,0-.82-3.1,2.9,2.9,0,0,0-2.44-1.06,2.86,2.86,0,0,0-2.4,1A5.05,5.05,0,0,0,446.08,584.84Z"/>
        <path class="cls-2" d="M461.35,590.4a4.58,4.58,0,0,1-3.6-1.43,5.91,5.91,0,0,1-1.27-4.05,6.07,6.07,0,0,1,1.29-4.15,4.65,4.65,0,0,1,3.69-1.47,7.34,7.34,0,0,1,1.54.17,5.05,5.05,0,0,1,1.21.39l-.5,1.38a6.42,6.42,0,0,0-1.17-.36,5.51,5.51,0,0,0-1.12-.14c-2.18,0-3.26,1.38-3.26,4.16a5,5,0,0,0,.79,3,2.78,2.78,0,0,0,2.36,1.05,7.15,7.15,0,0,0,2.75-.58v1.44A5.89,5.89,0,0,1,461.35,590.4Z"/>
        <path class="cls-2" d="M468.2,584.72a18.14,18.14,0,0,1,1.28-1.56l3.45-3.66h1.93l-4.34,4.56,4.64,6.14h-2l-3.78-5.06-1.22,1.06v4h-1.61V575h1.61v8c0,.36,0,.91-.08,1.66Z"/>
        <path class="cls-2" d="M482.53,575.92h4a7.7,7.7,0,0,1,4.12.85,3,3,0,0,1,1.27,2.69,3.09,3.09,0,0,1-.71,2.09,3.39,3.39,0,0,1-2.07,1.07v.1q3.25.56,3.25,3.42a3.68,3.68,0,0,1-1.29,3,5.54,5.54,0,0,1-3.62,1.07h-5Zm1.66,6.12h2.74a4.54,4.54,0,0,0,2.53-.55,2.15,2.15,0,0,0,.77-1.87,1.89,1.89,0,0,0-.86-1.73,5.47,5.47,0,0,0-2.74-.53h-2.44Zm0,1.4v5.35h3a4.27,4.27,0,0,0,2.6-.67,2.47,2.47,0,0,0,.88-2.1,2.22,2.22,0,0,0-.9-1.95,4.73,4.73,0,0,0-2.72-.63Z"/>
        <path class="cls-2" d="M501.83,590.2l-.32-1.52h-.08a4.59,4.59,0,0,1-1.6,1.36,4.82,4.82,0,0,1-2,.36,3.59,3.59,0,0,1-2.49-.82,3,3,0,0,1-.9-2.34c0-2.16,1.72-3.29,5.18-3.4l1.82-.05v-.67a2.72,2.72,0,0,0-.54-1.86,2.25,2.25,0,0,0-1.74-.6,7,7,0,0,0-3,.82l-.5-1.24a7.92,7.92,0,0,1,3.62-.92,4.12,4.12,0,0,1,2.84.85,3.58,3.58,0,0,1,.92,2.73v7.3Zm-3.66-1.14a3.27,3.27,0,0,0,2.37-.83,3.08,3.08,0,0,0,.87-2.33v-1l-1.62.07a5.78,5.78,0,0,0-2.79.6,1.79,1.79,0,0,0-.85,1.65,1.66,1.66,0,0,0,.53,1.34A2.18,2.18,0,0,0,498.17,589.06Z"/>
        <path class="cls-2" d="M513.69,590.2v-6.92a2.8,2.8,0,0,0-.59-2,2.43,2.43,0,0,0-1.87-.64,3.06,3.06,0,0,0-2.46.91,4.57,4.57,0,0,0-.78,3v5.61h-1.62V579.5h1.32L508,581H508a3.34,3.34,0,0,1,1.4-1.22,4.52,4.52,0,0,1,2-.44,4,4,0,0,1,2.91.94,4,4,0,0,1,1,3v7Z"/>
        <path class="cls-2" d="M525.93,588.77h-.09a3.83,3.83,0,0,1-3.36,1.63,3.94,3.94,0,0,1-3.26-1.44,6.31,6.31,0,0,1-1.17-4.08,6.41,6.41,0,0,1,1.17-4.11,4.33,4.33,0,0,1,6.6.11H526l-.07-.77,0-.75V575h1.62V590.2h-1.31Zm-3.24.27a3,3,0,0,0,2.41-.9,4.65,4.65,0,0,0,.74-2.92v-.34a5.42,5.42,0,0,0-.75-3.25,2.88,2.88,0,0,0-2.42-1,2.47,2.47,0,0,0-2.18,1.11,5.46,5.46,0,0,0-.76,3.13,5.25,5.25,0,0,0,.75,3.09A2.55,2.55,0,0,0,522.69,589Z"/>
      </g>
      <rect class="cls-5" x="463.98" y="613.19" width="491.5" height="31"/>
      <g>
        <path class="cls-2" d="M482.93,625.43a4,4,0,0,1-1.48,3.34,6.71,6.71,0,0,1-4.24,1.16h-1.68v5.62h-1.66V621.27h3.7Q482.92,621.27,482.93,625.43Zm-7.4,3.08H477a5.59,5.59,0,0,0,3.19-.71,2.64,2.64,0,0,0,1-2.29,2.46,2.46,0,0,0-.93-2.11,4.86,4.86,0,0,0-2.89-.69h-1.86Z"/>
        <path class="cls-2" d="M485.53,622a1.1,1.1,0,0,1,.28-.82,1,1,0,0,1,.68-.26.92.92,0,0,1,.67.27,1,1,0,0,1,.29.81,1.07,1.07,0,0,1-.29.81,1,1,0,0,1-1.35,0A1.1,1.1,0,0,1,485.53,622Zm1.76,13.6h-1.62v-10.7h1.62Z"/>
        <path class="cls-2" d="M497.31,635.55,497,634h-.08a4.5,4.5,0,0,1-1.6,1.36,4.8,4.8,0,0,1-2,.36,3.58,3.58,0,0,1-2.5-.83,3,3,0,0,1-.9-2.33q0-3.24,5.18-3.4l1.82-.06v-.66a2.72,2.72,0,0,0-.54-1.86,2.24,2.24,0,0,0-1.74-.6,7,7,0,0,0-3,.82l-.5-1.24a7.32,7.32,0,0,1,1.73-.67,7.22,7.22,0,0,1,1.89-.25,4.07,4.07,0,0,1,2.84.85,3.58,3.58,0,0,1,.92,2.73v7.3Zm-3.66-1.14a3.31,3.31,0,0,0,2.38-.83,3.11,3.11,0,0,0,.86-2.33v-1l-1.62.06a5.88,5.88,0,0,0-2.79.61,1.79,1.79,0,0,0-.85,1.65,1.66,1.66,0,0,0,.53,1.34A2.23,2.23,0,0,0,493.65,634.41Z"/>
        <path class="cls-2" d="M509.18,635.55v-6.92a2.79,2.79,0,0,0-.6-2,2.43,2.43,0,0,0-1.86-.64,3.09,3.09,0,0,0-2.47.91,4.56,4.56,0,0,0-.78,3v5.62h-1.62v-10.7h1.32l.26,1.46h.08a3.27,3.27,0,0,1,1.4-1.22,4.52,4.52,0,0,1,2-.44,4.07,4.07,0,0,1,2.91.93,4,4,0,0,1,1,3v7Z"/>
        <path class="cls-2" d="M523.37,630.19a5.92,5.92,0,0,1-1.32,4.09,4.69,4.69,0,0,1-3.65,1.47,4.8,4.8,0,0,1-2.54-.68,4.37,4.37,0,0,1-1.72-1.93,6.67,6.67,0,0,1-.61-2.95,5.9,5.9,0,0,1,1.31-4.08,4.63,4.63,0,0,1,3.63-1.46,4.51,4.51,0,0,1,3.57,1.5A5.87,5.87,0,0,1,523.37,630.19Zm-8.16,0a5,5,0,0,0,.82,3.12,2.84,2.84,0,0,0,2.41,1.08,2.88,2.88,0,0,0,2.42-1.07,5.06,5.06,0,0,0,.83-3.13,5,5,0,0,0-.83-3.1,3.31,3.31,0,0,0-4.84,0A5.05,5.05,0,0,0,515.21,630.19Z"/>
      </g>
      <rect class="cls-5" x="255.48" y="657.53" width="292" height="31"/>
      <g>
        <path class="cls-2" d="M279.27,671.52a7.85,7.85,0,0,1-1.74,5.39,7,7,0,0,1-9.68,0,7.89,7.89,0,0,1-1.72-5.44,7.81,7.81,0,0,1,1.72-5.41,6.21,6.21,0,0,1,4.88-1.92,6.1,6.1,0,0,1,4.81,2A7.89,7.89,0,0,1,279.27,671.52Zm-11.38,0a6.81,6.81,0,0,0,1.23,4.4,4.42,4.42,0,0,0,3.59,1.49,4.33,4.33,0,0,0,3.59-1.49,6.91,6.91,0,0,0,1.21-4.4,6.76,6.76,0,0,0-1.21-4.37,4.29,4.29,0,0,0-3.57-1.49,4.42,4.42,0,0,0-3.61,1.5A6.7,6.7,0,0,0,267.89,671.52Z"/>
        <path class="cls-2" d="M282.07,665.07a1.11,1.11,0,0,1,.27-.82A1,1,0,0,1,283,664a.93.93,0,0,1,.67.26,1.06,1.06,0,0,1,.28.81,1.09,1.09,0,0,1-.28.82,1,1,0,0,1-1.36,0A1.13,1.13,0,0,1,282.07,665.07Zm1.76,13.6h-1.62V668h1.62Z"/>
        <path class="cls-2" d="M288.89,678.67h-1.63V663.48h1.63Z"/>
        <path class="cls-2" d="M302.5,678.87a4.59,4.59,0,0,1-1.91-.39,3.52,3.52,0,0,1-1.45-1.18H299a13.85,13.85,0,0,1,.12,1.77v4.41h-1.62V668h1.32l.22,1.47h.08a3.76,3.76,0,0,1,1.45-1.27,4.46,4.46,0,0,1,1.91-.39,3.94,3.94,0,0,1,3.28,1.45,7.76,7.76,0,0,1,0,8.18A4,4,0,0,1,302.5,678.87Zm-.24-9.72a2.89,2.89,0,0,0-2.37.91,4.65,4.65,0,0,0-.75,2.89v.36a5.37,5.37,0,0,0,.75,3.23,2.86,2.86,0,0,0,2.41,1,2.52,2.52,0,0,0,2.18-1.12,5.36,5.36,0,0,0,.78-3.1,5.16,5.16,0,0,0-.78-3.07A2.62,2.62,0,0,0,302.26,669.15Z"/>
        <path class="cls-2" d="M316.36,678.67l-.33-1.52H316a4.48,4.48,0,0,1-1.6,1.36,4.82,4.82,0,0,1-2,.36,3.54,3.54,0,0,1-2.49-.82,3,3,0,0,1-.91-2.34q0-3.24,5.19-3.39l1.82-.06v-.67a2.72,2.72,0,0,0-.55-1.86,2.23,2.23,0,0,0-1.73-.6,7.19,7.19,0,0,0-3,.82l-.5-1.24a7.86,7.86,0,0,1,1.74-.67,7.67,7.67,0,0,1,1.89-.25,4.09,4.09,0,0,1,2.83.85,3.55,3.55,0,0,1,.93,2.73v7.3Zm-3.67-1.14a3.3,3.3,0,0,0,2.38-.83,3.05,3.05,0,0,0,.87-2.32v-1l-1.63.07a5.76,5.76,0,0,0-2.78.6,1.81,1.81,0,0,0-.86,1.65,1.68,1.68,0,0,0,.53,1.34A2.21,2.21,0,0,0,312.69,677.53Z"/>
        <path class="cls-2" d="M320.76,665.07a1.11,1.11,0,0,1,.27-.82,1,1,0,0,1,.69-.25.93.93,0,0,1,.67.26,1.06,1.06,0,0,1,.28.81,1.09,1.09,0,0,1-.28.82,1,1,0,0,1-.67.26,1,1,0,0,1-.69-.26A1.13,1.13,0,0,1,320.76,665.07Zm1.76,13.6H320.9V668h1.62Z"/>
        <path class="cls-2" d="M333.28,678.67v-6.92a2.78,2.78,0,0,0-.6-2,2.4,2.4,0,0,0-1.86-.65,3.09,3.09,0,0,0-2.46.91,4.61,4.61,0,0,0-.78,3v5.61H326V668h1.31l.27,1.47h.08a3.27,3.27,0,0,1,1.39-1.23,4.54,4.54,0,0,1,2-.43,4.07,4.07,0,0,1,2.91.93,3.92,3.92,0,0,1,1,3v7Z"/>
        <path class="cls-2" d="M341.69,677.53a5.69,5.69,0,0,0,.83-.06,5.59,5.59,0,0,0,.63-.13v1.24a3.26,3.26,0,0,1-.77.21,6.61,6.61,0,0,1-.93.08q-3.1,0-3.1-3.27v-6.37h-1.54v-.78l1.54-.67.68-2.29H340V668h3.1v1.26H340v6.3a2.13,2.13,0,0,0,.46,1.48A1.57,1.57,0,0,0,341.69,677.53Z"/>
        <path class="cls-2" d="M345.15,665.07a1.11,1.11,0,0,1,.28-.82,1,1,0,0,1,1.36,0,1.1,1.1,0,0,1,.28.81,1.13,1.13,0,0,1-.28.82,1,1,0,0,1-.68.26,1,1,0,0,1-.68-.26A1.13,1.13,0,0,1,345.15,665.07Zm1.76,13.6h-1.62V668h1.62Z"/>
        <path class="cls-2" d="M357.67,678.67v-6.92a2.78,2.78,0,0,0-.59-2,2.44,2.44,0,0,0-1.87-.65,3.09,3.09,0,0,0-2.46.91,4.61,4.61,0,0,0-.78,3v5.61h-1.62V668h1.32l.26,1.47H352a3.3,3.3,0,0,1,1.4-1.23,4.51,4.51,0,0,1,2-.43,4.07,4.07,0,0,1,2.91.93,4,4,0,0,1,1,3v7Z"/>
        <path class="cls-2" d="M371.39,668v1l-2,.23a3.49,3.49,0,0,1,.71,2.14,3.16,3.16,0,0,1-1.08,2.51,4.35,4.35,0,0,1-2.95.94,5.11,5.11,0,0,1-.9-.08,1.58,1.58,0,0,0-1,1.38.69.69,0,0,0,.36.64,2.62,2.62,0,0,0,1.24.21h1.9a4.26,4.26,0,0,1,2.67.74,2.55,2.55,0,0,1,.93,2.13,3.06,3.06,0,0,1-1.43,2.71,7.63,7.63,0,0,1-4.16.93,5.65,5.65,0,0,1-3.23-.78,2.67,2.67,0,0,1-.52-3.9,3.26,3.26,0,0,1,1.76-1,1.71,1.71,0,0,1-.69-.57,1.58,1.58,0,0,1-.28-.91,1.75,1.75,0,0,1,.32-1,3.27,3.27,0,0,1,1-.85,2.84,2.84,0,0,1-1.35-1.16,3.37,3.37,0,0,1-.52-1.87,3.47,3.47,0,0,1,1.05-2.71,4.3,4.3,0,0,1,3-1,5.43,5.43,0,0,1,1.51.19Zm-8.54,12.5a1.45,1.45,0,0,0,.73,1.32,4,4,0,0,0,2.1.45,5.81,5.81,0,0,0,3-.61,1.87,1.87,0,0,0,1-1.66,1.29,1.29,0,0,0-.54-1.2,4.1,4.1,0,0,0-2-.34h-1.95a2.55,2.55,0,0,0-1.71.53A1.87,1.87,0,0,0,362.85,680.47Zm.88-9.07a2.2,2.2,0,0,0,.63,1.7,2.58,2.58,0,0,0,1.77.57,2.06,2.06,0,0,0,2.37-2.3,2.12,2.12,0,0,0-2.4-2.41,2.38,2.38,0,0,0-1.76.61A2.48,2.48,0,0,0,363.73,671.4Z"/>
      </g>
      <rect class="cls-5" x="325.48" y="701.88" width="222" height="31"/>
      <rect class="cls-5" x="200.48" y="701.89" width="26" height="31"/>
      <g>
        <path class="cls-2" d="M341.15,715.53H346v6.94a14.36,14.36,0,0,1-2.31.55,16.67,16.67,0,0,1-2.71.19,6.6,6.6,0,0,1-5.05-1.93,7.59,7.59,0,0,1-1.81-5.41A8.25,8.25,0,0,1,335,712a6.13,6.13,0,0,1,2.58-2.56,8.31,8.31,0,0,1,3.93-.88,10.72,10.72,0,0,1,4.26.84l-.64,1.46a9.64,9.64,0,0,0-3.72-.82,5.33,5.33,0,0,0-4.08,1.56,6,6,0,0,0-1.46,4.3,6.18,6.18,0,0,0,1.41,4.39,5.45,5.45,0,0,0,4.15,1.49,12.24,12.24,0,0,0,2.9-.34V717h-3.2Z"/>
        <path class="cls-2" d="M354.07,712.11a6.19,6.19,0,0,1,1.28.12l-.22,1.5a6.13,6.13,0,0,0-1.17-.14,2.87,2.87,0,0,0-2.23,1,3.89,3.89,0,0,0-.92,2.63V723h-1.62v-10.7h1.34l.18,2h.08a4.73,4.73,0,0,1,1.44-1.61A3.2,3.2,0,0,1,354.07,712.11Z"/>
        <path class="cls-2" d="M363.94,723l-.33-1.52h-.07a4.59,4.59,0,0,1-1.6,1.36,4.82,4.82,0,0,1-2,.36,3.59,3.59,0,0,1-2.49-.82,3,3,0,0,1-.91-2.34q0-3.24,5.19-3.4l1.82,0v-.67a2.72,2.72,0,0,0-.55-1.86,2.23,2.23,0,0,0-1.73-.6,7,7,0,0,0-3,.82l-.5-1.24a7.4,7.4,0,0,1,1.74-.67,7.22,7.22,0,0,1,1.89-.25,4.09,4.09,0,0,1,2.83.85,3.55,3.55,0,0,1,.93,2.73V723Zm-3.67-1.14a3.3,3.3,0,0,0,2.38-.83,3.06,3.06,0,0,0,.87-2.33v-1l-1.62.07a5.78,5.78,0,0,0-2.79.6,1.8,1.8,0,0,0-.86,1.65,1.69,1.69,0,0,0,.53,1.34A2.21,2.21,0,0,0,360.27,721.87Z"/>
        <path class="cls-2" d="M373.46,723.21a4.56,4.56,0,0,1-1.91-.39,3.54,3.54,0,0,1-1.45-1.19H370a14.12,14.12,0,0,1,.12,1.78v4.41h-1.62V712.31h1.32l.22,1.46h.08a3.78,3.78,0,0,1,1.45-1.27,4.46,4.46,0,0,1,1.91-.39,3.94,3.94,0,0,1,3.28,1.46,7.73,7.73,0,0,1,0,8.18A4,4,0,0,1,373.46,723.21Zm-.24-9.72a2.86,2.86,0,0,0-2.37.91,4.63,4.63,0,0,0-.75,2.89v.36a5.39,5.39,0,0,0,.75,3.23,2.86,2.86,0,0,0,2.41,1,2.52,2.52,0,0,0,2.18-1.12,5.36,5.36,0,0,0,.78-3.1,5.16,5.16,0,0,0-.78-3.07A2.62,2.62,0,0,0,373.22,713.49Z"/>
        <path class="cls-2" d="M388.06,723v-6.92a2.8,2.8,0,0,0-.6-2,2.46,2.46,0,0,0-1.86-.64,3.07,3.07,0,0,0-2.47.92,4.62,4.62,0,0,0-.78,3V723h-1.62V707.82h1.62v4.6a10.42,10.42,0,0,1-.07,1.37h.09a3.3,3.3,0,0,1,1.37-1.21,4.37,4.37,0,0,1,2-.45,4.12,4.12,0,0,1,2.95.94,3.92,3.92,0,0,1,1,3v7Z"/>
        <path class="cls-2" d="M392.87,709.41a1.07,1.07,0,0,1,.28-.82,1,1,0,0,1,.68-.26.94.94,0,0,1,.67.27,1,1,0,0,1,.29.81,1.07,1.07,0,0,1-.29.81.94.94,0,0,1-.67.27.93.93,0,0,1-.68-.27A1.06,1.06,0,0,1,392.87,709.41Zm1.76,13.6H393v-10.7h1.62Z"/>
        <path class="cls-2" d="M402.34,723.21a4.56,4.56,0,0,1-3.59-1.43,5.91,5.91,0,0,1-1.28-4,6,6,0,0,1,1.3-4.15,4.64,4.64,0,0,1,3.68-1.47,7.27,7.27,0,0,1,1.54.17,5.15,5.15,0,0,1,1.22.39l-.5,1.38a7.64,7.64,0,0,0-1.17-.36,5.6,5.6,0,0,0-1.13-.14q-3.26,0-3.26,4.16a5,5,0,0,0,.8,3,2.77,2.77,0,0,0,2.36,1,7.11,7.11,0,0,0,2.74-.58v1.44A5.89,5.89,0,0,1,402.34,723.21Z"/>
        <path class="cls-2" d="M420.11,723v-6.92a2.8,2.8,0,0,0-.6-2,2.45,2.45,0,0,0-1.86-.64,3.06,3.06,0,0,0-2.46.91,4.57,4.57,0,0,0-.79,3V723h-1.62v-10.7h1.32l.27,1.46h.07a3.4,3.4,0,0,1,1.4-1.22,4.55,4.55,0,0,1,2-.44,4,4,0,0,1,2.91.94,4,4,0,0,1,1,3v7Z"/>
        <path class="cls-2" d="M434.3,717.65a5.9,5.9,0,0,1-1.32,4.09,4.64,4.64,0,0,1-3.64,1.47,4.81,4.81,0,0,1-2.55-.68,4.43,4.43,0,0,1-1.72-1.93,6.78,6.78,0,0,1-.61-3,5.93,5.93,0,0,1,1.31-4.08,4.64,4.64,0,0,1,3.63-1.46,4.51,4.51,0,0,1,3.57,1.5A5.82,5.82,0,0,1,434.3,717.65Zm-8.16,0a5.15,5.15,0,0,0,.82,3.13,3.26,3.26,0,0,0,4.83,0,5.06,5.06,0,0,0,.83-3.13,5,5,0,0,0-.83-3.1,2.88,2.88,0,0,0-2.43-1.06,2.85,2.85,0,0,0-2.41,1A5,5,0,0,0,426.14,717.65Z"/>
        <path class="cls-2" d="M439.48,723l-4.06-10.7h1.74l2.3,6.35a29.15,29.15,0,0,1,.92,2.89h.08a21.77,21.77,0,0,1,.68-2.15c.38-1.08,1.23-3.45,2.56-7.09h1.74L441.38,723Z"/>
        <path class="cls-2" d="M451.68,723.21a4.88,4.88,0,0,1-3.74-1.45,5.56,5.56,0,0,1-1.38-4,6.18,6.18,0,0,1,1.28-4.11,4.22,4.22,0,0,1,3.42-1.53,4,4,0,0,1,3.18,1.33,5,5,0,0,1,1.18,3.49v1h-7.38a4.28,4.28,0,0,0,.95,2.86,3.29,3.29,0,0,0,2.55,1,8.68,8.68,0,0,0,3.42-.72v1.44a8.86,8.86,0,0,1-1.63.54A9.72,9.72,0,0,1,451.68,723.21Zm-.44-9.74a2.63,2.63,0,0,0-2.05.84,3.83,3.83,0,0,0-.91,2.32h5.6a3.51,3.51,0,0,0-.69-2.34A2.37,2.37,0,0,0,451.24,713.47Z"/>
        <path class="cls-2" d="M460,723h-1.62V707.82H460Z"/>
      </g>
      <g>
        <rect class="cls-3" x="463.98" y="125.35" width="412.5" height="31"/>
        <g>
          <path class="cls-2" d="M481.93,142.91a3.5,3.5,0,0,1-1.37,2.94,5.89,5.89,0,0,1-3.71,1.06,9.2,9.2,0,0,1-3.9-.66v-1.6a10.42,10.42,0,0,0,1.91.59,10.26,10.26,0,0,0,2.05.21,4.13,4.13,0,0,0,2.5-.63,2.06,2.06,0,0,0,.84-1.75,2.27,2.27,0,0,0-.3-1.22,2.88,2.88,0,0,0-1-.87,14.09,14.09,0,0,0-2.13-.91,6.7,6.7,0,0,1-2.84-1.69,3.73,3.73,0,0,1-.86-2.55,3.15,3.15,0,0,1,1.24-2.62,5.17,5.17,0,0,1,3.28-1,9.7,9.7,0,0,1,3.92.78l-.52,1.45a8.76,8.76,0,0,0-3.44-.75,3.32,3.32,0,0,0-2.06.57,1.88,1.88,0,0,0-.74,1.57,2.45,2.45,0,0,0,.27,1.22,2.72,2.72,0,0,0,.93.87,11.72,11.72,0,0,0,2,.87,8.06,8.06,0,0,1,3.1,1.72A3.39,3.39,0,0,1,481.93,142.91Z"/>
          <path class="cls-2" d="M488.88,146.91a4.58,4.58,0,0,1-3.6-1.43,6,6,0,0,1-1.27-4,6.08,6.08,0,0,1,1.29-4.15,4.68,4.68,0,0,1,3.69-1.47,7.34,7.34,0,0,1,1.54.17,4.91,4.91,0,0,1,1.21.39l-.49,1.38a7.44,7.44,0,0,0-1.18-.36,5.43,5.43,0,0,0-1.12-.14q-3.26,0-3.26,4.16a5,5,0,0,0,.8,3,2.76,2.76,0,0,0,2.35,1.05,7.28,7.28,0,0,0,2.75-.57v1.43A5.89,5.89,0,0,1,488.88,146.91Z"/>
          <path class="cls-2" d="M494,133.11a1.11,1.11,0,0,1,.27-.82A1,1,0,0,1,495,132a.93.93,0,0,1,.67.26,1.31,1.31,0,0,1,0,1.62.94.94,0,0,1-.67.27,1,1,0,0,1-.69-.27A1.08,1.08,0,0,1,494,133.11Zm1.76,13.6h-1.62V136h1.62Z"/>
          <path class="cls-2" d="M503.71,146.91a4.92,4.92,0,0,1-3.75-1.45,5.6,5.6,0,0,1-1.37-4,6.23,6.23,0,0,1,1.27-4.11,4.24,4.24,0,0,1,3.43-1.53,4,4,0,0,1,3.18,1.33,5.06,5.06,0,0,1,1.17,3.49v1h-7.37a4.28,4.28,0,0,0,1,2.87,3.29,3.29,0,0,0,2.55,1,8.6,8.6,0,0,0,3.41-.72v1.44a8.54,8.54,0,0,1-1.62.54A9.72,9.72,0,0,1,503.71,146.91Zm-.44-9.74a2.65,2.65,0,0,0-2.06.84,3.89,3.89,0,0,0-.9,2.33h5.59a3.52,3.52,0,0,0-.68-2.35A2.38,2.38,0,0,0,503.27,137.17Z"/>
          <path class="cls-2" d="M517.73,146.71v-6.92a2.82,2.82,0,0,0-.59-1.95,2.44,2.44,0,0,0-1.87-.65,3.06,3.06,0,0,0-2.46.91,4.59,4.59,0,0,0-.78,3v5.61h-1.62V136h1.32l.26,1.46h.08a3.31,3.31,0,0,1,1.39-1.22,4.56,4.56,0,0,1,2-.44,4.06,4.06,0,0,1,2.91.94,4,4,0,0,1,1,3v7Z"/>
          <path class="cls-2" d="M526.14,145.57a5.59,5.59,0,0,0,.83-.06,5.24,5.24,0,0,0,.63-.14v1.25a3.26,3.26,0,0,1-.77.21,6.49,6.49,0,0,1-.93.08q-3.1,0-3.1-3.27v-6.37h-1.53v-.78l1.53-.68.68-2.28h.94V136h3.11v1.26h-3.11v6.3a2.13,2.13,0,0,0,.46,1.48A1.59,1.59,0,0,0,526.14,145.57Z"/>
          <path class="cls-2" d="M529.61,133.11a1.11,1.11,0,0,1,.27-.82,1,1,0,0,1,1.36,0,1.31,1.31,0,0,1,0,1.62,1,1,0,0,1-.68.27.93.93,0,0,1-.68-.27A1.08,1.08,0,0,1,529.61,133.11Zm1.75,13.6h-1.62V136h1.62Z"/>
          <path class="cls-2" d="M539.63,137.27H536.9v9.44h-1.62v-9.44h-1.91v-.73l1.91-.59v-.59q0-3.95,3.45-4a7,7,0,0,1,2,.34l-.42,1.3a5.44,5.44,0,0,0-1.6-.3,1.56,1.56,0,0,0-1.36.61,3.44,3.44,0,0,0-.44,2V136h2.73Zm1.81-4.16a1.07,1.07,0,0,1,.28-.82,1,1,0,0,1,.68-.25.93.93,0,0,1,.67.26,1.28,1.28,0,0,1,0,1.62.94.94,0,0,1-.67.27.93.93,0,0,1-.68-.27A1,1,0,0,1,541.44,133.11Zm1.76,13.6h-1.62V136h1.62Z"/>
          <path class="cls-2" d="M550.91,146.91a4.58,4.58,0,0,1-3.59-1.43,5.91,5.91,0,0,1-1.28-4,6,6,0,0,1,1.3-4.15,4.64,4.64,0,0,1,3.68-1.47,7.27,7.27,0,0,1,1.54.17,5.15,5.15,0,0,1,1.22.39l-.5,1.38a7.64,7.64,0,0,0-1.17-.36,5.6,5.6,0,0,0-1.13-.14q-3.26,0-3.26,4.16a5,5,0,0,0,.8,3,2.77,2.77,0,0,0,2.36,1.05,7.27,7.27,0,0,0,2.74-.57v1.43A5.89,5.89,0,0,1,550.91,146.91Z"/>
          <path class="cls-2" d="M572.44,146.71h-1.66V140h-7.52v6.72H561.6V132.44h1.66v6.07h7.52v-6.07h1.66Z"/>
          <path class="cls-2" d="M576,133.11a1.07,1.07,0,0,1,.28-.82,1,1,0,0,1,.68-.25.91.91,0,0,1,.67.26,1.28,1.28,0,0,1,0,1.62,1,1,0,0,1-1.35,0A1,1,0,0,1,576,133.11Zm1.76,13.6h-1.62V136h1.62Z"/>
          <path class="cls-2" d="M589.93,136v1l-2,.23a3.35,3.35,0,0,1,.48.89,3.31,3.31,0,0,1,.22,1.25,3.16,3.16,0,0,1-1.08,2.51,4.32,4.32,0,0,1-2.94.94,5.11,5.11,0,0,1-.9-.08,1.59,1.59,0,0,0-1,1.37.69.69,0,0,0,.36.65,2.65,2.65,0,0,0,1.24.21h1.9a4.22,4.22,0,0,1,2.67.74,2.52,2.52,0,0,1,.93,2.12,3,3,0,0,1-1.42,2.71,7.56,7.56,0,0,1-4.16.94,5.7,5.7,0,0,1-3.24-.78,2.53,2.53,0,0,1-1.14-2.21,2.48,2.48,0,0,1,.63-1.69,3.13,3.13,0,0,1,1.75-1,1.71,1.71,0,0,1-.69-.57,1.57,1.57,0,0,1-.27-.91,1.74,1.74,0,0,1,.31-1,3.46,3.46,0,0,1,1-.85,2.82,2.82,0,0,1-1.36-1.16,3.84,3.84,0,0,1,.54-4.58,4.25,4.25,0,0,1,3-1,5.49,5.49,0,0,1,1.52.2Zm-8.54,12.5a1.46,1.46,0,0,0,.74,1.32,4,4,0,0,0,2.1.45,5.94,5.94,0,0,0,3-.61,1.88,1.88,0,0,0,1-1.66,1.29,1.29,0,0,0-.54-1.2,4.1,4.1,0,0,0-2-.34h-1.94A2.51,2.51,0,0,0,582,147,1.87,1.87,0,0,0,581.39,148.51Zm.88-9.07a2.17,2.17,0,0,0,.64,1.7,2.54,2.54,0,0,0,1.76.57,2.07,2.07,0,0,0,2.38-2.3,2.12,2.12,0,0,0-2.4-2.41,2.37,2.37,0,0,0-1.76.61A2.48,2.48,0,0,0,582.27,139.44Z"/>
          <path class="cls-2" d="M599.45,146.71v-6.92a2.78,2.78,0,0,0-.6-1.95,2.41,2.41,0,0,0-1.86-.65,3.07,3.07,0,0,0-2.47.92,4.69,4.69,0,0,0-.77,3v5.59h-1.62V131.52h1.62v4.6a10.2,10.2,0,0,1-.08,1.37h.1a3.22,3.22,0,0,1,1.36-1.21,4.39,4.39,0,0,1,2-.45,4.09,4.09,0,0,1,2.94.94,3.94,3.94,0,0,1,1,3v7Z"/>
          <path class="cls-2" d="M617.9,142.91a3.5,3.5,0,0,1-1.37,2.94,5.89,5.89,0,0,1-3.71,1.06,9.25,9.25,0,0,1-3.91-.66v-1.6a10.78,10.78,0,0,0,1.92.59,10.26,10.26,0,0,0,2,.21,4.15,4.15,0,0,0,2.5-.63,2.06,2.06,0,0,0,.84-1.75,2.27,2.27,0,0,0-.3-1.22,2.83,2.83,0,0,0-1-.87,13.45,13.45,0,0,0-2.12-.91,6.74,6.74,0,0,1-2.85-1.69,3.72,3.72,0,0,1-.85-2.55,3.15,3.15,0,0,1,1.24-2.62,5.17,5.17,0,0,1,3.28-1,9.73,9.73,0,0,1,3.92.78l-.52,1.45a8.8,8.8,0,0,0-3.44-.75,3.3,3.3,0,0,0-2.06.57,1.88,1.88,0,0,0-.74,1.57,2.45,2.45,0,0,0,.27,1.22,2.68,2.68,0,0,0,.92.87,12.29,12.29,0,0,0,2,.87,7.92,7.92,0,0,1,3.09,1.72A3.35,3.35,0,0,1,617.9,142.91Z"/>
          <path class="cls-2" d="M624.85,146.91a4.58,4.58,0,0,1-3.6-1.43,5.91,5.91,0,0,1-1.27-4,6.08,6.08,0,0,1,1.29-4.15,4.65,4.65,0,0,1,3.69-1.47,7.34,7.34,0,0,1,1.54.17,5.05,5.05,0,0,1,1.21.39l-.5,1.38a7.31,7.31,0,0,0-1.17-.36,5.51,5.51,0,0,0-1.12-.14c-2.18,0-3.26,1.39-3.26,4.16a5,5,0,0,0,.79,3,2.78,2.78,0,0,0,2.36,1.05,7.32,7.32,0,0,0,2.75-.57v1.43A5.89,5.89,0,0,1,624.85,146.91Z"/>
          <path class="cls-2" d="M637.42,146.71v-6.92a2.78,2.78,0,0,0-.6-1.95,2.41,2.41,0,0,0-1.86-.65,3.07,3.07,0,0,0-2.47.92,4.63,4.63,0,0,0-.77,3v5.59h-1.63V131.52h1.63v4.6a10.2,10.2,0,0,1-.08,1.37h.09a3.3,3.3,0,0,1,1.37-1.21,4.37,4.37,0,0,1,2-.45,4.12,4.12,0,0,1,2.95.94,3.94,3.94,0,0,1,1,3v7Z"/>
          <path class="cls-2" d="M651.61,141.35a5.9,5.9,0,0,1-1.32,4.09,4.64,4.64,0,0,1-3.64,1.47,4.81,4.81,0,0,1-2.55-.68,4.38,4.38,0,0,1-1.72-1.93,6.78,6.78,0,0,1-.61-3,5.93,5.93,0,0,1,1.31-4.08,4.66,4.66,0,0,1,3.64-1.46,4.51,4.51,0,0,1,3.56,1.5A5.82,5.82,0,0,1,651.61,141.35Zm-8.16,0a5.15,5.15,0,0,0,.82,3.13,3.26,3.26,0,0,0,4.83,0,5,5,0,0,0,.83-3.13,5,5,0,0,0-.83-3.1,3.3,3.3,0,0,0-4.84,0A5,5,0,0,0,643.45,141.35Z"/>
          <path class="cls-2" d="M663.69,141.35a5.9,5.9,0,0,1-1.32,4.09,4.64,4.64,0,0,1-3.64,1.47,4.81,4.81,0,0,1-2.55-.68,4.38,4.38,0,0,1-1.72-1.93,6.78,6.78,0,0,1-.61-3,5.93,5.93,0,0,1,1.31-4.08,4.66,4.66,0,0,1,3.64-1.46,4.51,4.51,0,0,1,3.56,1.5A5.82,5.82,0,0,1,663.69,141.35Zm-8.16,0a5.15,5.15,0,0,0,.82,3.13,3.26,3.26,0,0,0,4.83,0,5,5,0,0,0,.83-3.13,5,5,0,0,0-.83-3.1,3.3,3.3,0,0,0-4.84,0A5,5,0,0,0,655.53,141.35Z"/>
          <path class="cls-2" d="M668.15,146.71h-1.62V131.52h1.62Z"/>
        </g>
      </g>
      <rect class="cls-6" x="463.98" y="258.4" width="627.5" height="31"/>
      <g>
        <path d="M475.53,279.76h-1.66V265.48h8V267h-6.3v5.22h5.92v1.48h-5.92Z"/>
        <path d="M488.83,268.86a6.12,6.12,0,0,1,1.28.12l-.22,1.5a5.28,5.28,0,0,0-1.17-.14,2.84,2.84,0,0,0-2.22,1.05,3.83,3.83,0,0,0-.93,2.63v5.74H484v-10.7h1.34l.19,2h.07a4.73,4.73,0,0,1,1.44-1.61A3.2,3.2,0,0,1,488.83,268.86Z"/>
        <path d="M496.64,280a5,5,0,0,1-3.75-1.45,5.6,5.6,0,0,1-1.37-4,6.23,6.23,0,0,1,1.27-4.12,4.27,4.27,0,0,1,3.43-1.52,4,4,0,0,1,3.18,1.32,5.11,5.11,0,0,1,1.17,3.5v1H493.2a4.23,4.23,0,0,0,.95,2.86,3.3,3.3,0,0,0,2.55,1,8.6,8.6,0,0,0,3.41-.72v1.44a7.82,7.82,0,0,1-1.62.53A8.9,8.9,0,0,1,496.64,280Zm-.44-9.74a2.65,2.65,0,0,0-2.06.84,3.86,3.86,0,0,0-.9,2.32h5.59a3.56,3.56,0,0,0-.68-2.35A2.41,2.41,0,0,0,496.2,270.22Z"/>
        <path d="M510.66,279.76v-6.92a2.79,2.79,0,0,0-.6-2,2.4,2.4,0,0,0-1.86-.64,3.06,3.06,0,0,0-2.46.91,4.56,4.56,0,0,0-.78,3v5.62h-1.62v-10.7h1.31l.27,1.46H505a3.25,3.25,0,0,1,1.39-1.22,4.56,4.56,0,0,1,2-.44,4.1,4.1,0,0,1,2.91.93,4,4,0,0,1,1,3v7Z"/>
        <path d="M519.89,280a4.56,4.56,0,0,1-3.6-1.44,5.86,5.86,0,0,1-1.27-4,6.07,6.07,0,0,1,1.29-4.15,4.65,4.65,0,0,1,3.69-1.47,7.34,7.34,0,0,1,1.54.17,5.05,5.05,0,0,1,1.21.39l-.5,1.37a7.64,7.64,0,0,0-1.17-.35,4.88,4.88,0,0,0-1.12-.14c-2.18,0-3.26,1.38-3.26,4.16a4.94,4.94,0,0,0,.79,3,2.76,2.76,0,0,0,2.36,1.06,7.07,7.07,0,0,0,2.74-.58v1.44A5.81,5.81,0,0,1,519.89,280Z"/>
        <path d="M532.46,279.76v-6.92a2.79,2.79,0,0,0-.6-2,2.43,2.43,0,0,0-1.86-.64,3,3,0,0,0-2.47.92,4.61,4.61,0,0,0-.78,3v5.6h-1.62v-15.2h1.62v4.6a10.49,10.49,0,0,1-.07,1.38h.09a3.3,3.3,0,0,1,1.37-1.21,4.37,4.37,0,0,1,2-.45,4.16,4.16,0,0,1,3,.93,4,4,0,0,1,1,3v7Z"/>
      </g>
      <rect class="cls-6" x="463.2" y="302.74" width="902.28" height="31"/>
      <g>
        <path d="M481.83,323.92h-8V309.65h8v1.47h-6.3v4.6h5.92v1.47h-5.92v5.25h6.3Z"/>
        <path d="M492.08,323.92V317a2.78,2.78,0,0,0-.6-1.95,2.43,2.43,0,0,0-1.86-.65,3.13,3.13,0,0,0-2.47.91,4.61,4.61,0,0,0-.78,3v5.61h-1.62v-10.7h1.32l.26,1.47h.08a3.3,3.3,0,0,1,1.4-1.23,4.54,4.54,0,0,1,2-.43,4.07,4.07,0,0,1,2.91.93,4,4,0,0,1,1,3v7Z"/>
        <path d="M505.79,313.22v1l-2,.23a3.52,3.52,0,0,1,.48.89,3.31,3.31,0,0,1,.22,1.25,3.16,3.16,0,0,1-1.08,2.51,4.35,4.35,0,0,1-2.95.94,5.08,5.08,0,0,1-.89-.08,1.59,1.59,0,0,0-1,1.38.69.69,0,0,0,.36.64,2.65,2.65,0,0,0,1.24.21h1.9a4.22,4.22,0,0,1,2.67.74,2.55,2.55,0,0,1,.93,2.13,3.05,3.05,0,0,1-1.42,2.71,7.69,7.69,0,0,1-4.17.93,5.69,5.69,0,0,1-3.23-.78,2.67,2.67,0,0,1-.52-3.9,3.26,3.26,0,0,1,1.76-1,1.71,1.71,0,0,1-.69-.57,1.57,1.57,0,0,1-.27-.91,1.74,1.74,0,0,1,.31-1,3.54,3.54,0,0,1,1-.85,2.84,2.84,0,0,1-1.35-1.16,3.37,3.37,0,0,1-.52-1.87,3.47,3.47,0,0,1,1.05-2.71,4.3,4.3,0,0,1,3-1,5.5,5.5,0,0,1,1.52.19Zm-8.54,12.5A1.47,1.47,0,0,0,498,327a4,4,0,0,0,2.1.45,5.85,5.85,0,0,0,3-.61,1.88,1.88,0,0,0,1-1.66,1.29,1.29,0,0,0-.54-1.2,4.1,4.1,0,0,0-2-.34h-1.94a2.56,2.56,0,0,0-1.72.53A1.87,1.87,0,0,0,497.25,325.72Zm.88-9.07a2.17,2.17,0,0,0,.64,1.7,2.54,2.54,0,0,0,1.76.57c1.59,0,2.38-.76,2.38-2.3a2.13,2.13,0,0,0-2.41-2.41,2.36,2.36,0,0,0-1.75.61A2.48,2.48,0,0,0,498.13,316.65Z"/>
        <path d="M509.61,323.92H508V308.73h1.63Z"/>
        <path d="M512.91,310.32a1.11,1.11,0,0,1,.27-.82,1,1,0,0,1,1.36,0,1.06,1.06,0,0,1,.28.81,1.09,1.09,0,0,1-.28.82,1,1,0,0,1-.68.26,1,1,0,0,1-.68-.26A1.13,1.13,0,0,1,512.91,310.32Zm1.75,13.6H513v-10.7h1.62Z"/>
        <path d="M525,321a2.67,2.67,0,0,1-1.12,2.31,5.22,5.22,0,0,1-3.12.81,6.89,6.89,0,0,1-3.32-.67v-1.51a7.92,7.92,0,0,0,1.65.62,6.92,6.92,0,0,0,1.71.22,3.89,3.89,0,0,0,2-.4,1.4,1.4,0,0,0,.14-2.31,8.51,8.51,0,0,0-2.11-1.05,11.18,11.18,0,0,1-2.13-1,2.86,2.86,0,0,1-.93-.94,2.6,2.6,0,0,1,.75-3.33,5,5,0,0,1,2.92-.75,8.5,8.5,0,0,1,3.38.7l-.57,1.32a7.67,7.67,0,0,0-2.92-.67,3.37,3.37,0,0,0-1.74.36,1.14,1.14,0,0,0-.59,1,1.17,1.17,0,0,0,.22.73,2.17,2.17,0,0,0,.71.58,15.15,15.15,0,0,0,1.87.79,7,7,0,0,1,2.58,1.4A2.47,2.47,0,0,1,525,321Z"/>
        <path d="M535,323.92V317a2.78,2.78,0,0,0-.6-1.95,2.43,2.43,0,0,0-1.86-.65,3.07,3.07,0,0,0-2.47.92,4.62,4.62,0,0,0-.78,3v5.59h-1.62V308.73h1.62v4.6a10.69,10.69,0,0,1-.07,1.38h.09a3.33,3.33,0,0,1,1.37-1.22,4.37,4.37,0,0,1,2-.45,4.16,4.16,0,0,1,3,.94,3.94,3.94,0,0,1,1,3v7Z"/>
      </g>
      <rect class="cls-6" x="198.98" y="347.09" width="178.5" height="31"/>
      <g>
        <path d="M212.15,360.62H217v6.95a15.47,15.47,0,0,1-2.31.54,16.67,16.67,0,0,1-2.71.19,6.56,6.56,0,0,1-5.05-1.93,7.58,7.58,0,0,1-1.81-5.4,8.26,8.26,0,0,1,.89-3.91,6,6,0,0,1,2.58-2.55,8.32,8.32,0,0,1,3.93-.89,10.72,10.72,0,0,1,4.26.84l-.64,1.47a9.46,9.46,0,0,0-3.72-.82,5.33,5.33,0,0,0-4.08,1.55,6,6,0,0,0-1.46,4.31,6.17,6.17,0,0,0,1.41,4.38,5.42,5.42,0,0,0,4.15,1.49,12.24,12.24,0,0,0,2.9-.34v-4.39h-3.2Z"/>
        <path d="M224.71,368.3a4.88,4.88,0,0,1-3.74-1.45,5.56,5.56,0,0,1-1.38-4,6.22,6.22,0,0,1,1.28-4.11,4.22,4.22,0,0,1,3.42-1.52,4.07,4.07,0,0,1,3.19,1.32,5.08,5.08,0,0,1,1.17,3.49v1h-7.38a4.25,4.25,0,0,0,1,2.86,3.29,3.29,0,0,0,2.54,1,8.68,8.68,0,0,0,3.42-.72v1.45a9.32,9.32,0,0,1-1.63.53A9,9,0,0,1,224.71,368.3Zm-.44-9.74a2.63,2.63,0,0,0-2.05.84,3.89,3.89,0,0,0-.91,2.33h5.6a3.6,3.6,0,0,0-.68-2.35A2.4,2.4,0,0,0,224.27,358.56Z"/>
        <path d="M236.29,357.21a6.94,6.94,0,0,1,1.28.11l-.22,1.51a5.43,5.43,0,0,0-1.17-.15,2.85,2.85,0,0,0-2.23,1.06,3.84,3.84,0,0,0-.92,2.62v5.74h-1.62V357.4h1.34l.18,2H233a4.82,4.82,0,0,1,1.44-1.61A3.19,3.19,0,0,1,236.29,357.21Z"/>
        <path d="M253.22,368.1v-7a2.88,2.88,0,0,0-.55-1.92,2.13,2.13,0,0,0-1.7-.64,2.76,2.76,0,0,0-2.24.87,4.15,4.15,0,0,0-.72,2.68v6h-1.62v-7a2.88,2.88,0,0,0-.55-1.92,2.13,2.13,0,0,0-1.7-.64,2.67,2.67,0,0,0-2.24.92,4.93,4.93,0,0,0-.7,3v5.61h-1.63V357.4h1.32l.27,1.47h.07a3.19,3.19,0,0,1,1.3-1.22,3.88,3.88,0,0,1,1.87-.44c1.67,0,2.77.6,3.28,1.81h.08a3.43,3.43,0,0,1,1.39-1.33,4.33,4.33,0,0,1,2.07-.48,3.64,3.64,0,0,1,2.72.93,4.17,4.17,0,0,1,.9,3v7Z"/>
        <path d="M264.76,368.1l-.32-1.52h-.08a4.4,4.4,0,0,1-1.6,1.36,4.8,4.8,0,0,1-2,.36,3.55,3.55,0,0,1-2.5-.82,3,3,0,0,1-.9-2.33q0-3.25,5.18-3.4l1.82-.06V361a2.72,2.72,0,0,0-.54-1.86,2.24,2.24,0,0,0-1.74-.6,7.12,7.12,0,0,0-3,.82l-.5-1.24a7.78,7.78,0,0,1,1.73-.67,7.65,7.65,0,0,1,1.89-.24,4.07,4.07,0,0,1,2.84.85,3.54,3.54,0,0,1,.92,2.72v7.3ZM261.1,367a3.27,3.27,0,0,0,2.38-.83,3.09,3.09,0,0,0,.86-2.32v-1l-1.62.07a6,6,0,0,0-2.79.6,1.81,1.81,0,0,0-.85,1.66,1.64,1.64,0,0,0,.53,1.33A2.18,2.18,0,0,0,261.1,367Z"/>
        <path d="M276.63,368.1v-6.92a2.78,2.78,0,0,0-.6-1.95,2.44,2.44,0,0,0-1.87-.65,3.09,3.09,0,0,0-2.46.91,4.61,4.61,0,0,0-.78,3v5.61H269.3V357.4h1.32l.26,1.47H271a3.3,3.3,0,0,1,1.4-1.23,4.51,4.51,0,0,1,2-.43,4.07,4.07,0,0,1,2.91.93,4,4,0,0,1,1,3v7Z"/>
      </g>
      <line class="cls-1" x1="225.86" y1="81" x2="225.86" y2="235"/>
      <g>
        <path class="cls-3" d="M7.84,101.43,4.4,90.23H4.32q.18,3.4.18,4.56v6.64H1.8V87.15H5.92L9.3,98.07h.06l3.58-10.92h4.12v14.28H14.24V94.67c0-.32,0-.69,0-1.1s.06-1.53.13-3.32H14.3l-3.68,11.18Z"/>
        <path class="cls-3" d="M18.86,90.51h3.26l2.06,6.14a8.13,8.13,0,0,1,.36,1.9h.06a8.11,8.11,0,0,1,.42-1.9l2-6.14h3.19l-4.61,12.31a5.32,5.32,0,0,1-1.82,2.56,4.54,4.54,0,0,1-2.75.85,7,7,0,0,1-1.51-.16V103.7a4.82,4.82,0,0,0,1.17.13,2.11,2.11,0,0,0,1.38-.48,3.13,3.13,0,0,0,.93-1.46l.17-.54Z"/>
        <path class="cls-3" d="M41.93,101.62a5.64,5.64,0,0,1-4.12-1.45,5.51,5.51,0,0,1-1.48-4.12A6.1,6.1,0,0,1,37.7,91.8a4.88,4.88,0,0,1,3.79-1.5,4.81,4.81,0,0,1,3.61,1.32,5,5,0,0,1,1.29,3.64v1.45h-7a2.83,2.83,0,0,0,.75,2,2.62,2.62,0,0,0,2,.72,8.06,8.06,0,0,0,1.87-.21,9.63,9.63,0,0,0,1.83-.65v2.3a7.17,7.17,0,0,1-1.67.58A10.28,10.28,0,0,1,41.93,101.62Zm-.42-9.2A1.89,1.89,0,0,0,40,93a2.82,2.82,0,0,0-.62,1.71h4.18A2.48,2.48,0,0,0,43,93,2,2,0,0,0,41.51,92.42Z"/>
        <path class="cls-3" d="M52.27,101.62a3.57,3.57,0,0,1-3-1.49,8.37,8.37,0,0,1,0-8.33,3.65,3.65,0,0,1,3.08-1.5,3.56,3.56,0,0,1,3.15,1.61h.1a12.26,12.26,0,0,1-.23-2.18v-3.5h3v15.2H56.06L55.49,100h-.13A3.42,3.42,0,0,1,52.27,101.62Zm1-2.37A2,2,0,0,0,55,98.58a3.93,3.93,0,0,0,.58-2.25V96A4.37,4.37,0,0,0,55,93.49a2,2,0,0,0-1.76-.76,1.76,1.76,0,0,0-1.55.84A4.57,4.57,0,0,0,51.16,96a4.25,4.25,0,0,0,.56,2.41A1.81,1.81,0,0,0,53.31,99.25Z"/>
        <path class="cls-3" d="M69.2,101.43l-.4-1.4h-.16a3.18,3.18,0,0,1-1.35,1.18,4.78,4.78,0,0,1-2,.41,3.8,3.8,0,0,1-2.9-1,4.13,4.13,0,0,1-1-3V90.51h3v6.38a3.08,3.08,0,0,0,.42,1.77,1.54,1.54,0,0,0,1.34.59A2,2,0,0,0,68,98.41a5.16,5.16,0,0,0,.56-2.76V90.51h3v10.92Z"/>
        <path class="cls-3" d="M79,101.62c-3.4,0-5.09-1.86-5.09-5.59a6,6,0,0,1,1.38-4.26,5.22,5.22,0,0,1,4-1.47,7.55,7.55,0,0,1,3.4.75l-.88,2.3c-.47-.19-.91-.34-1.31-.46a4.28,4.28,0,0,0-1.21-.18c-1.55,0-2.33,1.1-2.33,3.3s.78,3.2,2.33,3.2A5.41,5.41,0,0,0,80.9,99a5.35,5.35,0,0,0,1.46-.72v2.55a4.68,4.68,0,0,1-1.46.64A8.67,8.67,0,0,1,79,101.62Z"/>
        <path class="cls-3" d="M91.83,101.43l-.58-1.49h-.08a4.5,4.5,0,0,1-1.55,1.32,5.06,5.06,0,0,1-2.07.36,3.37,3.37,0,0,1-2.48-.9,3.45,3.45,0,0,1-.9-2.55,2.9,2.9,0,0,1,1.22-2.57,7,7,0,0,1,3.66-.91l1.9-.06v-.48a1.49,1.49,0,0,0-1.7-1.66,7.73,7.73,0,0,0-3.08.79l-1-2a8.83,8.83,0,0,1,4.18-1,5.17,5.17,0,0,1,3.36,1,3.52,3.52,0,0,1,1.18,2.91v7.28ZM91,96.37l-1.16,0a3.59,3.59,0,0,0-1.93.47,1.46,1.46,0,0,0-.63,1.3q0,1.26,1.44,1.26a2.3,2.3,0,0,0,1.66-.59A2.12,2.12,0,0,0,91,97.27Z"/>
        <path class="cls-3" d="M101.57,99.25a6.76,6.76,0,0,0,1.88-.34v2.21a6.58,6.58,0,0,1-2.74.5,3.34,3.34,0,0,1-2.6-.9A4,4,0,0,1,97.29,98V92.75H95.87V91.49l1.64-1,.86-2.31h1.9v2.33h3.06v2.24h-3.06V98a1.18,1.18,0,0,0,.36.94A1.41,1.41,0,0,0,101.57,99.25Z"/>
        <path class="cls-3" d="M105.53,87.69c0-1,.54-1.46,1.62-1.46s1.62.49,1.62,1.46a1.43,1.43,0,0,1-.41,1.08,1.72,1.72,0,0,1-1.21.38C106.07,89.15,105.53,88.66,105.53,87.69Zm3.1,13.74h-3V90.51h3Z"/>
        <path class="cls-3" d="M121.68,96a5.85,5.85,0,0,1-1.41,4.17,5.09,5.09,0,0,1-3.91,1.5,5.49,5.49,0,0,1-2.78-.69,4.56,4.56,0,0,1-1.84-2,6.67,6.67,0,0,1-.65-3,5.83,5.83,0,0,1,1.4-4.16,5.13,5.13,0,0,1,3.93-1.49,5.47,5.47,0,0,1,2.77.69A4.56,4.56,0,0,1,121,93,6.7,6.7,0,0,1,121.68,96Zm-7.55,0a4.62,4.62,0,0,0,.53,2.45,1.93,1.93,0,0,0,1.74.83,1.88,1.88,0,0,0,1.71-.83,4.6,4.6,0,0,0,.52-2.45,4.52,4.52,0,0,0-.52-2.43,1.92,1.92,0,0,0-1.73-.81,1.89,1.89,0,0,0-1.72.8A4.53,4.53,0,0,0,114.13,96Z"/>
        <path class="cls-3" d="M134.22,101.43h-3V95.05a3,3,0,0,0-.42-1.77,1.52,1.52,0,0,0-1.34-.59,2,2,0,0,0-1.8.83,5.1,5.1,0,0,0-.56,2.77v5.14h-3V90.51h2.28l.4,1.4H127a3.14,3.14,0,0,1,1.37-1.2,4.72,4.72,0,0,1,2-.41,3.85,3.85,0,0,1,2.89,1,4.14,4.14,0,0,1,1,3Z"/>
      </g>
      <g>
        <path class="cls-2" d="M1.8,273.6V259.32h3V271.1h5.8v2.5Z"/>
        <path class="cls-2" d="M19.79,273.6l-.57-1.49h-.08a4.36,4.36,0,0,1-1.55,1.31,4.89,4.89,0,0,1-2.07.37,3.36,3.36,0,0,1-2.48-.9,3.46,3.46,0,0,1-.9-2.56,2.87,2.87,0,0,1,1.21-2.56,7.11,7.11,0,0,1,3.67-.91l1.9-.06v-.48a1.49,1.49,0,0,0-1.7-1.66,7.69,7.69,0,0,0-3.08.79l-1-2a8.86,8.86,0,0,1,4.18-1,5.19,5.19,0,0,1,3.37,1,3.55,3.55,0,0,1,1.18,2.91v7.28Zm-.87-5.06-1.16,0a3.69,3.69,0,0,0-1.93.46,1.49,1.49,0,0,0-.63,1.31q0,1.26,1.44,1.26A2.3,2.3,0,0,0,18.3,271a2.12,2.12,0,0,0,.62-1.58Z"/>
        <path class="cls-2" d="M35,273.6H32v-6.38a3,3,0,0,0-.42-1.77,1.51,1.51,0,0,0-1.34-.59,2,2,0,0,0-1.8.83,5.2,5.2,0,0,0-.56,2.77v5.14h-3V262.68h2.28l.4,1.39h.16a3.2,3.2,0,0,1,1.38-1.19,4.64,4.64,0,0,1,2-.41,3.83,3.83,0,0,1,2.89,1,4.14,4.14,0,0,1,1,3Z"/>
        <path class="cls-2" d="M47.59,262.68v1.51l-1.71.44a3,3,0,0,1,.47,1.64A3.31,3.31,0,0,1,45.12,269a5.25,5.25,0,0,1-3.4,1l-.54,0-.44,0a1,1,0,0,0-.46.79c0,.42.55.64,1.64.64h1.86a4.26,4.26,0,0,1,2.74.77,2.76,2.76,0,0,1,.94,2.27,3.37,3.37,0,0,1-1.6,3,8.32,8.32,0,0,1-4.58,1,6.34,6.34,0,0,1-3.49-.8,2.51,2.51,0,0,1-1.21-2.23,2.36,2.36,0,0,1,.62-1.65,3.44,3.44,0,0,1,1.8-.94,2.1,2.1,0,0,1-.8-.64,1.58,1.58,0,0,1-.34-.95,1.55,1.55,0,0,1,.36-1,4.11,4.11,0,0,1,1.05-.81,2.91,2.91,0,0,1-1.36-1.19,3.6,3.6,0,0,1-.51-1.94,3.42,3.42,0,0,1,1.16-2.76,5.06,5.06,0,0,1,3.32-1,7.82,7.82,0,0,1,1.09.09q.63.07.81.12Zm-8.43,12.46a1.1,1.1,0,0,0,.59,1,3.33,3.33,0,0,0,1.66.35,6,6,0,0,0,2.51-.44,1.35,1.35,0,0,0,.9-1.2.84.84,0,0,0-.53-.85,4.31,4.31,0,0,0-1.66-.24H41.08a2.33,2.33,0,0,0-1.37.39A1.18,1.18,0,0,0,39.16,275.14Zm1.08-8.89a2.25,2.25,0,0,0,.41,1.41,1.73,1.73,0,0,0,2.47,0,2.31,2.31,0,0,0,.39-1.41c0-1.31-.54-2-1.63-2S40.24,264.94,40.24,266.25Z"/>
        <path class="cls-2" d="M57.12,273.6l-.4-1.4h-.16a3.18,3.18,0,0,1-1.35,1.18,4.78,4.78,0,0,1-2,.41,3.8,3.8,0,0,1-2.9-1,4.14,4.14,0,0,1-1-3v-7.12h3v6.37a3.1,3.1,0,0,0,.42,1.78,1.54,1.54,0,0,0,1.34.59,2,2,0,0,0,1.81-.84,5.17,5.17,0,0,0,.56-2.77v-5.13h3V273.6Z"/>
        <path class="cls-2" d="M69.46,273.6l-.57-1.49h-.08a4.36,4.36,0,0,1-1.55,1.31,4.89,4.89,0,0,1-2.07.37,3.36,3.36,0,0,1-2.48-.9,3.46,3.46,0,0,1-.9-2.56A2.87,2.87,0,0,1,63,267.77a7.08,7.08,0,0,1,3.67-.91l1.89-.06v-.48a1.48,1.48,0,0,0-1.7-1.66,7.69,7.69,0,0,0-3.07.79l-1-2a8.86,8.86,0,0,1,4.18-1,5.19,5.19,0,0,1,3.37,1,3.54,3.54,0,0,1,1.17,2.91v7.28Zm-.88-5.06-1.15,0a3.69,3.69,0,0,0-1.93.46,1.47,1.47,0,0,0-.64,1.31c0,.84.49,1.26,1.45,1.26A2.26,2.26,0,0,0,68,271a2.08,2.08,0,0,0,.62-1.58Z"/>
        <path class="cls-2" d="M84.11,262.68v1.51l-1.71.44a3,3,0,0,1,.47,1.64A3.33,3.33,0,0,1,81.65,269a5.3,5.3,0,0,1-3.41,1l-.53,0-.44,0a1,1,0,0,0-.46.79c0,.42.54.64,1.64.64H80.3a4.26,4.26,0,0,1,2.74.77,2.76,2.76,0,0,1,.94,2.27,3.38,3.38,0,0,1-1.59,3,8.38,8.38,0,0,1-4.59,1,6.37,6.37,0,0,1-3.49-.8,2.52,2.52,0,0,1-1.2-2.23,2.36,2.36,0,0,1,.61-1.65,3.43,3.43,0,0,1,1.81-.94,2,2,0,0,1-.8-.64,1.53,1.53,0,0,1-.35-.95,1.56,1.56,0,0,1,.37-1,4.22,4.22,0,0,1,1-.81,3,3,0,0,1-1.36-1.19,3.59,3.59,0,0,1-.5-1.94,3.39,3.39,0,0,1,1.16-2.76,5,5,0,0,1,3.32-1,7.94,7.94,0,0,1,1.09.09,7.64,7.64,0,0,1,.8.12Zm-8.43,12.46a1.1,1.1,0,0,0,.59,1,3.33,3.33,0,0,0,1.66.35,5.92,5.92,0,0,0,2.51-.44,1.36,1.36,0,0,0,.91-1.2.85.85,0,0,0-.54-.85,4.31,4.31,0,0,0-1.66-.24H77.61a2.29,2.29,0,0,0-1.37.39A1.19,1.19,0,0,0,75.68,275.14Zm1.09-8.89a2.25,2.25,0,0,0,.4,1.41,1.49,1.49,0,0,0,1.24.52,1.46,1.46,0,0,0,1.23-.52,2.31,2.31,0,0,0,.39-1.41c0-1.31-.54-2-1.62-2S76.77,264.94,76.77,266.25Z"/>
        <path class="cls-2" d="M90.85,273.79a5.63,5.63,0,0,1-4.12-1.45,5.53,5.53,0,0,1-1.49-4.13A6,6,0,0,1,86.62,264a4.88,4.88,0,0,1,3.79-1.5,4.8,4.8,0,0,1,3.6,1.32,5,5,0,0,1,1.29,3.64v1.45h-7a2.83,2.83,0,0,0,.75,2,2.64,2.64,0,0,0,2,.71,8,8,0,0,0,1.86-.2,9.54,9.54,0,0,0,1.84-.66V273a7.17,7.17,0,0,1-1.67.58A10.35,10.35,0,0,1,90.85,273.79Zm-.42-9.2a1.87,1.87,0,0,0-1.48.6,2.76,2.76,0,0,0-.62,1.71h4.18a2.48,2.48,0,0,0-.58-1.71A1.94,1.94,0,0,0,90.43,264.59Z"/>
        <path class="cls-2" d="M105.34,270.35a3,3,0,0,1-1.17,2.56,5.72,5.72,0,0,1-3.49.88,10.77,10.77,0,0,1-2-.16,8.44,8.44,0,0,1-1.57-.47V270.7a10.76,10.76,0,0,0,1.87.65,7.3,7.3,0,0,0,1.83.26q1.62,0,1.62-.93a.81.81,0,0,0-.21-.58,3.34,3.34,0,0,0-.74-.49c-.36-.19-.82-.41-1.41-.65a8.61,8.61,0,0,1-1.85-1,2.69,2.69,0,0,1-.86-1,3.38,3.38,0,0,1-.27-1.43,2.6,2.6,0,0,1,1.13-2.25,5.5,5.5,0,0,1,3.2-.8,9.09,9.09,0,0,1,3.83.86l-.89,2.15c-.55-.23-1.06-.43-1.54-.58a4.77,4.77,0,0,0-1.45-.22c-.88,0-1.32.24-1.32.71a.85.85,0,0,0,.42.7,13.41,13.41,0,0,0,1.86.87,8.39,8.39,0,0,1,1.88,1,2.87,2.87,0,0,1,.88,1A3.13,3.13,0,0,1,105.34,270.35Z"/>
        <path class="cls-2" d="M1.8,297.6V283.32h3V297.6Z"/>
        <path class="cls-2" d="M21,294.35a3,3,0,0,1-1.17,2.56,5.74,5.74,0,0,1-3.49.88,10.7,10.7,0,0,1-2-.16,8.54,8.54,0,0,1-1.58-.47V294.7a11.06,11.06,0,0,0,1.87.65,7.44,7.44,0,0,0,1.84.26q1.62,0,1.62-.93a.82.82,0,0,0-.22-.58,3.11,3.11,0,0,0-.74-.49,14.41,14.41,0,0,0-1.41-.65,8.87,8.87,0,0,1-1.85-1,2.78,2.78,0,0,1-.86-1,3.38,3.38,0,0,1-.27-1.43,2.6,2.6,0,0,1,1.13-2.25,5.5,5.5,0,0,1,3.2-.8,9.1,9.1,0,0,1,3.84.86l-.9,2.15c-.55-.23-1.06-.43-1.53-.58a4.83,4.83,0,0,0-1.46-.22c-.88,0-1.32.24-1.32.71a.86.86,0,0,0,.43.7A12.3,12.3,0,0,0,18,291a8.28,8.28,0,0,1,1.87,1,2.87,2.87,0,0,1,.88,1A3.13,3.13,0,0,1,21,294.35Z"/>
        <path class="cls-2" d="M27.92,295.42a6.64,6.64,0,0,0,1.87-.34v2.21a6.69,6.69,0,0,1-2.73.5,3.34,3.34,0,0,1-2.6-.9,3.9,3.9,0,0,1-.82-2.71v-5.27H22.22v-1.26l1.64-1,.86-2.31h1.9v2.33h3.06v2.23H26.62v5.27a1.18,1.18,0,0,0,.36.94A1.41,1.41,0,0,0,27.92,295.42Z"/>
        <path class="cls-2" d="M39.74,297.6l-.4-1.4h-.16a3.15,3.15,0,0,1-1.36,1.18,4.7,4.7,0,0,1-2,.41,3.8,3.8,0,0,1-2.9-1,4.14,4.14,0,0,1-1-3v-7.12h3v6.37a3.1,3.1,0,0,0,.42,1.78,1.54,1.54,0,0,0,1.34.59,2,2,0,0,0,1.81-.84,5.19,5.19,0,0,0,.55-2.77v-5.13h3V297.6Z"/>
        <path class="cls-2" d="M48.6,297.79a3.55,3.55,0,0,1-3-1.49,8.37,8.37,0,0,1,0-8.33,3.63,3.63,0,0,1,3.08-1.5,3.59,3.59,0,0,1,3.15,1.6h.09a12.07,12.07,0,0,1-.22-2.17v-3.5h3v15.2H52.4l-.57-1.42H51.7A3.42,3.42,0,0,1,48.6,297.79Zm1-2.37a2,2,0,0,0,1.67-.67,3.78,3.78,0,0,0,.58-2.25v-.32a4.44,4.44,0,0,0-.54-2.52,2,2,0,0,0-1.76-.77,1.77,1.77,0,0,0-1.55.85,4.48,4.48,0,0,0-.55,2.46,4.25,4.25,0,0,0,.56,2.41A1.81,1.81,0,0,0,49.65,295.42Z"/>
        <path class="cls-2" d="M57.68,283.86c0-1,.54-1.46,1.62-1.46s1.62.49,1.62,1.46a1.39,1.39,0,0,1-.41,1.07,1.68,1.68,0,0,1-1.21.39C58.22,285.32,57.68,284.83,57.68,283.86Zm3.1,13.74h-3V286.68h3Z"/>
        <path class="cls-2" d="M68.85,297.79a5.63,5.63,0,0,1-4.12-1.45,5.53,5.53,0,0,1-1.49-4.13A6.09,6.09,0,0,1,64.61,288a4.9,4.9,0,0,1,3.8-1.5,4.8,4.8,0,0,1,3.6,1.32,5,5,0,0,1,1.29,3.64v1.45h-7a2.83,2.83,0,0,0,.75,2,2.63,2.63,0,0,0,2,.71,8.06,8.06,0,0,0,1.87-.2,9.54,9.54,0,0,0,1.84-.66V297a7.34,7.34,0,0,1-1.67.58A10.41,10.41,0,0,1,68.85,297.79Zm-.42-9.2a1.91,1.91,0,0,0-1.49.6,2.82,2.82,0,0,0-.61,1.71h4.18a2.53,2.53,0,0,0-.58-1.71A1.94,1.94,0,0,0,68.43,288.59Z"/>
        <path class="cls-2" d="M79.18,297.79a3.55,3.55,0,0,1-3-1.49,8.37,8.37,0,0,1,0-8.33,3.62,3.62,0,0,1,3.08-1.5,3.57,3.57,0,0,1,3.14,1.6h.1a12.07,12.07,0,0,1-.22-2.17v-3.5h3v15.2H83l-.58-1.42h-.12A3.42,3.42,0,0,1,79.18,297.79Zm1-2.37a2,2,0,0,0,1.68-.67,3.86,3.86,0,0,0,.58-2.25v-.32a4.44,4.44,0,0,0-.54-2.52,2,2,0,0,0-1.76-.77,1.76,1.76,0,0,0-1.55.85,4.48,4.48,0,0,0-.55,2.46,4.25,4.25,0,0,0,.55,2.41A1.81,1.81,0,0,0,80.22,295.42Z"/>
      </g>
      <g>
        <path class="cls-4" d="M10.22,402.68a3.67,3.67,0,0,1-1.39,3A6,6,0,0,1,5,406.84a9.13,9.13,0,0,1-4-.86v-2.81a15.93,15.93,0,0,0,2.44.9,7.12,7.12,0,0,0,1.84.27A2.6,2.6,0,0,0,6.72,404a1.31,1.31,0,0,0,.54-1.14,1.19,1.19,0,0,0-.24-.74,2.38,2.38,0,0,0-.69-.63,17.15,17.15,0,0,0-1.85-1,8.79,8.79,0,0,1-2-1.18,4.44,4.44,0,0,1-1-1.32,3.77,3.77,0,0,1-.39-1.76,3.7,3.7,0,0,1,1.29-3,5.34,5.34,0,0,1,3.55-1.08,8.61,8.61,0,0,1,2.12.26,15.06,15.06,0,0,1,2.12.75l-1,2.35a13.83,13.83,0,0,0-1.89-.65,5.82,5.82,0,0,0-1.47-.19,2,2,0,0,0-1.32.4,1.35,1.35,0,0,0-.46,1,1.25,1.25,0,0,0,.19.7,2,2,0,0,0,.59.58,19.07,19.07,0,0,0,1.92,1,7.65,7.65,0,0,1,2.74,1.92A3.72,3.72,0,0,1,10.22,402.68Z"/>
        <path class="cls-4" d="M18.57,406.84a3.62,3.62,0,0,1-3-1.4H15.4c.1.91.16,1.44.16,1.58v4.43h-3V395.72H15l.42,1.42h.14a3.44,3.44,0,0,1,3.09-1.62,3.56,3.56,0,0,1,3,1.49,6.91,6.91,0,0,1,1.09,4.15,8.24,8.24,0,0,1-.51,3,4.25,4.25,0,0,1-1.46,2A3.73,3.73,0,0,1,18.57,406.84Zm-.87-8.94a1.9,1.9,0,0,0-1.62.68,3.94,3.94,0,0,0-.52,2.24v.32a4.55,4.55,0,0,0,.52,2.52,1.86,1.86,0,0,0,1.65.77c1.34,0,2-1.1,2-3.31a4.68,4.68,0,0,0-.5-2.41A1.67,1.67,0,0,0,17.7,397.9Z"/>
        <path class="cls-4" d="M35.16,401.16a5.85,5.85,0,0,1-1.41,4.17,5.08,5.08,0,0,1-3.92,1.51,5.47,5.47,0,0,1-2.77-.69,4.61,4.61,0,0,1-1.85-2,6.77,6.77,0,0,1-.64-3A5.85,5.85,0,0,1,26,397a5.12,5.12,0,0,1,3.92-1.48,5.59,5.59,0,0,1,2.78.68,4.56,4.56,0,0,1,1.84,2A6.55,6.55,0,0,1,35.16,401.16Zm-7.55,0a4.56,4.56,0,0,0,.53,2.46,1.9,1.9,0,0,0,1.73.83,1.88,1.88,0,0,0,1.72-.83,4.64,4.64,0,0,0,.52-2.46,4.52,4.52,0,0,0-.53-2.43,1.91,1.91,0,0,0-1.73-.81,1.91,1.91,0,0,0-1.72.81A4.5,4.5,0,0,0,27.61,401.16Z"/>
        <path class="cls-4" d="M43.71,395.52a4.78,4.78,0,0,1,1,.09l-.23,2.79a3.18,3.18,0,0,0-.88-.1,3.15,3.15,0,0,0-2.22.74,2.63,2.63,0,0,0-.79,2v5.55h-3V395.72h2.25l.44,1.84h.15a4.14,4.14,0,0,1,1.37-1.48A3.42,3.42,0,0,1,43.71,395.52Z"/>
        <path class="cls-4" d="M51.3,404.46a6.36,6.36,0,0,0,1.87-.34v2.22a6.69,6.69,0,0,1-2.73.5,3.31,3.31,0,0,1-2.6-.91,3.89,3.89,0,0,1-.82-2.71V398H45.6V396.7l1.64-1,.86-2.31H50v2.32h3.06V398H50v5.26a1.15,1.15,0,0,0,.36.94A1.4,1.4,0,0,0,51.3,404.46Z"/>
        <path class="cls-4" d="M63,403.4A3,3,0,0,1,61.83,406a5.81,5.81,0,0,1-3.49.88,11.68,11.68,0,0,1-2-.16,7.57,7.57,0,0,1-1.57-.48v-2.46a10.46,10.46,0,0,0,1.87.66,7.8,7.8,0,0,0,1.83.26c1.08,0,1.62-.31,1.62-.94a.77.77,0,0,0-.22-.57,3.08,3.08,0,0,0-.74-.5c-.35-.18-.82-.4-1.4-.65a9,9,0,0,1-1.86-1,2.73,2.73,0,0,1-.85-1,3.41,3.41,0,0,1-.27-1.43,2.59,2.59,0,0,1,1.12-2.25,5.52,5.52,0,0,1,3.2-.8,9.1,9.1,0,0,1,3.84.86l-.9,2.15a15,15,0,0,0-1.53-.58,4.83,4.83,0,0,0-1.46-.22c-.87,0-1.31.23-1.31.71a.82.82,0,0,0,.42.69A10.55,10.55,0,0,0,60,400a9,9,0,0,1,1.88,1,2.81,2.81,0,0,1,.87,1A3.18,3.18,0,0,1,63,403.4Z"/>
        <path class="cls-4" d="M70.75,406.64V392.37h3v14.27Z"/>
        <path class="cls-4" d="M85.31,406.64h-3V391.45h3Z"/>
        <path class="cls-4" d="M98.36,401.16A5.85,5.85,0,0,1,97,405.33,5.06,5.06,0,0,1,93,406.84a5.49,5.49,0,0,1-2.78-.69,4.58,4.58,0,0,1-1.84-2,6.64,6.64,0,0,1-.65-3,5.85,5.85,0,0,1,1.4-4.16,5.13,5.13,0,0,1,3.93-1.48,5.57,5.57,0,0,1,2.77.68,4.5,4.5,0,0,1,1.84,2A6.55,6.55,0,0,1,98.36,401.16Zm-7.55,0a4.66,4.66,0,0,0,.53,2.46,1.93,1.93,0,0,0,1.74.83,1.88,1.88,0,0,0,1.71-.83,4.64,4.64,0,0,0,.52-2.46,4.52,4.52,0,0,0-.52-2.43,1.92,1.92,0,0,0-1.73-.81,1.89,1.89,0,0,0-1.72.81A4.49,4.49,0,0,0,90.81,401.16Z"/>
        <path class="cls-4" d="M103.42,406.64l-4.16-10.92h3.11l2.11,6.23a10.7,10.7,0,0,1,.44,2.23H105a9.56,9.56,0,0,1,.44-2.23l2.1-6.23h3.11l-4.16,10.92Z"/>
        <path class="cls-4" d="M117.14,406.84a5.63,5.63,0,0,1-4.12-1.46,5.5,5.5,0,0,1-1.49-4.12,6,6,0,0,1,1.38-4.24,4.86,4.86,0,0,1,3.79-1.5,4.8,4.8,0,0,1,3.6,1.32,5,5,0,0,1,1.29,3.64v1.45h-7a2.86,2.86,0,0,0,.75,2,2.68,2.68,0,0,0,2,.71,8.62,8.62,0,0,0,1.86-.2,9.54,9.54,0,0,0,1.84-.66v2.31a7.17,7.17,0,0,1-1.67.58A11.14,11.14,0,0,1,117.14,406.84Zm-.42-9.2a1.91,1.91,0,0,0-1.49.6,2.82,2.82,0,0,0-.61,1.7h4.18a2.47,2.47,0,0,0-.58-1.7A1.94,1.94,0,0,0,116.72,397.64Z"/>
      </g>
      <g>
        <path class="cls-2" d="M10.54,539.69l-1-3.4H4.3l-1,3.4H0l5-14.34h3.7l5.06,14.34Zm-1.76-5.94q-1.44-4.62-1.62-5.22c-.12-.41-.2-.73-.26-1-.21.83-.83,2.89-1.84,6.18Z"/>
        <path class="cls-2" d="M21.46,528.57a4.75,4.75,0,0,1,1,.08l-.22,2.8a3.23,3.23,0,0,0-.88-.1,3.15,3.15,0,0,0-2.22.73,2.62,2.62,0,0,0-.8,2v5.56h-3V528.77h2.26l.44,1.84h.14a4,4,0,0,1,1.38-1.48A3.32,3.32,0,0,1,21.46,528.57Z"/>
        <path class="cls-2" d="M29,537.51a6.41,6.41,0,0,0,1.88-.34v2.22a6.75,6.75,0,0,1-2.74.49,3.34,3.34,0,0,1-2.6-.9,4,4,0,0,1-.81-2.71V531H23.34v-1.26l1.64-1,.86-2.3h1.9v2.32H30.8V531H27.74v5.26a1.16,1.16,0,0,0,.36.94A1.41,1.41,0,0,0,29,537.51Z"/>
        <path class="cls-2" d="M38.55,539.69V525.41h3v14.28Z"/>
        <path class="cls-2" d="M59.91,539.69h-3v-6.38a3.23,3.23,0,0,0-.39-1.77,1.41,1.41,0,0,0-1.25-.59,1.81,1.81,0,0,0-1.66.84,5.57,5.57,0,0,0-.51,2.76v5.14h-3V528.77h2.27l.4,1.4H53A3,3,0,0,1,54.25,529a4.15,4.15,0,0,1,1.9-.42,3.42,3.42,0,0,1,3.32,1.6h.27A2.91,2.91,0,0,1,61,529a4.31,4.31,0,0,1,1.93-.42,3.79,3.79,0,0,1,2.81.95,4.19,4.19,0,0,1,1,3.05v7.12h-3v-6.38a3.13,3.13,0,0,0-.4-1.77,1.38,1.38,0,0,0-1.24-.59,1.88,1.88,0,0,0-1.64.78,4.45,4.45,0,0,0-.54,2.48Z"/>
        <path class="cls-2" d="M76.71,539.69l-.58-1.49h-.08a4.37,4.37,0,0,1-1.54,1.32,5.11,5.11,0,0,1-2.08.36A3.37,3.37,0,0,1,70,539a3.44,3.44,0,0,1-.91-2.56,2.9,2.9,0,0,1,1.22-2.57,7.06,7.06,0,0,1,3.67-.91l1.89-.06v-.48a1.49,1.49,0,0,0-1.7-1.66,7.9,7.9,0,0,0-3.08.79l-1-2a8.83,8.83,0,0,1,4.18-1,5.26,5.26,0,0,1,3.37,1,3.54,3.54,0,0,1,1.17,2.91v7.28Zm-.88-5.06-1.15,0a3.73,3.73,0,0,0-1.94.47,1.47,1.47,0,0,0-.63,1.31q0,1.26,1.44,1.26a2.29,2.29,0,0,0,1.66-.6,2.1,2.1,0,0,0,.62-1.58Z"/>
        <path class="cls-2" d="M85.31,539.88a3.53,3.53,0,0,1-3-1.49,8.37,8.37,0,0,1,0-8.33,3.65,3.65,0,0,1,3.08-1.49,3.58,3.58,0,0,1,3.15,1.6h.09a12.17,12.17,0,0,1-.22-2.18v-3.5h3v15.2H89.11l-.57-1.42h-.13A3.4,3.4,0,0,1,85.31,539.88Zm1-2.37a2,2,0,0,0,1.67-.66,3.84,3.84,0,0,0,.58-2.26v-.32a4.49,4.49,0,0,0-.54-2.52,2,2,0,0,0-1.76-.76,1.75,1.75,0,0,0-1.55.84,4.51,4.51,0,0,0-.55,2.46,4.22,4.22,0,0,0,.56,2.42A1.83,1.83,0,0,0,86.36,537.51Z"/>
        <path class="cls-2" d="M99.45,539.88a5.64,5.64,0,0,1-4.12-1.45,5.51,5.51,0,0,1-1.48-4.12,6.1,6.1,0,0,1,1.37-4.25A4.9,4.9,0,0,1,99,528.57a4.81,4.81,0,0,1,3.61,1.31,5,5,0,0,1,1.29,3.65V535h-7a2.83,2.83,0,0,0,.75,2,2.62,2.62,0,0,0,2,.72,8.06,8.06,0,0,0,1.87-.21,9,9,0,0,0,1.83-.65v2.3a6.74,6.74,0,0,1-1.67.58A10.28,10.28,0,0,1,99.45,539.88Zm-.42-9.2a1.86,1.86,0,0,0-1.48.61,2.79,2.79,0,0,0-.62,1.7h4.18a2.45,2.45,0,0,0-.57-1.7A1.94,1.94,0,0,0,99,530.68Z"/>
        <path class="cls-2" d="M8.5,563.69l-.58-1.49H7.84a4.4,4.4,0,0,1-1.55,1.32,5.06,5.06,0,0,1-2.07.36A3.41,3.41,0,0,1,1.74,563a3.47,3.47,0,0,1-.9-2.56,2.9,2.9,0,0,1,1.22-2.57A7,7,0,0,1,5.72,557l1.9-.06v-.48a1.49,1.49,0,0,0-1.7-1.66,7.9,7.9,0,0,0-3.08.79l-1-2a8.83,8.83,0,0,1,4.18-1,5.23,5.23,0,0,1,3.36,1,3.52,3.52,0,0,1,1.18,2.91v7.28Zm-.88-5.06-1.16,0a3.69,3.69,0,0,0-1.93.47,1.47,1.47,0,0,0-.63,1.31q0,1.26,1.44,1.26a2.3,2.3,0,0,0,1.66-.6,2.1,2.1,0,0,0,.62-1.58Z"/>
        <path class="cls-2" d="M23.72,563.69h-3v-6.38a3,3,0,0,0-.42-1.77A1.53,1.53,0,0,0,19,555a2,2,0,0,0-1.8.83,5.2,5.2,0,0,0-.56,2.77v5.14h-3V552.77h2.28l.4,1.4h.16a3.16,3.16,0,0,1,1.38-1.2,4.64,4.64,0,0,1,2-.4,3.79,3.79,0,0,1,2.89,1,4.1,4.1,0,0,1,1,3Z"/>
        <path class="cls-2" d="M30.24,563.88a3.53,3.53,0,0,1-3-1.49,8.37,8.37,0,0,1,0-8.33,3.65,3.65,0,0,1,3.08-1.49,3.57,3.57,0,0,1,3.15,1.6h.09a12.17,12.17,0,0,1-.22-2.18v-3.5h3v15.2H34l-.57-1.42h-.13A3.4,3.4,0,0,1,30.24,563.88Zm1.05-2.37a2,2,0,0,0,1.67-.66,3.84,3.84,0,0,0,.58-2.26v-.32a4.49,4.49,0,0,0-.54-2.52,2,2,0,0,0-1.76-.76,1.76,1.76,0,0,0-1.55.84,4.51,4.51,0,0,0-.55,2.46,4.3,4.3,0,0,0,.56,2.42A1.83,1.83,0,0,0,31.29,561.51Z"/>
        <path class="cls-2" d="M52.26,560.45A3,3,0,0,1,51.09,563a5.74,5.74,0,0,1-3.49.88,10.7,10.7,0,0,1-2-.16,7.25,7.25,0,0,1-1.58-.47v-2.46a10.24,10.24,0,0,0,1.87.65,7.5,7.5,0,0,0,1.84.27c1.08,0,1.62-.32,1.62-.94a.78.78,0,0,0-.22-.57,2.81,2.81,0,0,0-.74-.5c-.35-.19-.82-.4-1.41-.65a8.87,8.87,0,0,1-1.85-1,2.78,2.78,0,0,1-.86-1,3.35,3.35,0,0,1-.27-1.43,2.6,2.6,0,0,1,1.13-2.25,5.5,5.5,0,0,1,3.2-.79,9.09,9.09,0,0,1,3.84.85l-.9,2.15q-.83-.35-1.53-.57a4.84,4.84,0,0,0-1.46-.23q-1.32,0-1.32.72a.86.86,0,0,0,.43.69,12.3,12.3,0,0,0,1.86.87,8.28,8.28,0,0,1,1.87,1,2.87,2.87,0,0,1,.88,1A3.18,3.18,0,0,1,52.26,560.45Z"/>
        <path class="cls-2" d="M59.18,561.51a6.3,6.3,0,0,0,1.87-.34v2.22a6.7,6.7,0,0,1-2.73.49,3.34,3.34,0,0,1-2.6-.9,3.9,3.9,0,0,1-.82-2.71V555H53.48v-1.26l1.64-1,.86-2.3h1.9v2.32h3.06V555H57.88v5.26a1.16,1.16,0,0,0,.36.94A1.41,1.41,0,0,0,59.18,561.51Z"/>
        <path class="cls-2" d="M71,563.69l-.4-1.4h-.16a3.15,3.15,0,0,1-1.36,1.18,4.56,4.56,0,0,1-2,.41,3.8,3.8,0,0,1-2.9-1,4.13,4.13,0,0,1-1-3v-7.12h3v6.38a3,3,0,0,0,.42,1.77,1.54,1.54,0,0,0,1.34.59,2,2,0,0,0,1.81-.83,5.21,5.21,0,0,0,.55-2.77v-5.14h3v10.92Z"/>
        <path class="cls-2" d="M79.86,563.88a3.53,3.53,0,0,1-3-1.49,8.37,8.37,0,0,1,0-8.33,3.65,3.65,0,0,1,3.08-1.49,3.58,3.58,0,0,1,3.15,1.6h.09A12.17,12.17,0,0,1,83,552v-3.5h3v15.2H83.66l-.57-1.42H83A3.4,3.4,0,0,1,79.86,563.88Zm1-2.37a2,2,0,0,0,1.67-.66,3.84,3.84,0,0,0,.58-2.26v-.32a4.49,4.49,0,0,0-.54-2.52,2,2,0,0,0-1.76-.76,1.76,1.76,0,0,0-1.55.84,4.51,4.51,0,0,0-.55,2.46,4.3,4.3,0,0,0,.56,2.42A1.83,1.83,0,0,0,80.91,561.51Z"/>
        <path class="cls-2" d="M88.94,550c0-1,.54-1.46,1.62-1.46s1.62.49,1.62,1.46a1.43,1.43,0,0,1-.41,1.08,1.72,1.72,0,0,1-1.21.38C89.48,551.41,88.94,550.92,88.94,550ZM92,563.69h-3V552.77h3Z"/>
        <path class="cls-2" d="M100.11,563.88A5.63,5.63,0,0,1,96,562.43a5.52,5.52,0,0,1-1.49-4.12,6.1,6.1,0,0,1,1.37-4.25,4.93,4.93,0,0,1,3.8-1.49,4.8,4.8,0,0,1,3.6,1.31,5,5,0,0,1,1.29,3.65V559h-7a2.83,2.83,0,0,0,.75,2,2.64,2.64,0,0,0,2,.72,8.06,8.06,0,0,0,1.87-.21,8.85,8.85,0,0,0,1.84-.65v2.3a6.88,6.88,0,0,1-1.67.58A10.41,10.41,0,0,1,100.11,563.88Zm-.42-9.2a1.88,1.88,0,0,0-1.49.61,2.79,2.79,0,0,0-.61,1.7h4.18a2.5,2.5,0,0,0-.58-1.7A1.92,1.92,0,0,0,99.69,554.68Z"/>
        <path class="cls-2" d="M110.44,563.88a3.53,3.53,0,0,1-3-1.49,8.37,8.37,0,0,1,0-8.33,3.64,3.64,0,0,1,3.08-1.49,3.55,3.55,0,0,1,3.14,1.6h.1a12.17,12.17,0,0,1-.22-2.18v-3.5h3v15.2h-2.28l-.58-1.42h-.12A3.4,3.4,0,0,1,110.44,563.88Zm1-2.37a2,2,0,0,0,1.68-.66,3.92,3.92,0,0,0,.58-2.26v-.32a4.49,4.49,0,0,0-.54-2.52,2,2,0,0,0-1.76-.76,1.75,1.75,0,0,0-1.55.84,4.51,4.51,0,0,0-.55,2.46,4.31,4.31,0,0,0,.55,2.42A1.83,1.83,0,0,0,111.48,561.51Z"/>
      </g>
    </g>
  </g>
</svg>
