<svg xmlns="http://www.w3.org/2000/svg" width="749" height="267.26" viewBox="0 0 749 267.26">
  <defs>
    <style>
      .cls-1 {
        fill: #fff;
        stroke: #231f20;
        stroke-miterlimit: 10;
        stroke-width: 2px;
      }
    </style>
  </defs>
  <title>Risorsa 9</title>
  <g id="Livello_2" data-name="Livello 2">
    <g id="Livello_6" data-name="Livello 6">
      <rect class="cls-1" x="107.04" y="1" width="640.96" height="265.26"/>
      <g>
        <path d="M317.83,114.81l-1.05-7.23h-.34a21.43,21.43,0,0,1-7.07,6.24,18.93,18.93,0,0,1-8.6,1.83q-6.72,0-10.46-3.44t-3.73-9.54a11.78,11.78,0,0,1,5.56-10.38q5.57-3.69,16.11-3.9l8.7-.26v-3q0-6.51-2.65-9.83c-1.76-2.21-4.61-3.32-8.53-3.32a28.57,28.57,0,0,0-13.15,3.53l-1.55-3.61a34.82,34.82,0,0,1,14.87-3.53q7.51,0,11.24,3.91t3.72,12.18v30.37ZM301,111.87q7.31,0,11.53-4.18t4.22-11.62V91.58l-8,.34q-9.63.45-13.72,3T291,102.84a8.54,8.54,0,0,0,2.62,6.66Q296.24,111.87,301,111.87Z"/>
        <path d="M353.66,68.26a35.89,35.89,0,0,1,6.22.59l-.8,4a24.61,24.61,0,0,0-5.92-.71,11.49,11.49,0,0,0-9.58,5q-3.74,4.95-3.74,12.52v25.2h-4.16V69.15h3.53l.42,8.23h.3a19.4,19.4,0,0,1,6-7.08A14.07,14.07,0,0,1,353.66,68.26Z"/>
        <path d="M404.79,69.15V72l-9.45.59A16.14,16.14,0,0,1,399.12,83a14,14,0,0,1-4.39,10.69q-4.39,4.09-11.79,4.09a25.36,25.36,0,0,1-4.36-.25,10.84,10.84,0,0,0-3.79,3.07,6.24,6.24,0,0,0-1.3,3.74,3.45,3.45,0,0,0,1.66,3.19c1.11.67,3,1,5.57,1h8q7.44,0,11.38,3T404,120.4a12.64,12.64,0,0,1-5.86,11.15q-5.85,3.93-16.7,3.93-8.61,0-13.33-3.32a10.66,10.66,0,0,1-4.73-9.24,11,11,0,0,1,2.92-7.82,15.16,15.16,0,0,1,7.92-4.24,8.1,8.1,0,0,1-3.3-2.5,5.93,5.93,0,0,1-1.24-3.72q0-4.58,5.84-8.06a13,13,0,0,1-6.22-5.15,14.72,14.72,0,0,1-2.22-8,14.49,14.49,0,0,1,4.34-11q4.35-4.14,11.75-4.14a21.55,21.55,0,0,1,7,.89Zm-37,53.39q0,9.4,14,9.41,18,0,18-11.47,0-4.11-2.82-6t-9.11-1.85h-7.48Q367.83,112.67,367.82,122.54Zm3.49-39.15c0,3.53,1.07,6.26,3.21,8.21a12.27,12.27,0,0,0,8.59,2.92q5.72,0,8.76-2.9t3.05-8.4c0-3.89-1.05-6.81-3.13-8.76s-5-2.92-8.76-2.92-6.51,1-8.59,3.13S371.31,79.66,371.31,83.39Z"/>
        <path d="M446,114.81V85.19q0-6.89-2.9-10t-9-3.13q-8.19,0-12,4.14t-3.8,13.43v25.2h-4.16V49.44h4.16v20.8l-.21,5.84h.29a15.39,15.39,0,0,1,6.47-6,22.65,22.65,0,0,1,9.7-1.85q15.56,0,15.55,16.68v29.87Z"/>
        <path d="M483.35,115.65q-10,0-15.53-6.13t-5.56-17.18q0-10.94,5.37-17.5t14.5-6.58q8.06,0,12.73,5.63t4.66,15.3v3.36H466.63q.08,9.4,4.39,14.36t12.33,5a37.58,37.58,0,0,0,6.86-.55,40.68,40.68,0,0,0,7.5-2.35v3.78a32.9,32.9,0,0,1-7.14,2.29A39.21,39.21,0,0,1,483.35,115.65ZM482.13,72a13.68,13.68,0,0,0-10.59,4.35q-4,4.35-4.66,12.54h28.23q0-7.93-3.45-12.41A11.33,11.33,0,0,0,482.13,72Z"/>
        <path d="M530.1,68.26a36,36,0,0,1,6.22.59l-.8,4a24.61,24.61,0,0,0-5.92-.71,11.48,11.48,0,0,0-9.58,5q-3.74,4.95-3.74,12.52v25.2h-4.16V69.15h3.53l.42,8.23h.3q2.8-5,6-7.08A14.07,14.07,0,0,1,530.1,68.26Z"/>
        <path d="M545,56.46q0-4,2.64-4a2.35,2.35,0,0,1,2,1,5.15,5.15,0,0,1,.73,3,5.28,5.28,0,0,1-.73,3,2.33,2.33,0,0,1-2,1.1Q545,60.54,545,56.46Zm4.74,58.35H545.6V69.15h4.16Z"/>
        <path d="M577.11,112a31.11,31.11,0,0,0,6.89-.67v3.36a22.11,22.11,0,0,1-7,1q-6.06,0-8.93-3.23t-2.88-10.17V72.76h-6.76V70.32l6.76-1.89,2.1-10.33h2.14V69.15h13.41v3.61H569.46v28.9q0,5.25,1.85,7.77T577.11,112Z"/>
        <path d="M621.6,114.81l-1.05-7.23h-.34a21.45,21.45,0,0,1-7.08,6.24,18.86,18.86,0,0,1-8.59,1.83q-6.72,0-10.46-3.44t-3.74-9.54a11.79,11.79,0,0,1,5.57-10.38q5.57-3.69,16.11-3.9l8.7-.26v-3q0-6.51-2.65-9.83c-1.76-2.21-4.61-3.32-8.53-3.32a28.57,28.57,0,0,0-13.15,3.53l-1.55-3.61a34.82,34.82,0,0,1,14.87-3.53q7.51,0,11.24,3.91t3.71,12.18v30.37Zm-16.81-2.94q7.32,0,11.54-4.18t4.22-11.62V91.58l-8,.34q-9.63.45-13.72,3t-4.1,7.92a8.54,8.54,0,0,0,2.63,6.66Q600,111.87,604.79,111.87Z"/>
        <path d="M317.83,188.8l-1.05-7.23h-.34a21.55,21.55,0,0,1-7.07,6.24,18.93,18.93,0,0,1-8.6,1.83q-6.72,0-10.46-3.44t-3.73-9.54a11.78,11.78,0,0,1,5.56-10.38q5.57-3.69,16.11-3.9l8.7-.26v-3q0-6.51-2.65-9.83c-1.76-2.21-4.61-3.32-8.53-3.32a28.57,28.57,0,0,0-13.15,3.53l-1.55-3.61a34.68,34.68,0,0,1,14.87-3.53q7.51,0,11.24,3.91t3.72,12.18V188.8ZM301,185.86q7.31,0,11.53-4.18t4.22-11.62v-4.49l-8,.34q-9.63.45-13.72,3T291,176.83a8.54,8.54,0,0,0,2.62,6.66Q296.24,185.86,301,185.86Z"/>
        <path d="M371.31,143.14V146l-9.45.58A16.16,16.16,0,0,1,365.64,157a14,14,0,0,1-4.39,10.69q-4.39,4.09-11.79,4.09a25.5,25.5,0,0,1-4.37-.25,10.89,10.89,0,0,0-3.78,3.07,6.18,6.18,0,0,0-1.3,3.74,3.45,3.45,0,0,0,1.66,3.19c1.11.67,3,1,5.57,1h8q7.44,0,11.38,3t3.95,8.89a12.64,12.64,0,0,1-5.86,11.15q-5.87,3.93-16.7,3.93-8.61,0-13.34-3.32a10.65,10.65,0,0,1-4.72-9.24,11,11,0,0,1,2.92-7.82,15.12,15.12,0,0,1,7.92-4.24,8,8,0,0,1-3.3-2.5,5.91,5.91,0,0,1-1.24-3.72q0-4.57,5.84-8.06a13,13,0,0,1-6.22-5.15,14.72,14.72,0,0,1-2.22-8,14.49,14.49,0,0,1,4.34-11q4.35-4.14,11.75-4.14a21.55,21.55,0,0,1,7,.89Zm-37,53.39q0,9.41,14,9.41,18,0,18-11.47,0-4.11-2.82-6c-1.87-1.24-4.91-1.85-9.11-1.85H346.9Q334.35,186.66,334.34,196.53Zm3.49-39.15c0,3.53,1.07,6.26,3.21,8.21a12.27,12.27,0,0,0,8.59,2.92q5.72,0,8.76-2.9t3.05-8.4c0-3.89-1.05-6.81-3.13-8.76s-5-2.92-8.76-2.92-6.51,1-8.59,3.13S337.83,153.65,337.83,157.38Z"/>
        <path d="M408.4,188.8l-1-7.23H407a21.67,21.67,0,0,1-7.08,6.24,18.92,18.92,0,0,1-8.59,1.83q-6.72,0-10.46-3.44t-3.74-9.54a11.78,11.78,0,0,1,5.56-10.38q5.57-3.69,16.11-3.9l8.7-.26v-3q0-6.51-2.65-9.83T396.35,146a28.54,28.54,0,0,0-13.15,3.53l-1.56-3.61a34.68,34.68,0,0,1,14.87-3.53q7.53,0,11.24,3.91t3.72,12.18V188.8Zm-16.8-2.94q7.31,0,11.53-4.18t4.22-11.62v-4.49l-8,.34q-9.62.45-13.72,3t-4.09,7.92a8.54,8.54,0,0,0,2.62,6.66C385.93,185.07,388.41,185.86,391.6,185.86Z"/>
        <path d="M438.31,185.94a31.11,31.11,0,0,0,6.89-.67v3.36a22.06,22.06,0,0,1-7,1q-6,0-8.93-3.23t-2.88-10.17V146.75h-6.76v-2.44l6.76-1.89,2.1-10.33h2.15v11h13.4v3.61h-13.4v28.9c0,3.5.61,6.09,1.85,7.77S435.68,185.94,438.31,185.94Z"/>
        <path d="M467.13,185.94a31.11,31.11,0,0,0,6.89-.67v3.36a22.11,22.11,0,0,1-7,1q-6.06,0-8.93-3.23t-2.88-10.17V146.75h-6.76v-2.44l6.76-1.89,2.1-10.33h2.14v11h13.41v3.61H459.48v28.9q0,5.25,1.85,7.77T467.13,185.94Z"/>
        <path d="M483.3,130.45c0-2.69.89-4,2.65-4a2.35,2.35,0,0,1,2,1,5.15,5.15,0,0,1,.73,3,5.28,5.28,0,0,1-.73,3,2.32,2.32,0,0,1-2,1.09C484.19,134.52,483.3,133.17,483.3,130.45Zm4.75,58.35h-4.16V143.14h4.16Z"/>
      </g>
      <path d="M274.06,266.21h-1.58q-42.53,0-42.52-58.67V151.63H207.51V223.3l4.73-4.34,9.45,10.64L174,266.21q-17.72-20.07-35.83-20.08a44.8,44.8,0,0,0-10.44,1.38q-5.7,1.38-12.79,3.74a11.42,11.42,0,0,1,.59-3.15c.39-1.31,1.38-3.94,1.38-3.94q9-16.53,21.65-25.2V151.63h-22v68.91q0,6.3-5.51,17.32Q96.87,265,71.27,265q-3.94,0-14.17-3.15c-5.52-1.84-26.65-8.66-33.47-8.66q-14.58,0-23.63,12.6,0-22.44,11.62-36.42t32.09-14A56.32,56.32,0,0,1,56.11,217c4.59,1.05,24.61,9.05,27.76,9.05a18.33,18.33,0,0,0,3.94,0,17.12,17.12,0,0,0,8.86-4.13q4.92-4.14,4.92-8.47V47.28s-8.69,5.15-9.84,6.3a10.85,10.85,0,0,0-2.37,5.52V173.29a24.51,24.51,0,0,1-.78,5.9,35.51,35.51,0,0,1-2.76,7.09,42.94,42.94,0,0,1-8.27,10.24,63.22,63.22,0,0,1-11.22,8.27,64.11,64.11,0,0,1-13,5.71,44.05,44.05,0,0,1-13.19,2.16H37.8l-3.54-.39,4.33-3.94q6.28-6.29,6.3-11.81V153.21l-3.55-2.37-2.75-.78c-4.73.52-7.09,2.89-7.09,7.08a5.58,5.58,0,0,1,.39,2.37l1.58,4.72-2.36.4H29.93q-9.85,0-16.54-9.06a30.55,30.55,0,0,1-5.12-17.72q0-15,13.78-23.23c3.94-2.37,22.84-4.33,22.84-4.33V72.09q0-13,17.32-22.44l94.51-48Q174,30.76,193.34,31.93V3.58h14.17V31.14h.79q14.17,0,40.56-29.93Q264.2,18.55,278,25.63h1.19a38.92,38.92,0,0,0,6.3-1.18A31.49,31.49,0,0,0,291,21.69v6.69l-.4,2.76s-2.36,7.94-5.51,12a26.4,26.4,0,0,1-10.24,8.47V208.33a14.9,14.9,0,0,0,3.94,10,16.94,16.94,0,0,0,9.45,5.71l3.94-5.51,11,7.88ZM120.1,38.62l-3.55.79v70.48h22V49.65c-.53-.53-3.57-1.49-4.52-2C133.44,47.36,121.37,40.42,120.1,38.62Zm72.84,178V52.4c-3.14,1.4-10,2.65-11.42,2.37h-.39V213.06C182.44,213.32,192.08,216.2,192.94,216.6ZM207.51,46.1v63.79H230V52.4a29.12,29.12,0,0,1-17.72-9.84c-1.58,2.1-3.28,3.41-4.6,3.41Z"/>
    </g>
  </g>
</svg>
