<svg xmlns="http://www.w3.org/2000/svg" width="634.97" height="255.03" viewBox="0 0 634.97 255.03">
  <defs>
    <style>
      .cls-1 {
        fill: #fff;
        stroke: #231f20;
      }
    </style>
  </defs>
      <rect class="cls-1" x="102.01" y="0.5" width="531.96" height="254.03" shape-rendering="crispEdges" stroke-width="1"/>
      <g>
        <path d="M304.37,109.49l-1-6.92h-.32a20.8,20.8,0,0,1-6.78,6A18.22,18.22,0,0,1,288,110.3q-6.44,0-10-3.3t-3.58-9.14a11.27,11.27,0,0,1,5.33-9.93q5.34-3.54,15.43-3.74l8.33-.24v-2.9q0-6.24-2.54-9.41t-8.16-3.18a27.28,27.28,0,0,0-12.6,3.38l-1.48-3.46A33.19,33.19,0,0,1,293,65q7.2,0,10.76,3.74t3.56,11.66v29.09Zm-16.09-2.81q7,0,11-4t4.05-11.12V87.24l-7.65.33q-9.21.44-13.13,2.87c-2.62,1.63-3.92,4.15-3.92,7.59a8.13,8.13,0,0,0,2.51,6.37C282.86,105.92,285.22,106.68,288.28,106.68Z"/>
        <path d="M338.69,64.92a33.74,33.74,0,0,1,5.95.56l-.76,3.82a23.66,23.66,0,0,0-5.67-.68A11,11,0,0,0,329,73.36a19.43,19.43,0,0,0-3.58,12v24.14h-4V65.76h3.38l.4,7.89h.28a18.55,18.55,0,0,1,5.76-6.78A13.45,13.45,0,0,1,338.69,64.92Z"/>
        <path d="M387.65,65.76v2.78l-9,.56a15.46,15.46,0,0,1,3.62,9.9A13.35,13.35,0,0,1,378,89.24q-4.2,3.92-11.28,3.92a24.54,24.54,0,0,1-4.18-.24,10.5,10.5,0,0,0-3.63,2.93,5.94,5.94,0,0,0-1.24,3.58,3.31,3.31,0,0,0,1.59,3.06c1.06.65,2.83,1,5.33,1h7.64q7.13,0,10.9,2.87t3.78,8.51a12.11,12.11,0,0,1-5.61,10.68q-5.61,3.77-16,3.76-8.25,0-12.77-3.17a10.21,10.21,0,0,1-4.53-8.85,10.49,10.49,0,0,1,2.8-7.49,14.47,14.47,0,0,1,7.58-4.06,7.72,7.72,0,0,1-3.16-2.39,5.71,5.71,0,0,1-1.18-3.56q0-4.4,5.59-7.73a12.48,12.48,0,0,1-6-4.93,14.06,14.06,0,0,1-2.13-7.7,13.83,13.83,0,0,1,4.17-10.52q4.15-4,11.24-4a20.84,20.84,0,0,1,6.68.84Zm-35.4,51.13q0,9,13.39,9,17.22,0,17.22-11,0-3.94-2.69-5.71t-8.73-1.77h-7.16Q352.25,107.44,352.25,116.89Zm3.34-37.49q0,5.07,3.07,7.86a11.75,11.75,0,0,0,8.23,2.8c3.65,0,6.44-.92,8.39-2.78s2.92-4.53,2.92-8q0-5.59-3-8.39c-2-1.86-4.8-2.8-8.39-2.8a11.12,11.12,0,0,0-8.23,3C356.58,73.05,355.59,75.83,355.59,79.4Z"/>
        <path d="M427.12,109.49V81.13q0-6.6-2.78-9.6t-8.61-3q-7.85,0-11.49,4T400.6,85.35v24.14h-4V46.89h4V66.81l-.2,5.59h.28a14.66,14.66,0,0,1,6.2-5.71,21.65,21.65,0,0,1,9.29-1.77q14.9,0,14.89,16v28.6Z"/>
        <path d="M462.88,110.3q-9.54,0-14.86-5.88T442.68,88q0-10.45,5.15-16.76a17,17,0,0,1,13.88-6.29q7.73,0,12.19,5.39T478.37,85v3.22h-31.5q.08,9,4.2,13.76t11.81,4.75a36.43,36.43,0,0,0,6.58-.53,40.4,40.4,0,0,0,7.18-2.25v3.62a32.32,32.32,0,0,1-6.84,2.19A37.83,37.83,0,0,1,462.88,110.3Zm-1.17-41.84a13.06,13.06,0,0,0-10.13,4.16q-3.82,4.17-4.47,12h27q0-7.6-3.3-11.89A10.91,10.91,0,0,0,461.71,68.46Z"/>
        <path d="M507.66,64.92a33.74,33.74,0,0,1,5.95.56l-.76,3.82a23.68,23.68,0,0,0-5.68-.68A11,11,0,0,0,498,73.36a19.36,19.36,0,0,0-3.58,12v24.14h-4V65.76h3.38l.4,7.89h.28a18.63,18.63,0,0,1,5.75-6.78A13.5,13.5,0,0,1,507.66,64.92Z"/>
        <path d="M521.94,53.61q0-3.86,2.53-3.86a2.26,2.26,0,0,1,1.95,1,4.92,4.92,0,0,1,.71,2.85,5.06,5.06,0,0,1-.71,2.86,2.22,2.22,0,0,1-1.95,1Q521.93,57.51,521.94,53.61Zm4.54,55.88h-4V65.76h4Z"/>
        <path d="M552.67,106.76a29.77,29.77,0,0,0,6.6-.65v3.22a21.18,21.18,0,0,1-6.68,1c-3.86,0-6.71-1-8.54-3.1s-2.76-5.31-2.76-9.74V69.22h-6.48V66.89l6.48-1.81,2-9.9h2.05V65.76h12.84v3.46H545.35V96.9q0,5,1.77,7.44T552.67,106.76Z"/>
        <path d="M595.28,109.49l-1-6.92H594a20.8,20.8,0,0,1-6.78,6,18.19,18.19,0,0,1-8.23,1.75q-6.44,0-10-3.3t-3.58-9.14a11.25,11.25,0,0,1,5.33-9.93q5.33-3.54,15.43-3.74l8.32-.24v-2.9q0-6.24-2.53-9.41t-8.17-3.18a27.24,27.24,0,0,0-12.59,3.38l-1.49-3.46A33.22,33.22,0,0,1,583.89,65q7.2,0,10.76,3.74t3.56,11.66v29.09Zm-16.09-2.81q7,0,11-4t4-11.12V87.24l-7.64.33q-9.21.44-13.14,2.87A8.31,8.31,0,0,0,569.57,98a8.13,8.13,0,0,0,2.52,6.37Q574.6,106.68,579.19,106.68Z"/>
        <path d="M304.37,180.35l-1-6.92h-.32a20.64,20.64,0,0,1-6.78,6,18.09,18.09,0,0,1-8.23,1.75q-6.44,0-10-3.3t-3.58-9.13a11.27,11.27,0,0,1,5.33-9.93q5.34-3.54,15.43-3.75l8.33-.24v-2.89q0-6.24-2.54-9.42t-8.16-3.18a27.4,27.4,0,0,0-12.6,3.38l-1.48-3.46A33.34,33.34,0,0,1,293,135.85q7.2,0,10.76,3.75t3.56,11.66v29.09Zm-16.09-2.82q7,0,11-4t4.05-11.12V158.1l-7.65.32q-9.21.45-13.13,2.88c-2.62,1.62-3.92,4.15-3.92,7.58a8.15,8.15,0,0,0,2.51,6.38C282.86,176.78,285.22,177.53,288.28,177.53Z"/>
        <path d="M355.59,136.62v2.77l-9.06.57a15.39,15.39,0,0,1,3.62,9.89,13.34,13.34,0,0,1-4.2,10.24q-4.2,3.93-11.28,3.93a23.46,23.46,0,0,1-4.19-.25,10.48,10.48,0,0,0-3.62,2.94,6,6,0,0,0-1.25,3.58,3.31,3.31,0,0,0,1.59,3.06q1.59,1,5.33,1h7.65q7.11,0,10.9,2.88t3.78,8.51a12.12,12.12,0,0,1-5.61,10.68q-5.61,3.76-16,3.76-8.25,0-12.78-3.18a10.21,10.21,0,0,1-4.52-8.85,10.47,10.47,0,0,1,2.8-7.48,14.47,14.47,0,0,1,7.58-4.06,7.68,7.68,0,0,1-3.16-2.4,5.7,5.7,0,0,1-1.19-3.56q0-4.38,5.6-7.72a12.49,12.49,0,0,1-6-4.93,14.08,14.08,0,0,1-2.13-7.7,13.86,13.86,0,0,1,4.16-10.52q4.17-4,11.25-4a20.84,20.84,0,0,1,6.68.85Zm-35.41,51.13q0,9,13.4,9,17.22,0,17.22-11,0-3.94-2.7-5.71t-8.73-1.77h-7.16Q320.18,178.3,320.18,187.75Zm3.34-37.49q0,5.07,3.08,7.86a11.73,11.73,0,0,0,8.23,2.8c3.64,0,6.44-.93,8.38-2.78s2.92-4.53,2.92-8q0-5.59-3-8.39c-2-1.87-4.79-2.8-8.38-2.8a11.12,11.12,0,0,0-8.23,3Q323.52,144.91,323.52,150.26Z"/>
        <path d="M391.11,180.35l-1-6.92h-.32a20.64,20.64,0,0,1-6.78,6,18,18,0,0,1-8.22,1.75c-4.3,0-7.63-1.1-10-3.3s-3.58-5.24-3.58-9.13a11.25,11.25,0,0,1,5.33-9.93q5.33-3.54,15.43-3.75l8.32-.24v-2.89q0-6.24-2.53-9.42t-8.17-3.18A27.36,27.36,0,0,0,367,142.69l-1.49-3.46a33.37,33.37,0,0,1,14.24-3.38q7.2,0,10.77,3.75t3.56,11.66v29.09ZM375,177.53c4.66,0,8.35-1.33,11-4s4-6.38,4-11.12V158.1l-7.64.32q-9.21.45-13.14,2.88a8.29,8.29,0,0,0-3.92,7.58,8.16,8.16,0,0,0,2.52,6.38C369.59,176.78,372,177.53,375,177.53Z"/>
        <path d="M419.75,177.61a29.88,29.88,0,0,0,6.6-.64v3.22a21.23,21.23,0,0,1-6.68,1q-5.79,0-8.55-3.09t-2.75-9.74V140.08h-6.48v-2.34l6.48-1.8,2-9.9h2.05v10.58h12.84v3.46H412.43v27.68q0,5,1.77,7.44T419.75,177.61Z"/>
        <path d="M447.35,177.61A29.88,29.88,0,0,0,454,177v3.22a21.23,21.23,0,0,1-6.68,1q-5.79,0-8.55-3.09T436,168.32V140.08h-6.48v-2.34l6.48-1.8,2-9.9h2v10.58h12.83v3.46H440v27.68q0,5,1.77,7.44T447.35,177.61Z"/>
        <path d="M462.84,124.47c0-2.58.84-3.86,2.53-3.86a2.25,2.25,0,0,1,2,1,5,5,0,0,1,.7,2.86,5.15,5.15,0,0,1-.7,2.86,2.24,2.24,0,0,1-2,1Q462.84,128.37,462.84,124.47Zm4.55,55.88h-4V136.62h4Z"/>
      </g>
      <path d="M262.45,254.49h-1.51q-40.73,0-40.72-56.19V144.75H198.73v68.63l4.52-4.14,9.05,10.18-45.63,35.07q-17-19.25-34.31-19.24a43.49,43.49,0,0,0-10,1.32q-5.46,1.34-12.25,3.59a11.06,11.06,0,0,1,.57-3c.37-1.26,1.32-3.77,1.32-3.77q8.67-15.84,20.74-24.13V144.75H111.62v66q0,6-5.28,16.6-13.57,26-38.09,26-3.77,0-13.57-3c-5.28-1.76-25.52-8.3-32-8.3Q8.67,242,0,254.11q0-21.5,11.12-34.88t30.74-13.39a54.36,54.36,0,0,1,11.88,1.51c4.39,1,23.56,8.67,26.58,8.67a17.49,17.49,0,0,0,3.77,0,16.3,16.3,0,0,0,8.49-4c3.14-2.64,4.71-5.33,4.71-8.1V44.82s-8.32,4.94-9.43,6a10.34,10.34,0,0,0-2.26,5.28V165.49a23.07,23.07,0,0,1-.76,5.66,34,34,0,0,1-2.63,6.79,41.6,41.6,0,0,1-7.92,9.8,60.85,60.85,0,0,1-10.75,7.92,61.57,61.57,0,0,1-12.44,5.47,42.29,42.29,0,0,1-12.64,2.07H36.2l-3.39-.38L37,199.05c4-4,6-7.79,6-11.31V146.26L39.59,144,37,143.24q-6.78.76-6.78,6.79a5.48,5.48,0,0,1,.37,2.26l1.51,4.53-2.26.38H28.66q-9.43,0-15.84-8.68a29.27,29.27,0,0,1-4.9-17q0-14.34,13.2-22.25C24.89,107,43,105.16,43,105.16V68.58q0-12.44,16.59-21.49l90.5-46q16.59,27.92,35.07,29V3h13.58V29.36h.75q13.58,0,38.84-28.65Q253,17.3,266.22,24.09h1.14a37,37,0,0,0,6-1.14,30.25,30.25,0,0,0,5.28-2.64v6.41l-.38,2.64S276,37,273,40.87a25.23,25.23,0,0,1-9.8,8.1V199.05a14.27,14.27,0,0,0,3.77,9.62,16.33,16.33,0,0,0,9,5.47l3.77-5.28,10.56,7.54ZM115,36.53l-3.39.75v67.5h21.12V47.09c-.51-.5-3.42-1.43-4.34-1.89C127.79,44.9,116.23,38.25,115,36.53ZM184.77,207V49.73c-3,1.33-9.6,2.53-10.93,2.26h-.38V203.58C174.72,203.83,184,206.59,184.77,207Zm14-163.28v61.09h21.49v-55a27.93,27.93,0,0,1-17-9.43c-1.51,2-3.14,3.27-4.4,3.27Z"/>
</svg>
